SplineFontDB: 3.2
FontName: GenSekiHentaiganaGothic
FullName: GenSeki Hentaigana Gothic
FamilyName: GenSeki Hentaigana Gothic
Weight: Regular
Copyright: Copyright 2014-2021 Adobe (http://www.adobe.com/), with Reserved Font Name 'Source'. Source is a trademark of Adobe in the United States and/or other countries.
Version: 1.0
ItalicAngle: 0
UnderlinePosition: -100
UnderlineWidth: 50
Ascent: 880
Descent: 120
InvalidEm: 0
LayerCount: 2
Layer: 0 0 "+gMyXYgAA" 1
Layer: 1 0 "+Uk2XYgAA" 0
HasVMetrics: 1
XUID: [1021 501 934139072 11906778]
BaseHoriz: 4 'icfb' 'icft' 'ideo' 'romn'
BaseScript: 'DFLT' 2  -74 834 -120 0
BaseScript: 'cyrl' 3  -74 834 -120 0
BaseScript: 'grek' 3  -74 834 -120 0
BaseScript: 'hani' 2  -74 834 -120 0
BaseScript: 'kana' 2  -74 834 -120 0
BaseScript: 'latn' 3  -74 834 -120 0
BaseVert: 4 'icfb' 'icft' 'ideo' 'romn'
BaseScript: 'DFLT' 2  46 954 0 120
BaseScript: 'cyrl' 3  46 954 0 120
BaseScript: 'grek' 3  46 954 0 120
BaseScript: 'hani' 2  46 954 0 120
BaseScript: 'kana' 2  46 954 0 120
BaseScript: 'latn' 3  46 954 0 120
StyleMap: 0x0040
FSType: 0
OS2Version: 0
OS2_WeightWidthSlopeOnly: 0
OS2_UseTypoMetrics: 0
CreationTime: 1746358154
ModificationTime: 1756293216
PfmFamily: 33
TTFWeight: 400
TTFWidth: 5
LineGap: 0
VLineGap: 0
Panose: 2 11 5 0 0 0 0 0 0 0
OS2TypoAscent: 880
OS2TypoAOffset: 0
OS2TypoDescent: -120
OS2TypoDOffset: 0
OS2TypoLinegap: 0
OS2WinAscent: 880
OS2WinAOffset: 0
OS2WinDescent: 120
OS2WinDOffset: 0
HheadAscent: 880
HheadAOffset: 0
HheadDescent: -120
HheadDOffset: 0
OS2SubXSize: 650
OS2SubYSize: 600
OS2SubXOff: 0
OS2SubYOff: 75
OS2SupXSize: 650
OS2SupYSize: 600
OS2SupXOff: 0
OS2SupYOff: 350
OS2StrikeYSize: 50
OS2StrikeYPos: 325
OS2CapHeight: 733
OS2XHeight: 543
OS2Vendor: 'ZIHI'
OS2CodePages: 00020000.00000000
Lookup: 4 0 0 "Dakuten and handakuten" { "Dakuten and handakuten subtable"  } ['ccmp' ('DFLT' <'dflt' > 'kana' <'JAN ' 'dflt' > ) ]

StartChar: .notdef
Encoding: 0 -1 0
Width: 1000
GlyphClass: 1
Flags: W
LayerCount: 2
Fore
SplineSet
100 -120 m 1
 100 880 l 1
 900 880 l 1
 900 -120 l 1
 100 -120 l 1
500 421 m 1
 818 830 l 1
 182 830 l 1
 500 421 l 1
532 380 m 1
 850 -29 l 1
 850 789 l 1
 532 380 l 1
182 -70 m 1
 818 -70 l 1
 500 339 l 1
 182 -70 l 1
150 789 m 1
 150 -29 l 1
 468 380 l 1
 150 789 l 1
EndSplineSet
EndChar

StartChar: exclam
Encoding: 2 33 2
Width: 323
GlyphClass: 1
Flags: W
LayerCount: 2
Fore
SplineSet
123 433 m 1
 117 645 l 1
 115 749 l 1
 161 749 l 1
 207 749 l 1
 205 645 l 1
 193 221 l 1
 130 221 l 1
 123 433 l 1
115 107 m 0
 127 119 143 126 161 126 c 0
 180 126 196 119 208 107 c 0
 220 95 227 77 227 56 c 0
 227 15 198 -13 161 -13 c 0
 125 -13 95 15 95 56 c 0
 95 77 103 95 115 107 c 0
EndSplineSet
EndChar

StartChar: quotedbl
Encoding: 3 34 3
Width: 474
GlyphClass: 1
Flags: W
LayerCount: 2
Fore
SplineSet
101 576 m 1
 92 669 l 1
 90 771 l 1
 138 771 l 1
 186 771 l 1
 184 669 l 1
 167 483 l 1
 110 483 l 1
 101 576 l 1
297 576 m 1
 288 669 l 1
 286 771 l 1
 334 771 l 1
 383 771 l 1
 381 669 l 1
 362 483 l 1
 307 483 l 1
 297 576 l 1
EndSplineSet
EndChar

StartChar: numbersign
Encoding: 4 35 4
Width: 555
GlyphClass: 1
Flags: W
LayerCount: 2
Fore
SplineSet
114 114 m 1
 128 229 l 1
 84 229 l 2
 68 229 54 228 40 227 c 0
 36 229 36 292 40 294 c 0
 52 293 72 292 88 292 c 2
 136 292 l 1
 157 458 l 1
 109 458 l 2
 92 458 77 457 62 456 c 0
 58 458 58 521 62 524 c 0
 74 522 96 521 113 521 c 2
 164 521 l 1
 190 726 l 1
 249 726 l 1
 223 521 l 1
 297 521 l 1
 372 521 l 1
 398 726 l 1
 458 726 l 1
 432 521 l 1
 477 521 l 2
 492 521 507 522 522 523 c 0
 526 521 526 458 522 456 c 0
 510 457 490 458 474 458 c 2
 425 458 l 1
 404 292 l 1
 452 292 l 2
 468 292 484 293 500 294 c 0
 504 292 504 229 500 226 c 0
 487 228 466 229 448 229 c 2
 396 229 l 1
 369 0 l 1
 309 0 l 1
 336 229 l 1
 188 229 l 1
 160 0 l 1
 101 0 l 1
 114 114 l 1
354 375 m 1
 365 458 l 1
 290 458 l 1
 216 458 l 1
 195 292 l 1
 344 292 l 1
 354 375 l 1
EndSplineSet
EndChar

StartChar: dollar
Encoding: 5 36 5
Width: 555
GlyphClass: 1
Flags: W
LayerCount: 2
Fore
SplineSet
249 779 m 1
 249 808 l 2
 249 818 248 829 247 836 c 0
 249 842 315 842 318 836 c 0
 316 822 315 800 315 780 c 2
 315 724 l 1
 386 717 432 683 473 641 c 1
 424 587 l 1
 383 627 349 650 288 650 c 0
 219 650 175 607 175 542 c 0
 175 379 488 424 488 184 c 0
 488 78 421 5 315 -10 c 1
 315 -67 l 1
 315 -95 l 2
 315 -105 316 -116 317 -123 c 0
 315 -129 249 -129 246 -123 c 0
 248 -110 249 -87 249 -68 c 2
 249 -12 l 1
 177 -5 105 30 58 74 c 1
 101 137 l 1
 148 96 205 63 273 63 c 0
 356 63 399 108 399 178 c 0
 399 360 87 320 87 537 c 0
 87 638 152 709 249 723 c 1
 249 779 l 1
EndSplineSet
EndChar

StartChar: percent
Encoding: 6 37 6
Width: 921
GlyphClass: 1
Flags: W
LayerCount: 2
Fore
SplineSet
85 345 m 0
 56 385 39 443 39 517 c 0
 39 663 105 746 205 746 c 0
 306 746 372 663 372 517 c 0
 372 443 356 385 326 345 c 0
 297 305 256 284 205 284 c 0
 155 284 114 305 85 345 c 0
275 385 m 0
 292 414 302 459 302 517 c 0
 302 634 263 690 205 690 c 0
 147 690 108 634 108 517 c 0
 108 459 118 414 135 385 c 0
 152 355 176 340 205 340 c 0
 234 340 258 355 275 385 c 0
428 366 m 1
 631 746 l 1
 693 746 l 1
 490 366 l 1
 288 -13 l 1
 226 -13 l 1
 428 366 l 1
596 48 m 0
 567 87 550 145 550 219 c 0
 550 366 616 449 716 449 c 0
 816 449 882 366 882 219 c 0
 882 145 866 87 837 48 c 0
 808 8 766 -13 716 -13 c 0
 666 -13 625 8 596 48 c 0
786 87 m 0
 804 117 814 161 814 219 c 0
 814 336 773 393 716 393 c 0
 658 393 618 336 618 219 c 0
 618 161 628 117 645 87 c 0
 663 58 687 43 716 43 c 0
 745 43 769 58 786 87 c 0
EndSplineSet
EndChar

StartChar: ampersand
Encoding: 7 38 7
Width: 680
GlyphClass: 1
Flags: W
LayerCount: 2
Fore
SplineSet
601 256 m 0
 580 212 555 171 526 133 c 1
 575 98 622 74 663 63 c 1
 639 -13 l 1
 587 0 530 29 470 71 c 1
 414 20 345 -13 259 -13 c 0
 193 -13 137 8 98 44 c 0
 59 80 36 131 36 190 c 0
 36 289 105 350 181 402 c 1
 151 462 133 521 133 574 c 0
 133 671 200 746 301 746 c 0
 392 746 445 687 445 602 c 0
 445 506 362 444 280 385 c 1
 328 309 397 236 466 179 c 1
 511 239 546 311 569 395 c 1
 654 395 l 1
 640 347 623 300 601 256 c 0
167 97 m 0
 193 73 229 60 270 60 c 0
 320 60 368 83 410 119 c 1
 374 151 339 186 306 223 c 0
 274 260 244 299 218 338 c 1
 166 297 125 252 125 195 c 0
 125 154 141 120 167 97 c 0
236 651 m 0
 220 632 211 605 211 575 c 0
 211 535 224 490 246 445 c 1
 280 468 311 491 334 515 c 0
 357 540 371 568 371 600 c 0
 371 643 351 682 302 682 c 0
 274 682 251 670 236 651 c 0
EndSplineSet
EndChar

StartChar: quotesingle
Encoding: 8 39 8
Width: 278
GlyphClass: 1
Flags: W
LayerCount: 2
Fore
SplineSet
101 576 m 1
 92 669 l 1
 90 771 l 1
 138 771 l 1
 186 771 l 1
 184 669 l 1
 167 483 l 1
 110 483 l 1
 101 576 l 1
EndSplineSet
EndChar

StartChar: parenleft
Encoding: 9 40 9
Width: 338
GlyphClass: 1
Flags: W
LayerCount: 2
Fore
SplineSet
131 40 m 0
 106 123 92 213 92 311 c 0
 92 409 106 498 131 582 c 0
 156 665 193 743 239 818 c 1
 295 792 l 1
 209 649 168 480 168 311 c 0
 168 141 209 -29 295 -171 c 1
 239 -196 l 1
 193 -122 156 -44 131 40 c 0
EndSplineSet
EndChar

StartChar: parenright
Encoding: 10 41 10
Width: 338
GlyphClass: 1
Flags: W
LayerCount: 2
Fore
SplineSet
207 582 m 0
 232 498 246 409 246 311 c 0
 246 213 232 123 207 40 c 0
 182 -44 145 -122 99 -196 c 1
 42 -171 l 1
 128 -29 171 141 171 311 c 0
 171 480 128 649 42 792 c 1
 99 818 l 1
 145 743 182 665 207 582 c 0
EndSplineSet
EndChar

StartChar: asterisk
Encoding: 11 42 11
Width: 467
GlyphClass: 1
Flags: W
LayerCount: 2
Fore
SplineSet
273 518 m 1
 234 566 l 1
 194 518 l 1
 154 471 l 1
 110 502 l 1
 173 607 l 1
 65 653 l 1
 82 704 l 1
 196 675 l 1
 206 796 l 1
 260 796 l 1
 270 676 l 1
 384 704 l 1
 401 653 l 1
 292 607 l 1
 356 502 l 1
 312 471 l 1
 273 518 l 1
EndSplineSet
EndChar

StartChar: plus
Encoding: 12 43 12
Width: 555
GlyphClass: 1
Flags: W
LayerCount: 2
Fore
SplineSet
314 512 m 1
 314 403 l 1
 416 403 l 2
 450 403 484 405 518 408 c 1
 522 403 522 335 518 332 c 0
 506 334 484 335 467 335 c 2
 416 335 l 1
 314 335 l 1
 314 225 l 2
 314 188 316 143 319 116 c 1
 314 110 241 110 236 116 c 1
 239 143 241 188 241 225 c 2
 241 335 l 1
 139 335 l 2
 104 335 71 333 38 330 c 1
 34 335 34 403 38 408 c 1
 63 405 104 403 139 403 c 2
 241 403 l 1
 241 513 l 2
 241 550 239 595 236 622 c 1
 241 628 314 628 317 622 c 0
 315 609 314 586 314 567 c 2
 314 512 l 1
EndSplineSet
EndChar

StartChar: comma
Encoding: 13 44 13
Width: 278
GlyphClass: 1
Flags: W
LayerCount: 2
Fore
SplineSet
126 -81 m 0
 143 -58 153 -31 153 -1 c 1
 142 -2 l 2
 106 -2 75 22 75 62 c 0
 75 102 107 126 144 126 c 0
 192 126 221 86 221 19 c 0
 221 -29 207 -72 182 -107 c 0
 157 -143 120 -171 75 -190 c 1
 53 -136 l 1
 84 -123 109 -104 126 -81 c 0
EndSplineSet
EndChar

StartChar: hyphen
Encoding: 14 45 14
Width: 347
GlyphClass: 1
Flags: W
LayerCount: 2
Fore
SplineSet
174 315 m 1
 238 315 l 2
 260 315 281 316 302 318 c 0
 306 315 306 245 302 242 c 0
 286 244 260 245 238 245 c 2
 174 245 l 1
 110 245 l 2
 88 245 67 244 46 242 c 0
 42 245 42 315 46 318 c 0
 62 316 88 315 110 315 c 2
 174 315 l 1
EndSplineSet
EndChar

StartChar: period
Encoding: 15 46 15
Width: 278
GlyphClass: 1
Flags: W
LayerCount: 2
Fore
SplineSet
92 107 m 0
 104 119 121 126 139 126 c 0
 157 126 174 119 186 107 c 0
 198 95 205 77 205 56 c 0
 205 15 175 -13 139 -13 c 0
 102 -13 73 15 73 56 c 0
 73 77 80 95 92 107 c 0
EndSplineSet
EndChar

StartChar: slash
Encoding: 16 47 16
Width: 392
GlyphClass: 1
Flags: W
LayerCount: 2
Fore
SplineSet
161 307 m 1
 311 794 l 1
 377 794 l 1
 227 307 l 1
 78 -179 l 1
 11 -179 l 1
 161 307 l 1
EndSplineSet
EndChar

StartChar: zero
Encoding: 17 48 17
Width: 555
GlyphClass: 1
Flags: W
LayerCount: 2
Fore
SplineSet
112 82 m 0
 72 146 50 241 50 369 c 0
 50 623 138 746 278 746 c 0
 417 746 506 623 506 369 c 0
 506 241 484 146 444 82 c 0
 405 19 348 -13 278 -13 c 0
 208 -13 151 19 112 82 c 0
379 134 m 0
 404 185 418 262 418 369 c 0
 418 583 361 674 278 674 c 0
 195 674 138 583 138 369 c 0
 138 262 152 185 177 134 c 0
 202 84 237 61 278 61 c 0
 320 61 355 84 379 134 c 0
EndSplineSet
EndChar

StartChar: one
Encoding: 18 49 18
Width: 555
GlyphClass: 1
Flags: W
LayerCount: 2
Fore
SplineSet
362 366 m 1
 362 0 l 1
 317 0 l 1
 272 0 l 1
 272 631 l 1
 123 530 l 1
 81 591 l 1
 293 733 l 1
 362 733 l 1
 362 366 l 1
EndSplineSet
EndChar

StartChar: two
Encoding: 19 50 19
Width: 555
GlyphClass: 1
Flags: W
LayerCount: 2
Fore
SplineSet
389 0 m 1
 274 0 l 1
 44 0 l 1
 44 54 l 1
 274 255 380 401 380 527 c 0
 380 611 336 672 245 672 c 0
 185 672 134 636 93 587 c 1
 40 639 l 1
 99 704 163 746 256 746 c 0
 387 746 470 661 470 531 c 0
 470 384 354 235 182 72 c 1
 220 75 265 79 302 79 c 2
 404 79 l 2
 439 79 472 81 505 84 c 1
 509 79 509 0 505 -3 c 0
 491 -1 467 0 447 0 c 2
 389 0 l 1
EndSplineSet
EndChar

StartChar: three
Encoding: 20 51 20
Width: 555
GlyphClass: 1
Flags: W
LayerCount: 2
Fore
SplineSet
414 698 m 0
 452 667 474 621 474 563 c 0
 474 474 422 414 344 387 c 1
 344 382 l 1
 430 361 499 297 499 196 c 0
 499 131 473 78 430 42 c 0
 388 7 329 -13 263 -13 c 0
 149 -13 77 35 29 88 c 1
 76 147 l 1
 119 103 174 63 257 63 c 0
 345 63 406 115 406 199 c 0
 406 288 348 346 178 346 c 1
 178 416 l 1
 330 416 381 477 381 556 c 0
 381 626 334 672 257 672 c 0
 198 672 147 643 105 601 c 1
 56 659 l 1
 111 709 176 746 260 746 c 0
 322 746 376 729 414 698 c 0
EndSplineSet
EndChar

StartChar: four
Encoding: 21 52 21
Width: 555
GlyphClass: 1
Flags: W
LayerCount: 2
Fore
SplineSet
172 497 m 1
 325 733 l 1
 426 733 l 1
 426 275 l 1
 475 275 l 2
 492 275 508 276 524 277 c 0
 528 275 528 202 524 200 c 0
 512 201 492 202 475 202 c 2
 426 202 l 1
 426 0 l 1
 340 0 l 1
 340 202 l 1
 180 202 l 1
 20 202 l 1
 20 262 l 1
 172 497 l 1
198 400 m 1
 115 275 l 1
 227 275 l 1
 340 275 l 1
 340 500 l 2
 340 536 343 596 345 633 c 1
 341 633 l 1
 323 598 303 561 282 525 c 2
 198 400 l 1
EndSplineSet
EndChar

StartChar: five
Encoding: 22 53 22
Width: 555
GlyphClass: 1
Flags: W
LayerCount: 2
Fore
SplineSet
98 562 m 1
 110 733 l 1
 288 733 l 1
 377 733 l 2
 408 733 437 735 466 737 c 1
 470 733 470 655 466 649 c 1
 432 653 374 655 328 655 c 2
 190 655 l 1
 171 443 l 1
 204 461 237 472 281 472 c 0
 402 472 502 400 502 238 c 0
 502 78 385 -13 262 -13 c 0
 147 -13 77 35 27 84 c 1
 73 144 l 1
 114 102 168 63 253 63 c 0
 340 63 409 129 409 236 c 0
 409 341 349 403 257 403 c 0
 208 403 177 388 135 360 c 1
 86 391 l 1
 98 562 l 1
EndSplineSet
EndChar

StartChar: six
Encoding: 23 54 23
Width: 555
GlyphClass: 1
Flags: W
LayerCount: 2
Fore
SplineSet
126 78 m 0
 82 138 56 229 56 350 c 0
 56 494 88 593 138 656 c 0
 188 719 256 746 327 746 c 0
 403 746 458 715 499 671 c 1
 447 615 l 1
 419 649 375 671 331 671 c 0
 229 671 146 594 142 367 c 1
 187 422 251 455 308 455 c 0
 432 455 512 379 512 225 c 0
 512 83 415 -13 301 -13 c 0
 231 -13 170 17 126 78 c 0
392 343 m 0
 371 371 338 387 293 387 c 0
 248 387 192 362 144 294 c 1
 149 218 165 159 192 120 c 0
 218 80 255 59 301 59 c 0
 371 59 425 125 425 225 c 0
 425 275 414 315 392 343 c 0
EndSplineSet
EndChar

StartChar: seven
Encoding: 24 55 24
Width: 555
GlyphClass: 1
Flags: W
LayerCount: 2
Fore
SplineSet
227 655 m 1
 138 655 l 2
 107 655 78 653 49 651 c 1
 45 655 45 733 49 738 c 1
 77 735 125 733 163 733 c 2
 278 733 l 1
 508 733 l 1
 508 678 l 1
 336 458 305 287 293 0 c 1
 198 0 l 1
 211 278 261 455 405 655 c 1
 227 655 l 1
EndSplineSet
EndChar

StartChar: eight
Encoding: 25 56 25
Width: 555
GlyphClass: 1
Flags: W
LayerCount: 2
Fore
SplineSet
446 42 m 0
 406 8 349 -13 280 -13 c 0
 212 -13 154 8 112 42 c 0
 71 77 46 126 46 182 c 0
 46 280 113 349 180 385 c 1
 180 389 l 1
 127 426 81 481 81 558 c 0
 81 669 168 744 282 744 c 0
 407 744 483 664 483 551 c 0
 483 474 429 408 386 374 c 1
 386 369 l 1
 450 332 509 277 509 176 c 0
 509 123 486 76 446 42 c 0
372 638 m 0
 351 662 320 676 281 676 c 0
 213 676 164 629 164 558 c 0
 164 515 184 483 214 458 c 0
 245 433 287 415 330 398 c 1
 379 442 405 492 405 546 c 0
 405 583 394 615 372 638 c 0
171 93 m 0
 199 69 237 55 281 55 c 0
 366 55 422 106 422 179 c 0
 422 229 400 262 364 289 c 0
 329 316 280 335 228 356 c 1
 169 318 127 260 127 190 c 0
 127 151 144 117 171 93 c 0
EndSplineSet
EndChar

StartChar: nine
Encoding: 26 57 26
Width: 555
GlyphClass: 1
Flags: W
LayerCount: 2
Fore
SplineSet
430 659 m 0
 475 602 501 515 501 398 c 0
 501 250 469 147 419 81 c 0
 370 16 304 -13 235 -13 c 0
 155 -13 99 19 58 62 c 1
 108 119 l 1
 140 84 184 63 232 63 c 0
 326 63 408 140 415 367 c 1
 370 313 307 278 246 278 c 0
 124 278 44 357 44 508 c 0
 44 651 140 746 254 746 c 0
 325 746 386 717 430 659 c 0
166 629 m 0
 144 600 130 559 130 508 c 0
 130 410 174 346 261 346 c 0
 310 346 365 374 414 444 c 1
 409 520 393 577 366 616 c 0
 339 655 302 675 255 675 c 0
 220 675 188 659 166 629 c 0
EndSplineSet
EndChar

StartChar: colon
Encoding: 27 58 27
Width: 278
GlyphClass: 1
Flags: W
LayerCount: 2
Fore
SplineSet
186 510 m 0
 198 498 205 481 205 460 c 0
 205 439 198 422 186 409 c 0
 174 397 157 390 139 390 c 0
 102 390 73 418 73 460 c 0
 73 501 102 530 139 530 c 0
 157 530 174 523 186 510 c 0
92 107 m 0
 104 119 121 126 139 126 c 0
 157 126 174 119 186 107 c 0
 198 95 205 77 205 56 c 0
 205 15 175 -13 139 -13 c 0
 102 -13 73 15 73 56 c 0
 73 77 80 95 92 107 c 0
EndSplineSet
EndChar

StartChar: semicolon
Encoding: 28 59 28
Width: 278
GlyphClass: 1
Flags: W
LayerCount: 2
Fore
SplineSet
186 510 m 0
 198 498 205 481 205 460 c 0
 205 439 198 422 186 409 c 0
 174 397 157 390 139 390 c 0
 102 390 73 418 73 460 c 0
 73 501 102 530 139 530 c 0
 157 530 174 523 186 510 c 0
126 -81 m 0
 143 -58 153 -31 153 -1 c 1
 142 -2 l 2
 106 -2 75 22 75 62 c 0
 75 102 107 126 144 126 c 0
 192 126 221 86 221 19 c 0
 221 -29 207 -72 182 -107 c 0
 157 -143 120 -171 75 -190 c 1
 53 -136 l 1
 84 -123 109 -104 126 -81 c 0
EndSplineSet
EndChar

StartChar: less
Encoding: 29 60 29
Width: 555
GlyphClass: 1
Flags: W
LayerCount: 2
Fore
SplineSet
278 240 m 1
 38 335 l 1
 38 407 l 1
 278 501 l 1
 518 596 l 1
 518 517 l 1
 281 429 l 1
 131 373 l 1
 131 369 l 1
 281 313 l 1
 518 226 l 1
 518 146 l 1
 278 240 l 1
EndSplineSet
EndChar

StartChar: equal
Encoding: 30 61 30
Width: 555
GlyphClass: 1
Flags: W
LayerCount: 2
Fore
SplineSet
278 523 m 1
 398 523 l 2
 438 523 478 525 518 528 c 1
 522 523 522 455 518 450 c 1
 488 453 438 455 398 455 c 2
 278 455 l 1
 158 455 l 2
 118 455 78 453 38 450 c 1
 34 455 34 523 38 528 c 1
 68 525 118 523 158 523 c 2
 278 523 l 1
278 283 m 1
 398 283 l 2
 438 283 478 285 518 288 c 1
 522 283 522 215 518 210 c 1
 488 213 438 215 398 215 c 2
 278 215 l 1
 158 215 l 2
 118 215 78 213 38 210 c 1
 34 215 34 283 38 288 c 1
 68 285 118 283 158 283 c 2
 278 283 l 1
EndSplineSet
EndChar

StartChar: greater
Encoding: 31 62 31
Width: 555
GlyphClass: 1
Flags: W
LayerCount: 2
Fore
SplineSet
278 501 m 1
 518 407 l 1
 518 335 l 1
 278 240 l 1
 38 146 l 1
 38 226 l 1
 274 313 l 1
 424 369 l 1
 424 373 l 1
 274 429 l 1
 38 517 l 1
 38 596 l 1
 278 501 l 1
EndSplineSet
EndChar

StartChar: question
Encoding: 32 63 32
Width: 474
GlyphClass: 1
Flags: W
LayerCount: 2
Fore
SplineSet
246 420 m 0
 288 473 332 519 332 578 c 0
 332 638 296 686 224 686 c 0
 174 686 130 662 95 622 c 1
 43 670 l 1
 89 723 153 762 234 762 c 0
 347 762 421 694 421 584 c 0
 421 511 376 459 333 406 c 0
 291 354 250 300 259 221 c 1
 178 221 l 1
 166 308 205 368 246 420 c 0
175 107 m 0
 186 119 203 126 221 126 c 0
 240 126 256 119 268 107 c 0
 281 95 288 77 288 56 c 0
 288 15 258 -13 221 -13 c 0
 184 -13 156 15 156 56 c 0
 156 77 163 95 175 107 c 0
EndSplineSet
EndChar

StartChar: at
Encoding: 33 64 33
Width: 946
GlyphClass: 1
Flags: W
LayerCount: 2
Fore
SplineSet
646 416 m 1
 635 360 l 1
 613 249 l 1
 591 160 613 117 674 117 c 0
 745 117 825 204 825 348 c 0
 825 529 718 661 515 661 c 0
 316 661 123 491 123 230 c 0
 123 12 266 -112 456 -112 c 0
 525 -112 588 -91 637 -62 c 1
 662 -116 l 1
 597 -155 527 -173 449 -173 c 0
 231 -173 56 -34 56 227 c 0
 56 526 273 722 523 722 c 0
 747 722 889 572 889 352 c 0
 889 157 767 55 666 55 c 0
 605 55 558 83 551 140 c 1
 548 140 l 1
 512 97 462 63 412 63 c 0
 336 63 277 120 277 222 c 0
 277 340 362 481 493 481 c 0
 531 481 561 463 582 426 c 1
 584 426 l 1
 597 472 l 1
 657 472 l 1
 646 416 l 1
557 325 m 1
 565 370 l 1
 544 405 524 417 493 417 c 0
 406 417 351 312 351 227 c 0
 351 155 385 126 430 126 c 0
 461 126 495 146 534 193 c 1
 549 281 l 1
 557 325 l 1
EndSplineSet
EndChar

StartChar: A
Encoding: 34 65 34
Width: 608
GlyphClass: 1
Flags: W
LayerCount: 2
Fore
SplineSet
479 366 m 1
 604 0 l 1
 506 0 l 1
 436 224 l 1
 302 224 l 1
 168 224 l 1
 97 0 l 1
 4 0 l 1
 252 733 l 1
 355 733 l 1
 479 366 l 1
209 353 m 1
 191 297 l 1
 302 297 l 1
 413 297 l 1
 378 410 l 2
 351 493 328 573 304 658 c 1
 300 658 l 1
 277 572 253 493 227 410 c 2
 209 353 l 1
EndSplineSet
EndChar

StartChar: B
Encoding: 35 66 35
Width: 657
GlyphClass: 1
Flags: W
LayerCount: 2
Fore
SplineSet
101 366 m 1
 101 550 l 2
 101 611 98 688 93 733 c 0
 93 738 98 738 101 738 c 0
 128 735 173 733 209 733 c 2
 318 733 l 2
 466 733 570 683 570 554 c 0
 570 481 532 417 463 395 c 1
 463 390 l 1
 550 373 612 315 612 215 c 0
 612 71 498 0 334 0 c 2
 217 0 l 1
 159 0 l 2
 139 0 115 -1 101 -3 c 0
 93 -3 93 -1 93 0 c 0
 104 45 101 122 101 183 c 2
 101 366 l 1
193 541 m 1
 193 422 l 1
 302 422 l 2
 428 422 479 467 479 542 c 0
 479 628 421 660 306 660 c 2
 249 660 l 1
 193 660 l 1
 193 541 l 1
193 212 m 1
 193 74 l 1
 321 74 l 2
 447 74 521 119 521 218 c 0
 521 309 450 350 321 350 c 2
 257 350 l 1
 193 350 l 1
 193 212 l 1
EndSplineSet
EndChar

StartChar: C
Encoding: 36 67 36
Width: 638
GlyphClass: 1
Flags: W
LayerCount: 2
Fore
SplineSet
149 87 m 0
 92 152 58 247 58 366 c 0
 58 485 93 580 151 645 c 0
 209 710 290 746 383 746 c 0
 472 746 542 703 584 656 c 1
 534 596 l 1
 495 637 447 665 384 665 c 0
 246 665 153 552 153 369 c 0
 153 184 241 68 381 68 c 0
 451 68 504 99 551 151 c 1
 602 92 l 1
 544 25 472 -13 377 -13 c 0
 286 -13 206 22 149 87 c 0
EndSplineSet
EndChar

StartChar: D
Encoding: 37 68 37
Width: 688
GlyphClass: 1
Flags: W
LayerCount: 2
Fore
SplineSet
101 366 m 1
 101 550 l 2
 101 611 98 688 93 733 c 0
 93 737 98 737 101 737 c 0
 123 735 161 733 192 733 c 2
 284 733 l 2
 509 733 629 603 629 369 c 0
 629 137 509 0 288 0 c 2
 194 0 l 1
 101 0 l 1
 101 366 l 1
193 512 m 1
 193 367 l 1
 193 76 l 1
 276 76 l 2
 449 76 534 184 534 369 c 0
 534 555 449 658 276 658 c 2
 193 658 l 1
 193 512 l 1
EndSplineSet
EndChar

StartChar: E
Encoding: 38 69 38
Width: 589
GlyphClass: 1
Flags: W
LayerCount: 2
Fore
SplineSet
101 366 m 1
 101 550 l 2
 101 611 98 688 93 733 c 0
 93 738 98 738 101 738 c 0
 127 735 171 733 206 733 c 2
 312 733 l 2
 383 733 453 736 523 741 c 1
 527 733 527 655 523 648 c 1
 482 652 413 655 358 655 c 2
 193 655 l 1
 193 425 l 1
 332 425 l 2
 379 425 425 427 471 431 c 1
 475 425 475 346 471 340 c 1
 437 344 379 346 332 346 c 2
 193 346 l 1
 193 79 l 1
 364 79 l 2
 422 79 478 82 534 86 c 1
 538 79 538 0 534 -5 c 1
 507 -2 462 0 426 0 c 2
 317 0 l 1
 209 0 l 2
 173 0 128 -2 101 -5 c 0
 93 -5 93 -2 93 0 c 0
 104 45 101 122 101 183 c 2
 101 366 l 1
EndSplineSet
EndChar

StartChar: F
Encoding: 39 70 39
Width: 552
GlyphClass: 1
Flags: W
LayerCount: 2
Fore
SplineSet
101 366 m 1
 101 550 l 2
 101 611 98 688 93 733 c 0
 93 738 98 738 101 738 c 0
 127 735 171 733 206 733 c 2
 312 733 l 1
 418 733 l 2
 453 733 488 735 523 738 c 1
 527 733 527 655 523 648 c 1
 482 652 413 655 358 655 c 2
 193 655 l 1
 193 407 l 1
 333 407 l 2
 381 407 427 409 473 413 c 1
 477 407 477 329 473 323 c 1
 438 327 381 329 333 329 c 2
 193 329 l 1
 193 0 l 1
 101 0 l 1
 101 366 l 1
EndSplineSet
EndChar

StartChar: G
Encoding: 40 71 40
Width: 689
GlyphClass: 1
Flags: W
LayerCount: 2
Fore
SplineSet
615 226 m 1
 615 72 l 1
 568 23 487 -13 389 -13 c 0
 196 -13 58 128 58 366 c 0
 58 603 200 746 394 746 c 0
 496 746 563 700 605 656 c 1
 555 596 l 1
 518 634 470 665 397 665 c 0
 249 665 153 552 153 369 c 0
 153 184 241 68 398 68 c 0
 450 68 501 84 530 111 c 1
 530 303 l 1
 452 303 l 2
 426 303 400 301 374 299 c 1
 370 303 370 380 374 383 c 0
 389 381 414 380 434 380 c 2
 494 380 l 1
 555 380 l 2
 575 380 600 381 615 383 c 0
 619 383 619 381 619 380 c 0
 617 361 615 330 615 303 c 2
 615 226 l 1
EndSplineSet
EndChar

StartChar: H
Encoding: 41 72 41
Width: 728
GlyphClass: 1
Flags: W
LayerCount: 2
Fore
SplineSet
628 366 m 1
 628 0 l 1
 535 0 l 1
 535 346 l 1
 364 346 l 1
 193 346 l 1
 193 0 l 1
 101 0 l 1
 101 733 l 1
 193 733 l 1
 193 426 l 1
 535 426 l 1
 535 733 l 1
 628 733 l 1
 628 366 l 1
EndSplineSet
EndChar

StartChar: I
Encoding: 42 73 42
Width: 293
GlyphClass: 1
Flags: W
LayerCount: 2
Fore
SplineSet
193 366 m 1
 193 0 l 1
 147 0 l 1
 101 0 l 1
 101 733 l 1
 193 733 l 1
 193 366 l 1
EndSplineSet
EndChar

StartChar: J
Encoding: 43 74 43
Width: 535
GlyphClass: 1
Flags: W
LayerCount: 2
Fore
SplineSet
439 474 m 1
 439 215 l 2
 439 88 380 -13 237 -13 c 0
 144 -13 78 27 35 103 c 1
 101 151 l 1
 134 92 175 68 228 68 c 0
 307 68 346 113 346 224 c 2
 346 733 l 1
 392 733 l 1
 439 733 l 1
 439 474 l 1
EndSplineSet
EndChar

StartChar: K
Encoding: 44 75 44
Width: 646
GlyphClass: 1
Flags: W
LayerCount: 2
Fore
SplineSet
101 366 m 1
 101 733 l 1
 193 733 l 1
 193 365 l 1
 195 365 l 1
 502 733 l 1
 554 733 l 1
 607 733 l 1
 377 455 l 1
 642 0 l 1
 539 0 l 1
 319 382 l 1
 193 232 l 1
 193 0 l 1
 101 0 l 1
 101 366 l 1
EndSplineSet
EndChar

StartChar: L
Encoding: 45 76 45
Width: 543
GlyphClass: 1
Flags: W
LayerCount: 2
Fore
SplineSet
101 366 m 1
 101 733 l 1
 193 733 l 1
 193 79 l 1
 354 79 l 2
 408 79 461 82 514 86 c 1
 518 79 518 0 514 -5 c 1
 489 -2 446 0 411 0 c 2
 307 0 l 1
 204 0 l 2
 169 0 126 -2 101 -5 c 0
 93 -5 93 -2 93 0 c 0
 104 45 101 122 101 183 c 2
 101 366 l 1
EndSplineSet
EndChar

StartChar: M
Encoding: 46 77 46
Width: 812
GlyphClass: 1
Flags: W
LayerCount: 2
Fore
SplineSet
101 366 m 1
 101 550 l 2
 101 611 98 688 93 733 c 0
 93 736 98 736 101 736 c 0
 114 734 137 733 156 733 c 2
 212 733 l 1
 352 341 l 2
 371 291 387 239 405 188 c 1
 409 188 l 1
 428 239 443 291 460 341 c 2
 600 733 l 1
 655 733 l 1
 711 733 l 1
 711 0 l 1
 625 0 l 1
 625 406 l 2
 625 469 632 558 637 622 c 1
 633 622 l 1
 574 455 l 1
 436 74 l 1
 374 74 l 1
 235 455 l 1
 176 622 l 1
 172 622 l 1
 178 558 184 469 184 406 c 2
 184 203 l 2
 184 134 187 50 192 0 c 1
 184 -6 101 -6 93 0 c 1
 98 45 101 122 101 183 c 2
 101 366 l 1
EndSplineSet
EndChar

StartChar: N
Encoding: 47 78 47
Width: 723
GlyphClass: 1
Flags: W
LayerCount: 2
Fore
SplineSet
622 366 m 1
 622 0 l 1
 574 0 l 1
 527 0 l 1
 260 463 l 1
 181 614 l 1
 177 614 l 1
 181 540 188 462 188 385 c 2
 188 0 l 1
 101 0 l 1
 101 733 l 1
 195 733 l 1
 463 271 l 1
 542 120 l 1
 547 120 l 1
 541 193 534 276 534 352 c 2
 534 733 l 1
 622 733 l 1
 622 366 l 1
EndSplineSet
EndChar

StartChar: O
Encoding: 48 79 48
Width: 742
GlyphClass: 1
Flags: W
LayerCount: 2
Fore
SplineSet
146 90 m 0
 90 156 58 252 58 369 c 0
 58 604 187 746 371 746 c 0
 555 746 684 604 684 369 c 0
 684 252 652 156 597 90 c 0
 541 24 463 -13 371 -13 c 0
 279 -13 201 24 146 90 c 0
530 150 m 0
 568 202 589 278 589 369 c 0
 589 552 503 665 371 665 c 0
 239 665 153 552 153 369 c 0
 153 278 175 202 213 150 c 0
 251 98 305 68 371 68 c 0
 437 68 492 98 530 150 c 0
EndSplineSet
EndChar

StartChar: P
Encoding: 49 80 49
Width: 633
GlyphClass: 1
Flags: W
LayerCount: 2
Fore
SplineSet
101 366 m 1
 101 733 l 1
 205 733 l 1
 310 733 l 2
 474 733 584 678 584 518 c 0
 584 363 475 292 314 292 c 2
 193 292 l 1
 193 0 l 1
 101 0 l 1
 101 366 l 1
193 512 m 1
 193 367 l 1
 247 367 l 1
 302 367 l 2
 431 367 492 413 492 518 c 0
 492 625 427 658 298 658 c 2
 193 658 l 1
 193 512 l 1
EndSplineSet
EndChar

StartChar: Q
Encoding: 50 81 50
Width: 742
GlyphClass: 1
Flags: W
LayerCount: 2
Fore
SplineSet
530 146 m 0
 568 199 589 276 589 369 c 0
 589 552 503 665 371 665 c 0
 239 665 153 552 153 369 c 0
 153 276 175 199 213 146 c 0
 251 94 305 64 371 64 c 0
 437 64 492 94 530 146 c 0
146 646 m 0
 201 711 279 746 371 746 c 0
 463 746 541 711 597 646 c 0
 652 581 684 487 684 369 c 0
 684 158 580 18 425 -9 c 1
 458 -74 526 -107 605 -107 c 0
 638 -107 663 -102 682 -96 c 1
 700 -167 l 1
 678 -177 639 -184 595 -184 c 0
 460 -184 367 -110 326 -10 c 1
 166 12 58 154 58 369 c 0
 58 487 90 581 146 646 c 0
EndSplineSet
EndChar

StartChar: R
Encoding: 51 82 51
Width: 635
GlyphClass: 1
Flags: W
LayerCount: 2
Fore
SplineSet
193 521 m 1
 193 385 l 1
 316 385 l 2
 431 385 494 432 494 528 c 0
 494 624 431 658 316 658 c 2
 254 658 l 1
 193 658 l 1
 193 521 l 1
101 366 m 1
 101 550 l 2
 101 611 98 688 93 733 c 0
 93 736 98 736 101 736 c 0
 115 734 139 733 158 733 c 2
 215 733 l 1
 330 733 l 2
 479 733 586 680 586 528 c 0
 586 413 520 345 421 321 c 1
 607 0 l 1
 503 0 l 1
 325 311 l 1
 193 311 l 1
 193 0 l 1
 101 0 l 1
 101 366 l 1
EndSplineSet
EndChar

StartChar: S
Encoding: 52 83 52
Width: 596
GlyphClass: 1
Flags: W
LayerCount: 2
Fore
SplineSet
350 413 m 1
 402 391 l 2
 487 354 553 304 553 195 c 0
 553 79 457 -13 304 -13 c 0
 200 -13 111 29 48 95 c 1
 103 159 l 1
 155 104 229 68 305 68 c 0
 402 68 459 116 459 187 c 0
 459 263 406 287 336 318 c 2
 283 341 l 1
 231 364 l 2
 163 393 82 445 82 552 c 0
 82 665 180 746 313 746 c 0
 400 746 477 709 528 656 c 1
 480 597 l 1
 435 639 381 665 313 665 c 0
 230 665 176 624 176 559 c 0
 176 487 241 460 298 436 c 2
 350 413 l 1
EndSplineSet
EndChar

StartChar: T
Encoding: 53 84 53
Width: 599
GlyphClass: 1
Flags: W
LayerCount: 2
Fore
SplineSet
253 327 m 1
 253 655 l 1
 142 655 l 2
 105 655 68 653 31 650 c 1
 27 655 27 733 31 739 c 1
 64 735 119 733 165 733 c 2
 299 733 l 1
 434 733 l 2
 480 733 524 735 568 739 c 1
 572 733 572 655 568 650 c 1
 541 653 494 655 457 655 c 2
 346 655 l 1
 346 0 l 1
 253 0 l 1
 253 327 l 1
EndSplineSet
EndChar

StartChar: U
Encoding: 54 85 54
Width: 721
GlyphClass: 1
Flags: W
LayerCount: 2
Fore
SplineSet
535 516 m 1
 535 733 l 1
 624 733 l 1
 624 302 l 2
 624 67 510 -13 361 -13 c 0
 211 -13 98 67 98 302 c 2
 98 733 l 1
 144 733 l 1
 190 733 l 1
 190 300 l 2
 190 124 265 68 361 68 c 0
 458 68 535 124 535 300 c 2
 535 516 l 1
EndSplineSet
EndChar

StartChar: V
Encoding: 55 86 55
Width: 575
GlyphClass: 1
Flags: W
LayerCount: 2
Fore
SplineSet
458 366 m 1
 342 0 l 1
 288 0 l 1
 235 0 l 1
 1 733 l 1
 98 733 l 1
 217 336 l 2
 242 250 261 180 288 94 c 1
 292 94 l 1
 320 180 338 250 363 336 c 2
 481 733 l 1
 575 733 l 1
 458 366 l 1
EndSplineSet
EndChar

StartChar: W
Encoding: 56 87 56
Width: 878
GlyphClass: 1
Flags: W
LayerCount: 2
Fore
SplineSet
103 366 m 1
 26 733 l 1
 121 733 l 1
 198 334 l 2
 213 255 227 176 242 96 c 1
 246 96 l 1
 262 176 280 255 298 334 c 2
 399 733 l 1
 484 733 l 1
 586 334 l 2
 604 256 620 176 638 96 c 1
 644 96 l 1
 657 176 671 255 684 334 c 2
 763 733 l 1
 851 733 l 1
 700 0 l 1
 644 0 l 1
 588 0 l 1
 477 442 l 2
 464 500 453 553 441 609 c 1
 437 609 l 1
 426 553 412 500 400 442 c 2
 291 0 l 1
 181 0 l 1
 103 366 l 1
EndSplineSet
EndChar

StartChar: X
Encoding: 57 88 57
Width: 573
GlyphClass: 1
Flags: W
LayerCount: 2
Fore
SplineSet
124 189 m 1
 231 379 l 1
 31 733 l 1
 133 733 l 1
 233 546 l 2
 252 512 267 481 291 438 c 1
 295 438 l 1
 315 481 329 512 347 546 c 2
 445 733 l 1
 542 733 l 1
 342 374 l 1
 557 0 l 1
 506 0 l 1
 455 0 l 1
 346 198 l 2
 327 235 307 272 283 317 c 1
 279 317 l 1
 258 272 239 235 220 198 c 2
 115 0 l 1
 17 0 l 1
 124 189 l 1
EndSplineSet
EndChar

StartChar: Y
Encoding: 58 89 58
Width: 531
GlyphClass: 1
Flags: W
LayerCount: 2
Fore
SplineSet
109 508 m 1
 -1 733 l 1
 48 733 l 1
 97 733 l 1
 192 526 l 2
 216 472 238 420 264 365 c 1
 268 365 l 1
 294 420 319 472 342 526 c 2
 436 733 l 1
 532 733 l 1
 311 284 l 1
 311 0 l 1
 219 0 l 1
 219 284 l 1
 109 508 l 1
EndSplineSet
EndChar

StartChar: Z
Encoding: 59 90 59
Width: 603
GlyphClass: 1
Flags: W
LayerCount: 2
Fore
SplineSet
357 378 m 1
 164 79 l 1
 360 79 l 2
 426 79 491 82 556 87 c 1
 560 79 560 0 556 -6 c 1
 525 -2 472 0 430 0 c 2
 303 0 l 1
 50 0 l 1
 50 56 l 1
 437 655 l 1
 261 655 l 2
 201 655 143 652 85 647 c 1
 81 655 81 733 85 741 c 1
 143 736 239 733 318 733 c 2
 551 733 l 1
 551 678 l 1
 357 378 l 1
EndSplineSet
EndChar

StartChar: bracketleft
Encoding: 60 91 60
Width: 338
GlyphClass: 1
Flags: W
LayerCount: 2
Fore
SplineSet
106 311 m 1
 106 792 l 1
 205 792 l 2
 238 792 271 794 304 796 c 1
 308 792 308 739 304 736 c 0
 288 738 262 739 239 739 c 2
 174 739 l 1
 174 -118 l 1
 239 -118 l 2
 262 -118 283 -117 304 -115 c 0
 308 -118 308 -170 304 -172 c 0
 292 -171 272 -170 255 -170 c 2
 205 -170 l 1
 106 -170 l 1
 106 311 l 1
EndSplineSet
EndChar

StartChar: backslash
Encoding: 61 92 61
Width: 392
GlyphClass: 1
Flags: W
LayerCount: 2
Fore
SplineSet
164 307 m 1
 15 794 l 1
 81 794 l 1
 230 307 l 1
 380 -179 l 1
 314 -179 l 1
 164 307 l 1
EndSplineSet
EndChar

StartChar: bracketright
Encoding: 62 93 62
Width: 338
GlyphClass: 1
Flags: W
LayerCount: 2
Fore
SplineSet
233 311 m 1
 233 -170 l 1
 133 -170 l 1
 83 -170 l 2
 66 -170 50 -171 34 -172 c 0
 30 -170 30 -118 34 -115 c 0
 50 -117 76 -118 99 -118 c 2
 164 -118 l 1
 164 739 l 1
 99 739 l 2
 76 739 55 738 34 736 c 0
 30 739 30 792 34 796 c 1
 58 794 100 792 133 792 c 2
 233 792 l 1
 233 311 l 1
EndSplineSet
EndChar

StartChar: asciicircum
Encoding: 63 94 63
Width: 555
GlyphClass: 1
Flags: W
LayerCount: 2
Fore
SplineSet
152 533 m 1
 237 749 l 1
 318 749 l 1
 403 533 l 1
 488 317 l 1
 408 317 l 1
 335 514 l 1
 280 663 l 1
 275 663 l 1
 220 514 l 1
 147 317 l 1
 68 317 l 1
 152 533 l 1
EndSplineSet
EndChar

StartChar: underscore
Encoding: 64 95 64
Width: 559
GlyphClass: 1
Flags: W
LayerCount: 2
Fore
SplineSet
279 -80 m 1
 412 -80 l 2
 457 -80 501 -78 545 -74 c 1
 549 -80 549 -140 545 -146 c 1
 512 -142 457 -140 412 -140 c 2
 279 -140 l 1
 146 -140 l 2
 101 -140 57 -142 13 -146 c 1
 9 -140 9 -80 13 -74 c 1
 46 -78 101 -80 146 -80 c 2
 279 -80 l 1
EndSplineSet
EndChar

StartChar: grave
Encoding: 65 96 65
Width: 606
GlyphClass: 1
Flags: W
LayerCount: 2
Fore
SplineSet
287 779 m 1
 366 686 l 1
 319 640 l 1
 231 726 l 1
 144 812 l 1
 208 872 l 1
 287 779 l 1
EndSplineSet
EndChar

StartChar: a
Encoding: 66 97 66
Width: 563
GlyphClass: 1
Flags: W
LayerCount: 2
Fore
SplineSet
483 250 m 1
 483 167 l 1
 483 0 l 1
 408 0 l 1
 400 65 l 1
 397 65 l 1
 345 22 284 -13 217 -13 c 0
 126 -13 59 43 59 141 c 0
 59 259 161 318 392 344 c 1
 392 414 369 481 280 481 c 0
 217 481 160 452 117 423 c 1
 82 486 l 1
 131 518 207 557 295 557 c 0
 428 557 483 469 483 334 c 2
 483 250 l 1
201 233 m 0
 163 211 147 182 147 147 c 0
 147 85 189 61 243 61 c 0
 295 61 339 85 392 132 c 1
 392 207 l 1
 392 283 l 1
 301 273 239 256 201 233 c 0
EndSplineSet
EndChar

StartChar: b
Encoding: 67 98 67
Width: 618
GlyphClass: 1
Flags: W
LayerCount: 2
Fore
SplineSet
92 398 m 1
 92 796 l 1
 138 796 l 1
 184 796 l 1
 184 578 l 1
 180 481 l 1
 230 523 290 557 351 557 c 0
 491 557 567 448 567 280 c 0
 567 94 455 -13 331 -13 c 0
 281 -13 224 13 177 56 c 1
 173 56 l 1
 165 0 l 1
 92 0 l 1
 92 398 l 1
184 334 m 1
 184 263 l 1
 184 120 l 1
 231 78 280 64 316 64 c 0
 406 64 472 145 472 279 c 0
 472 400 432 480 328 480 c 0
 283 480 235 454 184 406 c 1
 184 334 l 1
EndSplineSet
EndChar

StartChar: c
Encoding: 68 99 68
Width: 510
GlyphClass: 1
Flags: W
LayerCount: 2
Fore
SplineSet
125 62 m 0
 80 110 52 181 52 271 c 0
 52 362 82 433 130 482 c 0
 178 531 243 557 313 557 c 0
 384 557 433 527 471 493 c 1
 425 433 l 1
 394 461 359 480 317 480 c 0
 218 480 146 396 146 271 c 0
 146 146 214 63 314 63 c 0
 364 63 408 87 442 117 c 1
 482 55 l 1
 433 13 371 -13 306 -13 c 0
 234 -13 171 13 125 62 c 0
EndSplineSet
EndChar

StartChar: d
Encoding: 69 100 69
Width: 620
GlyphClass: 1
Flags: W
LayerCount: 2
Fore
SplineSet
528 398 m 1
 528 0 l 1
 453 0 l 1
 445 64 l 1
 442 64 l 1
 400 22 342 -13 277 -13 c 0
 141 -13 53 90 53 271 c 0
 53 447 164 557 288 557 c 0
 352 557 393 533 441 494 c 1
 436 587 l 1
 436 796 l 1
 482 796 l 1
 528 796 l 1
 528 398 l 1
436 351 m 1
 436 423 l 1
 391 464 349 480 304 480 c 0
 217 480 147 396 147 272 c 0
 147 141 202 64 297 64 c 0
 347 64 391 88 436 138 c 1
 436 280 l 1
 436 351 l 1
EndSplineSet
EndChar

StartChar: e
Encoding: 70 101 70
Width: 554
GlyphClass: 1
Flags: W
LayerCount: 2
Fore
SplineSet
416 250 m 1
 325 250 l 1
 142 250 l 1
 148 134 219 60 322 60 c 0
 375 60 417 76 458 103 c 1
 490 42 l 1
 443 11 385 -13 312 -13 c 0
 167 -13 52 92 52 271 c 0
 52 448 171 557 295 557 c 0
 434 557 512 457 512 302 c 0
 512 282 510 264 508 250 c 1
 416 250 l 1
359 315 m 1
 432 315 l 1
 432 425 382 484 297 484 c 0
 220 484 152 423 141 315 c 1
 286 315 l 1
 359 315 l 1
EndSplineSet
EndChar

StartChar: f
Encoding: 71 102 71
Width: 325
GlyphClass: 1
Flags: W
LayerCount: 2
Fore
SplineSet
107 234 m 1
 107 469 l 1
 33 469 l 1
 33 538 l 1
 107 543 l 1
 107 630 l 2
 107 740 157 809 265 809 c 0
 299 809 331 802 356 792 c 1
 336 721 l 1
 316 731 294 736 275 736 c 0
 223 736 198 699 198 629 c 2
 198 543 l 1
 256 543 l 2
 275 543 294 544 313 546 c 0
 317 543 317 469 313 467 c 0
 306 468 295 469 284 469 c 2
 255 469 l 1
 198 469 l 1
 198 0 l 1
 107 0 l 1
 107 234 l 1
EndSplineSet
EndChar

StartChar: g
Encoding: 72 103 72
Width: 564
GlyphClass: 1
Flags: W
LayerCount: 2
Fore
SplineSet
484 473 m 1
 429 473 l 1
 455 448 473 408 473 361 c 0
 473 245 386 172 274 172 c 0
 248 172 218 179 194 191 c 1
 174 174 159 156 159 126 c 0
 159 92 181 67 254 67 c 2
 361 67 l 2
 486 67 550 28 550 -62 c 0
 550 -163 443 -250 275 -250 c 0
 143 -250 51 -198 51 -105 c 0
 51 -58 80 -13 131 18 c 1
 131 23 l 1
 103 40 82 69 82 112 c 0
 82 157 113 193 142 213 c 1
 142 217 l 1
 106 245 71 298 71 363 c 0
 71 482 165 557 274 557 c 0
 305 557 332 551 351 543 c 1
 445 543 l 1
 493 543 l 2
 510 543 525 544 540 545 c 0
 544 543 544 473 540 471 c 0
 533 472 522 473 512 473 c 2
 484 473 l 1
356 269 m 0
 377 291 390 324 390 363 c 0
 390 443 339 490 274 490 c 0
 211 490 159 443 159 363 c 0
 159 324 172 291 193 269 c 0
 214 247 243 234 274 234 c 0
 306 234 335 247 356 269 c 0
413 -153 m 0
 443 -133 460 -105 460 -77 c 0
 460 -26 422 -8 350 -8 c 2
 303 -8 l 1
 256 -8 l 2
 236 -8 210 -6 186 0 c 1
 147 -28 131 -61 131 -92 c 0
 131 -150 189 -187 288 -187 c 0
 341 -187 384 -174 413 -153 c 0
EndSplineSet
EndChar

StartChar: h
Encoding: 73 104 73
Width: 607
GlyphClass: 1
Flags: W
LayerCount: 2
Fore
SplineSet
92 398 m 1
 92 796 l 1
 184 796 l 1
 184 578 l 1
 180 466 l 1
 230 516 286 557 360 557 c 0
 474 557 526 482 526 344 c 2
 526 0 l 1
 435 0 l 1
 435 332 l 2
 435 434 404 477 332 477 c 0
 276 477 238 449 184 394 c 1
 184 0 l 1
 138 0 l 1
 92 0 l 1
 92 398 l 1
EndSplineSet
EndChar

StartChar: i
Encoding: 74 105 74
Width: 275
GlyphClass: 1
Flags: W
LayerCount: 2
Fore
SplineSet
184 271 m 1
 184 0 l 1
 138 0 l 1
 92 0 l 1
 92 543 l 1
 184 543 l 1
 184 271 l 1
95 672 m 0
 84 682 78 698 78 716 c 0
 78 751 102 775 138 775 c 0
 174 775 199 751 199 716 c 0
 199 698 193 682 182 672 c 0
 171 661 156 655 138 655 c 0
 120 655 105 661 95 672 c 0
EndSplineSet
EndChar

StartChar: j
Encoding: 75 106 75
Width: 275
GlyphClass: 1
Flags: W
LayerCount: 2
Fore
SplineSet
93 240 m 1
 93 543 l 1
 138 543 l 1
 184 543 l 1
 184 -62 l 2
 184 -173 143 -242 35 -242 c 0
 3 -242 -25 -236 -44 -228 c 1
 -26 -159 l 1
 -12 -164 7 -169 26 -169 c 0
 80 -169 93 -128 93 -62 c 2
 93 240 l 1
94 672 m 0
 83 682 77 698 77 716 c 0
 77 751 102 775 138 775 c 0
 173 775 199 751 199 716 c 0
 199 698 193 682 182 672 c 0
 171 661 156 655 138 655 c 0
 120 655 105 661 94 672 c 0
EndSplineSet
EndChar

StartChar: k
Encoding: 76 107 76
Width: 552
GlyphClass: 1
Flags: W
LayerCount: 2
Fore
SplineSet
92 398 m 1
 92 796 l 1
 182 796 l 1
 182 257 l 1
 186 257 l 1
 416 543 l 1
 467 543 l 1
 518 543 l 1
 337 324 l 1
 542 0 l 1
 443 0 l 1
 284 262 l 1
 182 143 l 1
 182 0 l 1
 92 0 l 1
 92 398 l 1
EndSplineSet
EndChar

StartChar: l
Encoding: 77 108 77
Width: 284
GlyphClass: 1
Flags: W
LayerCount: 2
Fore
SplineSet
184 449 m 1
 184 102 l 2
 184 74 195 63 209 63 c 0
 214 63 218 63 228 65 c 1
 241 -5 l 1
 228 -9 213 -13 188 -13 c 0
 120 -13 92 31 92 108 c 2
 92 796 l 1
 138 796 l 1
 184 796 l 1
 184 449 l 1
EndSplineSet
EndChar

StartChar: m
Encoding: 78 109 78
Width: 926
GlyphClass: 1
Flags: W
LayerCount: 2
Fore
SplineSet
92 271 m 1
 92 543 l 1
 167 543 l 1
 176 464 l 1
 178 464 l 1
 226 516 282 557 347 557 c 0
 431 557 475 517 497 453 c 1
 554 514 610 557 677 557 c 0
 788 557 841 482 841 344 c 2
 841 0 l 1
 750 0 l 1
 750 332 l 2
 750 434 718 477 649 477 c 0
 607 477 563 450 512 394 c 1
 512 0 l 1
 421 0 l 1
 421 332 l 2
 421 434 389 477 320 477 c 0
 279 477 233 450 184 394 c 1
 184 0 l 1
 138 0 l 1
 92 0 l 1
 92 271 l 1
EndSplineSet
EndChar

StartChar: n
Encoding: 79 110 79
Width: 610
GlyphClass: 1
Flags: W
LayerCount: 2
Fore
SplineSet
92 271 m 1
 92 543 l 1
 167 543 l 1
 176 464 l 1
 178 464 l 1
 229 516 286 557 360 557 c 0
 474 557 526 482 526 344 c 2
 526 0 l 1
 435 0 l 1
 435 332 l 2
 435 434 404 477 332 477 c 0
 276 477 238 449 184 394 c 1
 184 0 l 1
 138 0 l 1
 92 0 l 1
 92 271 l 1
EndSplineSet
EndChar

StartChar: o
Encoding: 80 111 80
Width: 606
GlyphClass: 1
Flags: W
LayerCount: 2
Fore
SplineSet
128 482 m 0
 174 531 237 557 303 557 c 0
 370 557 432 531 478 482 c 0
 525 433 554 362 554 271 c 0
 554 91 436 -13 303 -13 c 0
 170 -13 52 91 52 271 c 0
 52 362 82 433 128 482 c 0
417 120 m 0
 445 157 461 209 461 271 c 0
 461 334 445 386 417 422 c 0
 390 459 350 480 303 480 c 0
 209 480 146 396 146 271 c 0
 146 146 209 63 303 63 c 0
 350 63 390 84 417 120 c 0
EndSplineSet
EndChar

StartChar: p
Encoding: 81 112 81
Width: 620
GlyphClass: 1
Flags: W
LayerCount: 2
Fore
SplineSet
92 157 m 1
 92 543 l 1
 167 543 l 1
 176 480 l 1
 178 480 l 1
 227 521 288 557 351 557 c 0
 491 557 567 448 567 280 c 0
 567 94 455 -13 331 -13 c 0
 282 -13 230 9 181 50 c 1
 184 -45 l 1
 184 -229 l 1
 138 -229 l 1
 92 -229 l 1
 92 157 l 1
184 334 m 1
 184 263 l 1
 184 120 l 1
 232 78 280 64 316 64 c 0
 406 64 472 145 472 279 c 0
 472 400 432 480 328 480 c 0
 283 480 236 454 184 406 c 1
 184 334 l 1
EndSplineSet
EndChar

StartChar: q
Encoding: 82 113 82
Width: 620
GlyphClass: 1
Flags: W
LayerCount: 2
Fore
SplineSet
528 157 m 1
 528 -229 l 1
 482 -229 l 1
 436 -229 l 1
 436 -36 l 1
 441 63 l 1
 397 20 340 -13 277 -13 c 0
 141 -13 53 90 53 271 c 0
 53 447 164 557 288 557 c 0
 352 557 396 534 444 492 c 1
 446 492 l 1
 455 543 l 1
 528 543 l 1
 528 157 l 1
436 351 m 1
 436 423 l 1
 391 464 349 480 304 480 c 0
 217 480 147 396 147 272 c 0
 147 141 202 64 297 64 c 0
 347 64 391 88 436 138 c 1
 436 280 l 1
 436 351 l 1
EndSplineSet
EndChar

StartChar: r
Encoding: 83 114 83
Width: 388
GlyphClass: 1
Flags: W
LayerCount: 2
Fore
SplineSet
92 271 m 1
 92 543 l 1
 167 543 l 1
 176 444 l 1
 178 444 l 1
 216 513 272 557 332 557 c 0
 356 557 373 554 390 545 c 1
 373 466 l 1
 355 472 343 475 320 475 c 0
 275 475 220 441 184 349 c 1
 184 0 l 1
 138 0 l 1
 92 0 l 1
 92 271 l 1
EndSplineSet
EndChar

StartChar: s
Encoding: 84 115 84
Width: 468
GlyphClass: 1
Flags: W
LayerCount: 2
Fore
SplineSet
111 512 m 0
 143 540 190 557 249 557 c 0
 316 557 376 529 417 495 c 1
 373 438 l 1
 336 465 298 486 250 486 c 0
 181 486 149 450 149 407 c 0
 149 356 205 336 266 313 c 0
 345 283 431 251 431 148 c 0
 431 104 414 64 381 35 c 0
 347 5 298 -13 234 -13 c 0
 157 -13 83 19 32 62 c 1
 76 123 l 1
 124 84 172 58 237 58 c 0
 309 58 344 96 344 143 c 0
 344 198 280 224 220 246 c 0
 144 274 62 310 62 403 c 0
 62 446 79 485 111 512 c 0
EndSplineSet
EndChar

StartChar: t
Encoding: 85 116 85
Width: 377
GlyphClass: 1
Flags: W
LayerCount: 2
Fore
SplineSet
199 317 m 1
 199 165 l 2
 199 99 220 61 283 61 c 0
 303 61 327 68 345 76 c 1
 363 7 l 1
 332 -3 296 -13 262 -13 c 0
 147 -13 108 59 108 168 c 2
 108 469 l 1
 27 469 l 1
 27 538 l 1
 113 543 l 1
 123 696 l 1
 199 696 l 1
 199 543 l 1
 273 543 l 2
 299 543 323 544 347 546 c 0
 351 543 351 469 347 467 c 0
 338 468 323 469 310 469 c 2
 273 469 l 1
 199 469 l 1
 199 317 l 1
EndSplineSet
EndChar

StartChar: u
Encoding: 86 117 86
Width: 607
GlyphClass: 1
Flags: W
LayerCount: 2
Fore
SplineSet
516 271 m 1
 516 0 l 1
 440 0 l 1
 433 85 l 1
 430 85 l 1
 379 26 325 -13 251 -13 c 0
 136 -13 84 60 84 199 c 2
 84 543 l 1
 130 543 l 1
 176 543 l 1
 176 210 l 2
 176 109 206 66 278 66 c 0
 334 66 373 94 425 158 c 1
 425 543 l 1
 516 543 l 1
 516 271 l 1
EndSplineSet
EndChar

StartChar: v
Encoding: 87 118 87
Width: 521
GlyphClass: 1
Flags: W
LayerCount: 2
Fore
SplineSet
111 271 m 1
 13 543 l 1
 108 543 l 1
 210 234 l 2
 227 181 244 126 260 74 c 1
 265 74 l 1
 281 126 299 181 315 234 c 2
 418 543 l 1
 508 543 l 1
 316 0 l 1
 262 0 l 1
 209 0 l 1
 111 271 l 1
EndSplineSet
EndChar

StartChar: w
Encoding: 88 119 88
Width: 802
GlyphClass: 1
Flags: W
LayerCount: 2
Fore
SplineSet
102 271 m 1
 27 543 l 1
 120 543 l 1
 201 229 l 2
 212 177 222 128 233 78 c 1
 238 78 l 1
 249 128 261 177 274 229 c 2
 359 543 l 1
 448 543 l 1
 533 229 l 2
 546 177 558 128 571 78 c 1
 576 78 l 1
 587 128 597 177 609 229 c 2
 688 543 l 1
 776 543 l 1
 629 0 l 1
 573 0 l 1
 518 0 l 1
 440 293 l 2
 426 344 416 394 403 449 c 1
 398 449 l 1
 386 394 375 343 361 291 c 2
 284 0 l 1
 178 0 l 1
 102 271 l 1
EndSplineSet
EndChar

StartChar: x
Encoding: 89 120 89
Width: 498
GlyphClass: 1
Flags: W
LayerCount: 2
Fore
SplineSet
104 141 m 1
 194 283 l 1
 29 543 l 1
 128 543 l 1
 201 424 l 2
 217 393 236 364 254 333 c 1
 259 333 l 1
 275 364 290 393 307 424 c 2
 374 543 l 1
 469 543 l 1
 304 274 l 1
 483 0 l 1
 433 0 l 1
 383 0 l 1
 303 127 l 2
 285 160 265 193 244 224 c 1
 239 224 l 1
 220 193 203 160 184 127 c 2
 111 0 l 1
 15 0 l 1
 104 141 l 1
EndSplineSet
EndChar

StartChar: y
Encoding: 90 121 90
Width: 521
GlyphClass: 1
Flags: W
LayerCount: 2
Fore
SplineSet
406 248 m 1
 304 -46 l 2
 266 -152 209 -234 101 -234 c 0
 76 -234 54 -230 37 -223 c 1
 55 -150 l 1
 66 -154 82 -159 97 -159 c 0
 158 -159 196 -109 219 -42 c 2
 231 -1 l 1
 13 543 l 1
 60 543 l 1
 108 543 l 1
 218 242 l 2
 235 194 253 139 272 88 c 1
 277 88 l 1
 291 138 307 193 321 242 c 2
 419 543 l 1
 508 543 l 1
 406 248 l 1
EndSplineSet
EndChar

StartChar: z
Encoding: 91 122 91
Width: 475
GlyphClass: 1
Flags: W
LayerCount: 2
Fore
SplineSet
293 284 m 1
 150 74 l 1
 298 74 l 2
 348 74 397 76 446 80 c 1
 450 74 450 0 446 -5 c 1
 421 -2 378 0 343 0 c 2
 240 0 l 1
 35 0 l 1
 35 49 l 1
 321 469 l 1
 193 469 l 2
 150 469 108 467 66 463 c 1
 62 469 62 543 66 551 c 1
 112 546 188 543 251 543 c 2
 437 543 l 1
 437 494 l 1
 293 284 l 1
EndSplineSet
EndChar

StartChar: braceleft
Encoding: 92 123 92
Width: 338
GlyphClass: 1
Flags: W
LayerCount: 2
Fore
SplineSet
129 89 m 0
 132 123 134 157 134 194 c 0
 134 239 114 282 38 282 c 1
 38 340 l 1
 114 341 134 384 134 426 c 0
 134 464 132 498 129 532 c 0
 127 567 124 602 124 642 c 0
 124 758 166 792 254 792 c 2
 279 792 l 2
 288 792 296 793 304 793 c 0
 308 792 308 739 304 738 c 0
 301 738 296 739 290 739 c 2
 275 739 l 2
 215 739 199 710 199 637 c 0
 199 569 205 511 205 434 c 0
 205 362 187 326 138 313 c 1
 138 308 l 1
 187 295 205 258 205 187 c 0
 205 111 199 52 199 -16 c 0
 199 -88 215 -118 275 -118 c 2
 290 -118 l 2
 296 -118 300 -117 304 -117 c 0
 308 -118 308 -170 304 -171 c 0
 298 -171 288 -170 279 -170 c 2
 254 -170 l 2
 166 -170 124 -137 124 -22 c 0
 124 19 127 54 129 89 c 0
EndSplineSet
EndChar

StartChar: bar
Encoding: 93 124 93
Width: 270
GlyphClass: 1
Flags: W
LayerCount: 2
Fore
SplineSet
103 279 m 1
 103 559 l 2
 103 652 100 769 95 838 c 1
 103 844 167 844 175 838 c 1
 170 769 167 652 167 559 c 2
 167 279 l 1
 167 0 l 2
 167 -93 170 -210 175 -279 c 1
 167 -285 103 -285 95 -279 c 1
 100 -210 103 -93 103 0 c 2
 103 279 l 1
EndSplineSet
EndChar

StartChar: braceright
Encoding: 94 125 94
Width: 338
GlyphClass: 1
Flags: W
LayerCount: 2
Fore
SplineSet
210 532 m 0
 208 498 205 464 205 426 c 0
 205 384 225 341 300 340 c 1
 300 282 l 1
 225 282 205 239 205 194 c 0
 205 157 208 123 210 89 c 0
 213 54 215 19 215 -22 c 0
 215 -137 172 -170 84 -170 c 2
 59 -170 l 2
 50 -170 42 -171 34 -171 c 0
 30 -170 30 -118 34 -117 c 0
 37 -117 42 -118 48 -118 c 2
 63 -118 l 2
 123 -118 139 -88 139 -16 c 0
 139 52 134 111 134 187 c 0
 134 258 151 295 200 308 c 1
 200 313 l 1
 151 326 134 362 134 434 c 0
 134 511 139 569 139 637 c 0
 139 710 123 739 63 739 c 2
 48 739 l 2
 42 739 38 738 34 738 c 0
 30 739 30 792 34 793 c 0
 40 793 50 792 59 792 c 2
 84 792 l 2
 172 792 215 758 215 642 c 0
 215 602 213 567 210 532 c 0
EndSplineSet
EndChar

StartChar: asciitilde
Encoding: 95 126 95
Width: 555
GlyphClass: 1
Flags: W
LayerCount: 2
Fore
SplineSet
288 404 m 0
 319 380 347 356 378 356 c 0
 410 356 438 376 464 424 c 1
 515 387 l 1
 474 317 424 287 376 287 c 0
 332 287 298 311 268 335 c 0
 237 358 209 382 177 382 c 0
 145 382 117 362 92 314 c 1
 41 350 l 1
 81 420 132 451 180 451 c 0
 224 451 258 427 288 404 c 0
EndSplineSet
EndChar

StartChar: uni3031
Encoding: 96 12337 96
Width: 1000
VWidth: 2000
Flags: W
LayerCount: 2
Fore
SplineSet
700 -533 m 1
 657 -549 l 1
 561 -296 390 4 257 237 c 0
 225 293 205 337 195 380 c 0
 176 456 193 522 244 623 c 0
 324 784 510 1112 604 1323 c 1
 646 1301 l 1
 689 1280 l 1
 582 1073 390 733 312 581 c 0
 270 498 259 446 281 380 c 0
 288 358 302 327 319 295 c 0
 453 62 644 -257 744 -517 c 1
 700 -533 l 1
EndSplineSet
Substitution2: "Vertical forms subtable" uni3031.vert
EndChar

StartChar: uni3031.vert
Encoding: 97 -1 97
Width: 1000
VWidth: 2000
Flags: W
LayerCount: 2
Fore
SplineSet
700 -1033 m 1
 657 -1049 l 1
 561 -796 390 -496 257 -263 c 0
 225 -207 205 -163 195 -120 c 0
 176 -44 193 22 244 123 c 0
 324 284 510 612 604 823 c 1
 646 801 l 1
 689 780 l 1
 582 573 390 233 312 81 c 0
 270 -2 259 -54 281 -120 c 0
 288 -142 302 -173 319 -205 c 0
 453 -438 644 -757 744 -1017 c 1
 700 -1033 l 1
EndSplineSet
EndChar

StartChar: uni3032
Encoding: 98 12338 98
Width: 1000
VWidth: 2000
Flags: W
LayerCount: 2
Fore
SplineSet
627 800 m 0
 611 828 594 856 582 874 c 1
 638 899 l 1
 651 882 668 854 685 826 c 0
 702 797 718 768 728 749 c 1
 669 723 l 1
 659 743 643 771 627 800 c 0
813 878 m 0
 830 851 847 823 857 803 c 1
 799 776 l 1
 789 797 773 825 756 853 c 0
 739 880 721 907 708 924 c 1
 765 950 l 1
 778 933 796 906 813 878 c 0
700 -533 m 1
 657 -549 l 1
 561 -296 390 4 257 237 c 0
 225 293 205 337 195 380 c 0
 176 456 193 522 244 623 c 0
 324 784 510 1112 604 1323 c 1
 646 1301 l 1
 689 1280 l 1
 582 1073 390 733 312 581 c 0
 270 498 259 446 281 380 c 0
 288 358 302 327 319 295 c 0
 453 62 644 -257 744 -517 c 1
 700 -533 l 1
EndSplineSet
Substitution2: "Vertical forms subtable" uni3032.vert
EndChar

StartChar: uni3032.vert
Encoding: 99 -1 99
Width: 1000
VWidth: 2000
Flags: W
LayerCount: 2
Fore
SplineSet
627 300 m 0
 611 328 594 356 582 374 c 1
 638 399 l 1
 651 382 668 354 685 326 c 0
 702 297 718 268 728 249 c 1
 669 223 l 1
 659 243 643 271 627 300 c 0
813 378 m 0
 830 351 847 323 857 303 c 1
 799 276 l 1
 789 297 773 325 756 353 c 0
 739 380 721 407 708 424 c 1
 765 450 l 1
 778 433 796 406 813 378 c 0
700 -1033 m 1
 657 -1049 l 1
 561 -796 390 -496 257 -263 c 0
 225 -207 205 -163 195 -120 c 0
 176 -44 193 22 244 123 c 0
 324 284 510 612 604 823 c 1
 646 801 l 1
 689 780 l 1
 582 573 390 233 312 81 c 0
 270 -2 259 -54 281 -120 c 0
 288 -142 302 -173 319 -205 c 0
 453 -438 644 -757 744 -1017 c 1
 700 -1033 l 1
EndSplineSet
EndChar

StartChar: uni3033
Encoding: 100 12339 100
Width: 1000
Flags: W
LayerCount: 2
Fore
SplineSet
646 801 m 1
 689 780 l 1
 582 573 390 233 312 81 c 0
 270 -2 259 -54 281 -120 c 1
 238 -120 l 1
 195 -120 l 1
 176 -44 193 22 244 123 c 0
 324 284 510 612 604 823 c 1
 646 801 l 1
EndSplineSet
EndChar

StartChar: uni3034
Encoding: 101 12340 101
Width: 1000
Flags: W
LayerCount: 2
Fore
SplineSet
646 801 m 1
 689 780 l 1
 582 573 390 233 312 81 c 0
 270 -2 259 -54 281 -120 c 1
 238 -120 l 1
 195 -120 l 1
 176 -44 193 22 244 123 c 0
 324 284 510 612 604 823 c 1
 646 801 l 1
627 300 m 0
 611 328 594 356 582 374 c 1
 638 399 l 1
 651 382 668 354 685 326 c 0
 702 297 718 268 728 249 c 1
 669 223 l 1
 659 243 643 271 627 300 c 0
813 378 m 0
 830 351 847 323 857 303 c 1
 799 276 l 1
 789 297 773 325 756 353 c 0
 739 380 721 407 708 424 c 1
 765 450 l 1
 778 433 796 406 813 378 c 0
EndSplineSet
EndChar

StartChar: uni3035
Encoding: 102 12341 102
Width: 1000
Flags: W
LayerCount: 2
Fore
SplineSet
700 -33 m 1
 657 -49 l 1
 561 204 390 504 257 737 c 0
 225 793 205 837 195 880 c 1
 238 880 l 1
 281 880 l 1
 288 858 302 827 319 795 c 0
 453 562 644 243 744 -17 c 1
 700 -33 l 1
EndSplineSet
EndChar

StartChar: uni3041
Encoding: 103 12353 103
Width: 1000
Flags: W
LayerCount: 2
Fore
SplineSet
458 238 m 0
 460 213 463 190 467 167 c 1
 492 191 515 218 536 251 c 0
 557 284 576 321 592 362 c 1
 583 362 l 2
 534 362 490 352 454 339 c 1
 454 316 l 2
 454 289 455 263 458 238 c 0
258 269 m 0
 294 314 342 352 394 376 c 1
 396 415 398 454 402 489 c 1
 359 488 l 2
 325 488 262 491 230 494 c 1
 228 559 l 1
 256 554 329 549 359 549 c 2
 409 550 l 1
 415 611 l 2
 416 625 417 641 417 650 c 1
 492 649 l 1
 488 639 485 625 483 611 c 2
 473 552 l 1
 567 556 661 567 744 585 c 1
 746 521 l 1
 667 507 561 497 465 491 c 1
 461 462 459 431 457 400 c 1
 500 412 545 419 585 419 c 2
 611 418 l 1
 615 430 620 458 622 470 c 1
 688 454 l 1
 673 408 l 1
 774 380 829 304 829 214 c 0
 829 161 811 108 770 64 c 0
 728 21 664 -14 570 -29 c 1
 533 30 l 1
 672 45 761 119 761 219 c 0
 761 281 724 333 653 353 c 1
 609 242 550 157 482 98 c 1
 500 34 l 1
 438 16 l 1
 426 57 l 1
 382 31 335 15 297 15 c 0
 242 15 200 45 200 116 c 0
 200 171 223 224 258 269 c 0
397 212 m 0
 394 244 392 277 392 309 c 2
 392 311 l 1
 357 290 324 261 300 228 c 0
 276 195 261 160 261 125 c 0
 261 95 281 79 308 79 c 0
 336 79 373 94 411 120 c 1
 405 149 400 180 397 212 c 0
EndSplineSet
Substitution2: "Vertical forms subtable" uni3041.vert
EndChar

StartChar: uni3041.vert
Encoding: 104 -1 104
Width: 1000
Flags: W
LayerCount: 2
Fore
SplineSet
577 321 m 0
 580 298 583 276 586 255 c 1
 610 278 631 303 649 332 c 0
 669 361 686 394 701 433 c 1
 695 433 l 2
 649 433 608 423 574 410 c 1
 574 392 l 2
 574 368 575 344 577 321 c 0
389 343 m 0
 422 386 467 423 517 447 c 1
 519 483 522 518 525 553 c 1
 486 552 l 2
 453 552 396 554 366 557 c 1
 364 620 l 1
 389 615 451 610 486 610 c 2
 531 610 l 1
 537 664 l 2
 538 677 539 692 539 702 c 1
 609 700 l 1
 606 690 602 675 601 663 c 2
 592 613 l 1
 679 617 761 628 843 645 c 1
 844 582 l 1
 768 569 673 560 585 555 c 1
 582 528 579 500 577 470 c 1
 618 483 659 488 696 488 c 2
 719 488 l 1
 723 499 727 524 728 536 c 1
 792 519 l 1
 779 477 l 1
 872 450 923 377 923 298 c 0
 923 250 909 200 871 158 c 0
 834 116 774 83 683 69 c 1
 648 127 l 1
 783 140 858 211 858 303 c 0
 858 353 823 403 759 423 c 1
 719 320 665 243 602 187 c 1
 618 127 l 1
 557 108 l 1
 546 146 l 1
 507 122 464 108 427 108 c 0
 377 108 336 139 336 204 c 0
 336 252 356 300 389 343 c 0
520 292 m 0
 517 321 515 352 515 382 c 1
 482 362 453 334 432 304 c 0
 412 274 398 243 398 216 c 0
 398 185 413 172 438 172 c 0
 463 172 496 183 532 208 c 1
 528 235 523 263 520 292 c 0
EndSplineSet
Comment: "."
EndChar

StartChar: uni3042
Encoding: 105 12354 105
Width: 1000
Flags: W
LayerCount: 2
Fore
SplineSet
435 277 m 0
 438 248 442 220 447 192 c 1
 478 222 508 257 536 297 c 0
 562 338 586 384 606 437 c 1
 590 437 l 2
 529 437 475 423 431 407 c 1
 430 367 l 2
 430 337 432 307 435 277 c 0
201 317 m 0
 244 371 303 418 367 449 c 1
 369 497 374 545 378 590 c 1
 320 589 l 2
 280 589 207 593 168 596 c 1
 166 668 l 1
 199 662 281 655 321 655 c 2
 385 656 l 1
 393 730 l 2
 394 747 396 765 395 776 c 1
 434 775 480 768 479 764 c 0
 477 758 470 763 467 754 c 0
 465 746 464 738 462 731 c 2
 451 658 l 1
 571 664 685 676 781 699 c 1
 782 628 l 1
 683 611 558 598 443 592 c 1
 439 554 436 514 433 474 c 1
 486 489 543 498 591 498 c 2
 626 497 l 1
 629 506 l 2
 633 521 638 546 639 562 c 1
 676 552 723 535 721 530 c 0
 719 523 709 530 704 517 c 0
 700 507 697 496 695 488 c 2
 694 484 l 1
 811 453 881 364 881 259 c 0
 881 190 858 125 809 74 c 0
 759 23 682 -17 573 -34 c 1
 533 30 l 1
 703 49 808 138 808 263 c 0
 808 336 760 401 673 427 c 1
 619 290 543 184 463 115 c 1
 471 87 478 61 486 37 c 1
 418 16 l 1
 403 70 l 1
 351 38 295 17 243 17 c 0
 181 17 132 56 132 138 c 0
 132 200 159 262 201 317 c 0
371 250 m 0
 367 287 365 324 365 360 c 2
 365 377 l 1
 320 351 279 314 250 273 c 0
 222 233 204 190 204 150 c 0
 204 111 222 91 257 91 c 0
 294 91 339 107 387 142 c 1
 381 176 375 213 371 250 c 0
EndSplineSet
AlternateSubs2: "Historical Kana subtable" u1B002 u1B003 u1B004 u1B005
EndChar

StartChar: uni3042_uni3099.ccmp
Encoding: 106 -1 106
Width: 1000
Flags: W
LayerCount: 2
Fore
SplineSet
818 722 m 0
 832 698 846 672 856 650 c 1
 807 627 l 1
 797 651 785 675 772 698 c 0
 759 722 745 744 731 763 c 1
 778 784 l 1
 790 768 804 746 818 722 c 0
918 761 m 0
 933 738 947 713 958 692 c 1
 910 668 l 1
 899 691 886 714 873 736 c 0
 860 759 846 781 831 800 c 1
 877 822 l 1
 889 807 903 785 918 761 c 0
435 277 m 0
 438 248 442 220 447 192 c 1
 478 222 508 257 536 297 c 0
 562 338 586 384 606 437 c 1
 590 437 l 2
 529 437 475 423 431 407 c 1
 430 367 l 2
 430 337 432 307 435 277 c 0
201 317 m 0
 244 371 303 418 367 449 c 1
 369 497 374 545 378 590 c 1
 320 589 l 2
 280 589 207 593 168 596 c 1
 166 668 l 1
 199 662 281 655 321 655 c 2
 385 656 l 1
 393 730 l 2
 394 747 396 765 395 776 c 1
 434 775 480 768 479 764 c 0
 477 758 470 763 467 754 c 0
 465 746 464 738 462 731 c 2
 451 658 l 1
 561 663 659 674 745 692 c 1
 747 622 l 1
 653 607 547 597 443 592 c 1
 439 554 436 514 433 474 c 1
 486 489 543 498 591 498 c 2
 626 497 l 1
 629 506 l 2
 633 521 638 546 639 562 c 1
 676 552 723 535 721 530 c 0
 719 523 709 530 704 517 c 0
 700 507 697 496 695 488 c 2
 694 484 l 1
 811 453 881 364 881 259 c 0
 881 190 858 125 809 74 c 0
 759 23 682 -17 573 -34 c 1
 533 30 l 1
 703 49 808 138 808 263 c 0
 808 336 760 401 673 427 c 1
 619 290 543 184 463 115 c 1
 471 87 478 61 486 37 c 1
 418 16 l 1
 403 70 l 1
 351 38 295 17 243 17 c 0
 181 17 132 56 132 138 c 0
 132 200 159 262 201 317 c 0
371 250 m 0
 367 287 365 324 365 360 c 2
 365 377 l 1
 320 351 279 314 250 273 c 0
 222 233 204 190 204 150 c 0
 204 111 222 91 257 91 c 0
 294 91 339 107 387 142 c 1
 381 176 375 213 371 250 c 0
EndSplineSet
Ligature2: "Dakuten and handakuten subtable" uni3042 uni3099
EndChar

StartChar: uni3042_uni309A.ccmp
Encoding: 107 -1 107
Width: 1000
Flags: W
LayerCount: 2
Fore
SplineSet
896 772 m 0
 885 783 870 790 853 790 c 0
 836 790 821 783 811 772 c 0
 800 760 793 745 793 728 c 0
 793 694 819 667 853 667 c 0
 887 667 913 694 913 728 c 0
 913 745 907 761 896 772 c 0
927 653 m 0
 908 634 882 622 853 622 c 0
 825 622 799 634 780 654 c 0
 761 673 750 699 750 728 c 0
 750 786 796 834 853 834 c 0
 911 834 957 786 957 728 c 0
 957 699 946 673 927 653 c 0
435 277 m 0
 438 248 442 220 447 192 c 1
 478 222 508 257 536 297 c 0
 562 338 586 384 606 437 c 1
 590 437 l 2
 529 437 475 423 431 407 c 1
 430 367 l 2
 430 337 432 307 435 277 c 0
201 317 m 0
 244 371 303 418 367 449 c 1
 369 497 374 545 378 590 c 1
 320 589 l 2
 280 589 207 593 168 596 c 1
 166 668 l 1
 199 662 281 655 321 655 c 2
 385 656 l 1
 393 730 l 2
 394 747 396 765 395 776 c 1
 434 775 480 768 479 764 c 0
 477 758 470 763 467 754 c 0
 465 746 464 738 462 731 c 2
 451 658 l 1
 561 663 659 674 745 692 c 1
 747 622 l 1
 653 607 547 597 443 592 c 1
 439 554 436 514 433 474 c 1
 486 489 543 498 591 498 c 2
 626 497 l 1
 629 506 l 2
 633 521 638 546 639 562 c 1
 676 552 723 535 721 530 c 0
 719 523 709 530 704 517 c 0
 700 507 697 496 695 488 c 2
 694 484 l 1
 811 453 881 364 881 259 c 0
 881 190 858 125 809 74 c 0
 759 23 682 -17 573 -34 c 1
 533 30 l 1
 703 49 808 138 808 263 c 0
 808 336 760 401 673 427 c 1
 619 290 543 184 463 115 c 1
 471 87 478 61 486 37 c 1
 418 16 l 1
 403 70 l 1
 351 38 295 17 243 17 c 0
 181 17 132 56 132 138 c 0
 132 200 159 262 201 317 c 0
371 250 m 0
 367 287 365 324 365 360 c 2
 365 377 l 1
 320 351 279 314 250 273 c 0
 222 233 204 190 204 150 c 0
 204 111 222 91 257 91 c 0
 294 91 339 107 387 142 c 1
 381 176 375 213 371 250 c 0
EndSplineSet
LCarets2: 1 0
Ligature2: "Dakuten and handakuten subtable" uni3042 uni309A
EndChar

StartChar: uni3043
Encoding: 108 12355 108
Width: 1000
Flags: W
LayerCount: 2
Fore
SplineSet
286 45 m 0
 256 85 231 150 219 247 c 0
 210 314 208 445 208 487 c 0
 208 505 206 551 203 563 c 1
 284 562 l 1
 282 550 277 499 277 482 c 0
 277 437 279 322 288 260 c 0
 303 147 340 72 386 72 c 0
 426 72 462 160 482 239 c 1
 510 208 l 1
 539 177 l 1
 492 45 447 -11 386 -11 c 0
 352 -11 316 5 286 45 c 0
788 339 m 0
 812 265 827 190 832 136 c 1
 759 106 l 1
 755 163 742 240 719 315 c 0
 696 390 664 464 621 514 c 1
 690 538 l 1
 731 488 764 414 788 339 c 0
EndSplineSet
Substitution2: "Vertical forms subtable" uni3043.vert
EndChar

StartChar: uni3043.vert
Encoding: 109 -1 109
Width: 1000
Flags: W
LayerCount: 2
Fore
SplineSet
417 151 m 0
 389 188 366 249 352 344 c 0
 344 410 342 522 342 562 c 0
 342 581 340 624 337 635 c 1
 418 634 l 1
 416 623 412 577 412 556 c 0
 412 513 413 423 421 362 c 0
 436 252 467 185 509 185 c 0
 543 185 577 262 597 339 c 1
 625 308 l 1
 653 278 l 1
 610 151 563 101 509 101 c 0
 477 101 445 114 417 151 c 0
883 435 m 0
 906 366 922 293 927 235 c 1
 855 206 l 1
 850 274 836 348 814 416 c 0
 792 485 763 547 727 591 c 1
 794 615 l 1
 830 571 860 505 883 435 c 0
EndSplineSet
Comment: "."
EndChar

StartChar: uni3044
Encoding: 110 12356 110
Width: 1000
Flags: W
LayerCount: 2
Fore
SplineSet
512 258 m 1
 542 224 l 1
 486 61 429 5 366 5 c 0
 276 5 191 96 165 344 c 0
 156 428 155 545 155 601 c 0
 155 623 154 663 148 686 c 1
 194 685 l 1
 240 684 l 1
 236 661 232 616 232 591 c 0
 231 530 232 443 239 363 c 0
 254 203 300 97 367 97 c 0
 414 97 459 196 483 292 c 1
 512 258 l 1
765 413 m 0
 738 498 701 575 656 631 c 1
 729 657 l 1
 813 546 881 342 895 180 c 1
 857 164 l 1
 820 148 l 1
 812 235 793 328 765 413 c 0
EndSplineSet
AlternateSubs2: "Historical Kana subtable" u1B006 u1B007 u1B008 u1B009
EndChar

StartChar: uni3044_uni3099.ccmp
Encoding: 111 -1 111
Width: 1000
Flags: W
LayerCount: 2
Fore
SplineSet
512 258 m 1
 542 224 l 1
 486 61 429 5 366 5 c 0
 276 5 191 96 165 344 c 0
 156 428 155 545 155 601 c 0
 155 623 154 663 148 686 c 1
 194 685 l 1
 240 684 l 1
 236 661 232 616 232 591 c 0
 231 530 232 443 239 363 c 0
 254 203 300 97 367 97 c 0
 414 97 459 196 483 292 c 1
 512 258 l 1
765 414 m 0
 738 499 701 575 656 631 c 1
 729 657 l 1
 813 546 881 345 895 183 c 1
 857 168 l 1
 820 152 l 1
 812 239 793 330 765 414 c 0
818 722 m 0
 832 698 846 672 856 650 c 1
 807 627 l 1
 797 651 785 675 772 698 c 0
 759 722 745 744 731 763 c 1
 778 784 l 1
 790 768 804 746 818 722 c 0
918 761 m 0
 933 738 947 713 958 692 c 1
 910 668 l 1
 899 691 886 714 873 736 c 0
 860 759 846 781 831 800 c 1
 877 822 l 1
 889 807 903 785 918 761 c 0
EndSplineSet
Ligature2: "Dakuten and handakuten subtable" uni3044 uni3099
EndChar

StartChar: uni3044_uni309A.ccmp
Encoding: 112 -1 112
Width: 1000
Flags: W
LayerCount: 2
Fore
SplineSet
897 766 m 0
 886 777 871 784 854 784 c 0
 837 784 822 777 812 766 c 0
 801 754 794 739 794 722 c 0
 794 688 820 661 854 661 c 0
 888 661 914 688 914 722 c 0
 914 739 908 755 897 766 c 0
928 647 m 0
 909 628 883 616 854 616 c 0
 826 616 800 628 781 648 c 0
 762 667 751 693 751 722 c 0
 751 780 797 828 854 828 c 0
 912 828 958 780 958 722 c 0
 958 693 947 667 928 647 c 0
512 258 m 1
 542 224 l 1
 486 61 429 5 366 5 c 0
 276 5 191 96 165 344 c 0
 156 428 155 545 155 601 c 0
 155 623 154 663 148 686 c 1
 194 685 l 1
 240 684 l 1
 236 661 232 616 232 591 c 0
 231 530 232 443 239 363 c 0
 254 203 300 97 367 97 c 0
 414 97 459 196 483 292 c 1
 512 258 l 1
765 414 m 0
 738 499 701 575 656 631 c 1
 729 657 l 1
 813 546 881 345 895 183 c 1
 857 168 l 1
 820 152 l 1
 812 239 793 330 765 414 c 0
EndSplineSet
LCarets2: 1 0
Ligature2: "Dakuten and handakuten subtable" uni3044 uni309A
EndChar

StartChar: uni3045
Encoding: 113 12357 113
Width: 1000
Flags: W
LayerCount: 2
Fore
SplineSet
664 60 m 0
 602 9 512 -27 400 -45 c 1
 364 23 l 1
 553 48 686 122 686 261 c 0
 686 337 627 375 555 375 c 0
 476 375 389 349 339 334 c 0
 317 327 291 317 276 311 c 1
 265 350 l 1
 255 390 l 1
 276 392 303 396 322 401 c 0
 377 412 478 440 561 440 c 0
 679 440 760 377 760 260 c 0
 760 179 726 112 664 60 c 0
529 601 m 0
 592 594 654 589 697 588 c 1
 687 521 l 1
 649 523 585 529 520 536 c 0
 456 543 391 553 350 560 c 1
 360 626 l 1
 404 617 467 608 529 601 c 0
EndSplineSet
Substitution2: "Vertical forms subtable" uni3045.vert
EndChar

StartChar: uni3045.vert
Encoding: 114 -1 114
Width: 1000
Flags: W
LayerCount: 2
Fore
SplineSet
698 204 m 0
 751 240 782 291 782 356 c 0
 782 422 727 459 659 459 c 0
 581 459 501 434 458 420 c 0
 436 413 415 405 401 398 c 1
 380 476 l 1
 400 478 426 482 446 487 c 0
 500 498 586 523 665 523 c 0
 783 523 853 453 853 353 c 0
 853 280 823 218 766 169 c 0
 710 120 626 85 518 68 c 1
 480 133 l 1
 570 144 645 167 698 204 c 0
638 672 m 0
 695 666 753 661 794 660 c 1
 784 594 l 1
 746 596 688 602 628 608 c 0
 569 615 508 624 467 632 c 1
 478 696 l 1
 522 688 580 679 638 672 c 0
EndSplineSet
Comment: "."
EndChar

StartChar: uni3046
Encoding: 115 12358 115
Width: 1000
Flags: W
LayerCount: 2
Fore
SplineSet
665 85 m 0
 588 25 482 -14 360 -32 c 1
 318 41 l 1
 546 70 707 162 707 334 c 0
 707 414 643 472 546 472 c 0
 437 472 345 440 289 424 c 0
 260 414 233 404 210 394 c 1
 198 438 l 1
 186 483 l 1
 212 485 244 491 273 498 c 0
 338 513 445 544 554 544 c 0
 687 544 787 468 787 331 c 0
 787 227 741 145 665 85 c 0
516 735 m 0
 591 727 666 722 712 722 c 1
 700 648 l 1
 649 651 574 657 501 666 c 0
 427 674 353 683 300 693 c 1
 312 766 l 1
 364 754 440 743 516 735 c 0
EndSplineSet
AlternateSubs2: "Historical Kana subtable" u1B00A u1B00B u1B00C u1B00D u1B00E
EndChar

StartChar: uni3094
Encoding: 116 12436 116
Width: 1000
Flags: W
LayerCount: 2
Fore
SplineSet
638 87 m 0
 562 27 456 -12 334 -30 c 1
 290 42 l 1
 519 72 680 164 680 335 c 0
 680 416 616 474 519 474 c 0
 410 474 318 441 263 425 c 0
 233 416 206 406 183 396 c 1
 171 440 l 1
 160 484 l 1
 185 487 217 493 245 499 c 0
 312 515 418 546 526 546 c 0
 661 546 759 470 759 332 c 0
 759 228 714 147 638 87 c 0
489 737 m 0
 565 729 639 724 684 723 c 1
 673 650 l 1
 621 653 548 659 474 668 c 0
 400 675 326 685 273 695 c 1
 285 768 l 1
 337 756 414 745 489 737 c 0
786 612 m 0
 800 588 814 564 823 545 c 1
 773 521 l 1
 763 541 750 565 737 589 c 0
 723 613 709 636 696 654 c 1
 745 676 l 1
 758 659 772 636 786 612 c 0
892 650 m 0
 907 626 920 602 929 584 c 1
 878 560 l 1
 868 581 855 605 841 629 c 0
 828 652 813 675 800 693 c 1
 850 715 l 1
 863 697 878 673 892 650 c 0
EndSplineSet
EndChar

StartChar: uni3046_uni309A.ccmp
Encoding: 117 -1 117
Width: 1000
Flags: W
LayerCount: 2
Fore
SplineSet
857 661 m 0
 846 672 831 679 814 679 c 0
 797 679 782 672 772 661 c 0
 761 649 754 634 754 617 c 0
 754 583 780 556 814 556 c 0
 848 556 874 583 874 617 c 0
 874 634 868 650 857 661 c 0
888 542 m 0
 869 523 843 511 814 511 c 0
 786 511 760 523 741 543 c 0
 722 562 711 588 711 617 c 0
 711 675 757 723 814 723 c 0
 872 723 918 675 918 617 c 0
 918 588 907 562 888 542 c 0
638 87 m 0
 562 27 456 -12 334 -30 c 1
 290 42 l 1
 519 72 680 164 680 335 c 0
 680 416 616 474 519 474 c 0
 410 474 318 441 263 425 c 0
 233 416 206 406 183 396 c 1
 171 440 l 1
 160 484 l 1
 185 487 217 493 245 499 c 0
 312 515 418 546 526 546 c 0
 661 546 759 470 759 332 c 0
 759 228 714 147 638 87 c 0
489 737 m 0
 565 729 639 724 684 723 c 1
 673 650 l 1
 621 653 548 659 474 668 c 0
 400 675 326 685 273 695 c 1
 285 768 l 1
 337 756 414 745 489 737 c 0
EndSplineSet
LCarets2: 1 0
Ligature2: "Dakuten and handakuten subtable" uni3046 uni309A
EndChar

StartChar: uni3047
Encoding: 118 12359 118
Width: 1000
Flags: W
LayerCount: 2
Fore
SplineSet
521 597 m 0
 582 590 641 584 673 582 c 1
 664 516 l 1
 629 519 571 526 510 534 c 0
 450 542 389 553 349 560 c 1
 360 626 l 1
 399 615 461 605 521 597 c 0
463 421 m 0
 523 425 584 430 613 434 c 0
 625 435 639 439 648 442 c 1
 668 419 689 386 686 384 c 0
 681 380 679 389 669 382 c 0
 663 377 657 372 652 368 c 0
 628 348 535 258 503 224 c 1
 510 224 521 223 529 219 c 0
 563 217 581 190 589 157 c 0
 596 133 607 95 615 74 c 0
 624 47 646 36 680 36 c 0
 725 36 789 45 823 53 c 1
 820 -20 l 1
 790 -25 717 -32 670 -32 c 0
 603 -32 570 -11 555 36 c 0
 547 59 537 104 530 122 c 0
 522 151 510 170 482 170 c 0
 463 170 444 157 426 140 c 0
 398 113 316 21 272 -35 c 1
 206 12 l 1
 217 21 226 28 240 43 c 0
 276 79 336 139 397 200 c 0
 458 261 519 323 557 364 c 1
 512 361 375 350 329 346 c 0
 304 343 281 340 265 337 c 1
 258 414 l 1
 275 413 302 412 325 413 c 0
 347 414 404 417 463 421 c 0
EndSplineSet
Substitution2: "Vertical forms subtable" uni3047.vert
EndChar

StartChar: uni3047.vert
Encoding: 119 -1 119
Width: 1000
Flags: W
LayerCount: 2
Fore
SplineSet
627 671 m 0
 684 664 739 659 770 656 c 1
 760 592 l 1
 727 595 672 602 616 608 c 0
 560 616 503 626 463 633 c 1
 474 697 l 1
 512 687 571 678 627 671 c 0
570 503 m 0
 624 507 679 511 707 515 c 0
 719 516 733 520 741 523 c 1
 781 478 l 1
 770 468 755 457 746 450 c 0
 723 431 641 350 610 317 c 1
 617 317 625 317 633 314 c 0
 665 310 681 285 690 253 c 0
 697 231 707 196 713 176 c 0
 723 149 743 140 775 140 c 0
 820 140 880 148 914 157 c 1
 910 83 l 1
 881 79 812 73 766 73 c 0
 701 73 668 92 654 138 c 0
 647 160 638 200 633 218 c 0
 624 245 613 262 585 262 c 0
 568 262 552 248 535 232 c 0
 508 205 432 124 390 69 c 1
 324 115 l 1
 335 122 344 131 357 145 c 0
 373 160 432 219 494 282 c 0
 557 345 624 414 656 448 c 1
 612 444 492 434 447 430 c 0
 422 427 398 425 383 421 c 1
 376 497 l 1
 393 496 421 495 444 496 c 0
 465 497 517 500 570 503 c 0
EndSplineSet
Comment: "."
EndChar

StartChar: uni3048
Encoding: 120 12360 120
Width: 1000
Flags: W
LayerCount: 2
Fore
SplineSet
514 739 m 0
 583 730 650 724 695 721 c 1
 684 650 l 1
 637 654 572 662 506 671 c 0
 438 680 368 691 311 701 c 1
 323 771 l 1
 375 760 445 748 514 739 c 0
358 245 m 0
 439 327 526 416 572 463 c 1
 498 458 340 445 283 440 c 0
 252 437 227 434 207 431 c 1
 200 515 l 1
 222 513 250 512 280 513 c 0
 334 514 553 530 623 538 c 0
 639 540 660 545 668 549 c 1
 690 523 717 484 712 480 c 0
 705 474 699 486 686 475 c 0
 676 467 668 459 662 454 c 0
 626 420 520 319 485 283 c 1
 494 284 511 283 522 281 c 0
 558 277 580 251 593 212 c 0
 602 184 615 136 624 104 c 0
 635 68 658 52 706 52 c 0
 768 52 839 60 884 72 c 1
 879 -9 l 1
 839 -16 753 -23 702 -23 c 0
 627 -23 580 -5 560 58 c 0
 551 87 537 144 528 171 c 0
 517 205 496 222 471 222 c 0
 445 222 423 209 401 188 c 0
 366 153 263 43 210 -26 c 1
 175 -1 l 1
 139 25 l 1
 150 35 167 50 186 68 c 0
 205 88 278 163 358 245 c 0
EndSplineSet
AlternateSubs2: "Historical Kana subtable" u1B001 u1B00F u1B010 u1B011 u1B012 u1B013
EndChar

StartChar: uni3048_uni3099.ccmp
Encoding: 121 -1 121
Width: 1000
Flags: W
LayerCount: 2
Fore
SplineSet
512 739 m 0
 581 730 647 724 692 721 c 1
 681 650 l 1
 634 654 571 662 504 671 c 0
 438 680 368 691 311 701 c 1
 323 771 l 1
 375 760 444 748 512 739 c 0
358 245 m 0
 439 327 526 416 572 463 c 1
 498 458 340 445 283 440 c 0
 252 437 227 434 207 431 c 1
 200 515 l 1
 222 513 250 512 280 513 c 0
 334 514 553 530 623 538 c 0
 639 540 660 545 668 549 c 1
 690 523 717 484 712 480 c 0
 705 474 699 486 686 475 c 0
 676 467 668 459 662 454 c 0
 626 420 520 319 485 283 c 1
 494 284 511 283 522 281 c 0
 558 277 580 251 593 212 c 0
 602 184 615 136 624 104 c 0
 635 68 658 52 706 52 c 0
 768 52 839 60 884 72 c 1
 879 -9 l 1
 839 -16 753 -23 702 -23 c 0
 627 -23 580 -5 560 58 c 0
 551 87 537 144 528 171 c 0
 517 205 496 222 471 222 c 0
 445 222 423 209 401 188 c 0
 366 153 263 43 210 -26 c 1
 175 -1 l 1
 139 25 l 1
 150 35 167 50 186 68 c 0
 205 88 278 163 358 245 c 0
807 722 m 0
 821 698 834 672 844 650 c 1
 796 627 l 1
 786 651 774 675 760 698 c 0
 748 722 734 744 720 763 c 1
 767 784 l 1
 779 768 793 746 807 722 c 0
907 761 m 0
 922 738 936 713 947 692 c 1
 899 668 l 1
 887 691 875 714 862 736 c 0
 849 759 835 781 820 800 c 1
 866 822 l 1
 878 807 892 785 907 761 c 0
EndSplineSet
Ligature2: "Dakuten and handakuten subtable" uni3048 uni3099
EndChar

StartChar: uni3048_uni309A.ccmp
Encoding: 122 -1 122
Width: 1000
Flags: W
LayerCount: 2
Fore
SplineSet
883 764 m 0
 872 775 857 782 840 782 c 0
 823 782 808 775 798 764 c 0
 787 752 780 737 780 720 c 0
 780 686 806 659 840 659 c 0
 874 659 900 686 900 720 c 0
 900 737 894 753 883 764 c 0
914 645 m 0
 895 626 869 614 840 614 c 0
 812 614 786 626 767 646 c 0
 748 665 737 691 737 720 c 0
 737 778 783 826 840 826 c 0
 898 826 944 778 944 720 c 0
 944 691 933 665 914 645 c 0
512 739 m 0
 581 730 647 724 692 721 c 1
 681 650 l 1
 634 654 571 662 504 671 c 0
 438 680 368 691 311 701 c 1
 323 771 l 1
 375 760 444 748 512 739 c 0
358 245 m 0
 439 327 526 416 572 463 c 1
 498 458 340 445 283 440 c 0
 252 437 227 434 207 431 c 1
 200 515 l 1
 222 513 250 512 280 513 c 0
 334 514 553 530 623 538 c 0
 639 540 660 545 668 549 c 1
 690 523 717 484 712 480 c 0
 705 474 699 486 686 475 c 0
 676 467 668 459 662 454 c 0
 626 420 520 319 485 283 c 1
 494 284 511 283 522 281 c 0
 558 277 580 251 593 212 c 0
 602 184 615 136 624 104 c 0
 635 68 658 52 706 52 c 0
 768 52 839 60 884 72 c 1
 879 -9 l 1
 839 -16 753 -23 702 -23 c 0
 627 -23 580 -5 560 58 c 0
 551 87 537 144 528 171 c 0
 517 205 496 222 471 222 c 0
 445 222 423 209 401 188 c 0
 366 153 263 43 210 -26 c 1
 175 -1 l 1
 139 25 l 1
 150 35 167 50 186 68 c 0
 205 88 278 163 358 245 c 0
EndSplineSet
LCarets2: 1 0
Ligature2: "Dakuten and handakuten subtable" uni3048 uni309A
EndChar

StartChar: uni3049
Encoding: 123 12361 123
Width: 1000
Flags: W
LayerCount: 2
Fore
SplineSet
741 436 m 0
 708 458 673 480 649 492 c 1
 681 548 l 1
 709 534 744 512 778 490 c 0
 812 468 844 446 863 430 c 1
 824 371 l 1
 807 389 775 413 741 436 c 0
289 158 m 0
 270 139 257 118 257 98 c 0
 257 66 311 33 338 33 c 0
 358 33 367 47 367 70 c 2
 365 139 l 1
 363 209 l 1
 335 195 309 177 289 158 c 0
427 362 m 1
 427 304 l 1
 427 299 l 1
 481 315 538 326 593 326 c 0
 711 326 797 264 797 163 c 0
 797 71 739 -1 613 -26 c 0
 581 -33 547 -34 526 -35 c 1
 504 34 l 1
 532 34 565 34 595 40 c 0
 667 52 727 95 727 163 c 0
 727 232 666 266 592 266 c 0
 526 266 476 254 428 237 c 1
 430 146 l 1
 431 57 l 2
 431 -13 404 -39 358 -39 c 0
 296 -39 190 22 190 93 c 0
 190 170 282 240 362 275 c 1
 362 301 l 1
 363 414 l 1
 342 412 322 411 303 411 c 0
 272 411 249 413 204 417 c 1
 203 488 l 1
 249 482 282 481 303 481 c 2
 365 482 l 1
 366 559 l 2
 366 575 364 602 362 614 c 1
 437 614 l 1
 435 602 433 574 432 559 c 2
 430 488 l 1
 487 495 544 506 589 519 c 1
 591 451 l 1
 559 444 496 431 428 421 c 1
 427 362 l 1
EndSplineSet
Substitution2: "Vertical forms subtable" uni3049.vert
EndChar

StartChar: uni3049.vert
Encoding: 124 -1 124
Width: 1000
Flags: W
LayerCount: 2
Fore
SplineSet
833 520 m 0
 803 541 771 561 748 573 c 1
 780 627 l 1
 806 614 839 594 870 574 c 0
 901 555 931 534 948 518 c 1
 912 461 l 1
 894 478 864 500 833 520 c 0
419 266 m 0
 401 249 389 231 389 214 c 0
 389 182 437 152 463 152 c 0
 482 152 489 167 489 187 c 2
 488 249 l 1
 487 313 l 1
 461 300 437 283 419 266 c 0
549 461 m 1
 549 411 l 1
 549 401 l 1
 601 416 654 426 703 426 c 0
 811 426 890 362 890 273 c 0
 890 185 841 118 722 95 c 0
 691 88 658 86 639 85 c 1
 616 155 l 1
 643 154 675 154 703 160 c 0
 771 174 821 206 821 273 c 0
 821 332 765 366 701 366 c 0
 643 366 595 355 550 339 c 1
 551 256 l 1
 553 174 l 2
 553 106 525 81 481 81 c 0
 421 81 325 142 325 208 c 0
 325 277 410 344 486 378 c 1
 486 408 l 1
 487 505 l 1
 468 504 449 503 432 503 c 0
 403 503 383 504 341 508 c 1
 340 578 l 1
 383 571 413 570 432 570 c 2
 487 572 l 1
 488 652 l 2
 488 667 486 694 484 705 c 1
 559 705 l 1
 557 693 555 665 554 652 c 2
 552 578 l 1
 602 584 653 594 696 608 c 1
 697 538 l 1
 667 532 611 520 550 512 c 1
 549 461 l 1
EndSplineSet
Comment: "."
EndChar

StartChar: uni304A
Encoding: 125 12362 125
Width: 1000
Flags: W
LayerCount: 2
Fore
SplineSet
784 550 m 0
 745 576 704 601 674 617 c 1
 708 674 l 1
 742 656 784 631 823 605 c 0
 863 579 900 554 923 534 c 1
 884 473 l 1
 861 496 824 523 784 550 c 0
336 239 m 1
 336 282 l 1
 259 245 202 190 202 146 c 0
 202 102 268 65 304 65 c 0
 326 65 338 80 338 112 c 2
 336 196 l 1
 336 239 l 1
405 205 m 1
 407 101 l 2
 407 12 375 -17 324 -17 c 0
 251 -17 129 57 129 143 c 0
 129 222 226 306 335 353 c 1
 335 408 l 1
 336 533 l 1
 309 531 286 530 266 530 c 0
 212 530 178 531 146 535 c 1
 144 608 l 1
 195 602 229 601 264 601 c 0
 286 601 310 602 336 603 c 1
 337 713 l 2
 337 732 336 765 333 781 c 1
 374 781 l 1
 416 781 l 1
 414 764 411 737 410 715 c 2
 406 611 l 1
 475 620 546 633 600 650 c 1
 602 575 l 1
 546 561 473 549 404 541 c 1
 402 411 l 1
 402 378 l 1
 474 401 547 413 609 413 c 0
 746 413 845 338 845 222 c 0
 845 106 774 32 645 1 c 0
 602 -9 561 -11 528 -13 c 1
 502 65 l 1
 537 64 577 64 612 72 c 0
 695 88 770 133 770 221 c 0
 770 303 697 347 608 347 c 0
 538 347 471 334 403 310 c 1
 405 205 l 1
EndSplineSet
AlternateSubs2: "Historical Kana subtable" u1B014 u1B015 u1B016
EndChar

StartChar: uni304A_uni3099.ccmp
Encoding: 126 -1 126
Width: 1000
Flags: W
LayerCount: 2
Fore
SplineSet
923 766 m 0
 937 744 951 720 962 699 c 1
 913 675 l 1
 901 698 890 720 877 741 c 0
 865 763 852 783 837 803 c 1
 883 825 l 1
 895 810 909 789 923 766 c 0
821 728 m 0
 834 706 847 682 857 660 c 1
 808 637 l 1
 798 661 787 683 774 705 c 0
 762 726 749 747 734 768 c 1
 782 789 l 1
 794 773 807 751 821 728 c 0
781 525 m 0
 742 551 702 575 672 592 c 1
 706 650 l 1
 739 632 781 607 820 581 c 0
 859 556 896 530 918 511 c 1
 881 450 l 1
 858 473 821 500 781 525 c 0
336 239 m 1
 336 282 l 1
 259 245 202 190 202 146 c 0
 202 102 268 65 304 65 c 0
 326 65 338 80 338 112 c 2
 336 196 l 1
 336 239 l 1
405 205 m 1
 407 101 l 2
 407 12 375 -17 324 -17 c 0
 251 -17 129 57 129 143 c 0
 129 222 226 306 335 353 c 1
 335 408 l 1
 336 533 l 1
 309 531 286 530 266 530 c 0
 212 530 178 531 146 535 c 1
 144 608 l 1
 195 602 229 601 264 601 c 0
 286 601 310 602 336 603 c 1
 337 713 l 2
 337 732 336 765 333 781 c 1
 374 781 l 1
 416 781 l 1
 414 764 411 737 410 715 c 2
 406 611 l 1
 475 620 546 633 600 650 c 1
 602 575 l 1
 546 561 473 549 404 541 c 1
 402 411 l 1
 402 378 l 1
 474 401 547 413 609 413 c 0
 746 413 845 338 845 222 c 0
 845 106 774 32 645 1 c 0
 602 -9 561 -11 528 -13 c 1
 502 65 l 1
 537 64 577 64 612 72 c 0
 695 88 770 133 770 221 c 0
 770 303 697 347 608 347 c 0
 538 347 471 334 403 310 c 1
 405 205 l 1
EndSplineSet
Ligature2: "Dakuten and handakuten subtable" uni304A uni3099
EndChar

StartChar: uni304A_uni309A.ccmp
Encoding: 127 -1 127
Width: 1000
Flags: W
LayerCount: 2
Fore
SplineSet
885 782 m 0
 874 793 859 800 842 800 c 0
 825 800 810 793 800 782 c 0
 789 770 782 755 782 738 c 0
 782 704 808 677 842 677 c 0
 876 677 902 704 902 738 c 0
 902 755 896 771 885 782 c 0
916 663 m 0
 897 644 871 632 842 632 c 0
 814 632 788 644 769 664 c 0
 750 683 739 709 739 738 c 0
 739 796 785 844 842 844 c 0
 900 844 946 796 946 738 c 0
 946 709 935 683 916 663 c 0
761 505 m 0
 722 531 682 555 652 572 c 1
 686 630 l 1
 719 612 761 587 800 561 c 0
 839 536 876 510 898 491 c 1
 861 430 l 1
 838 453 801 480 761 505 c 0
316 219 m 1
 316 262 l 1
 239 225 182 170 182 126 c 0
 182 82 248 45 284 45 c 0
 306 45 318 60 318 92 c 2
 316 176 l 1
 316 219 l 1
385 185 m 1
 387 81 l 2
 387 -8 355 -37 304 -37 c 0
 231 -37 109 37 109 123 c 0
 109 202 206 286 315 333 c 1
 315 388 l 1
 316 513 l 1
 289 511 266 510 246 510 c 0
 192 510 158 511 126 515 c 1
 124 588 l 1
 175 582 209 581 244 581 c 0
 266 581 290 582 316 583 c 1
 317 693 l 2
 317 712 316 745 313 761 c 1
 354 761 l 1
 396 761 l 1
 394 744 391 717 390 695 c 2
 386 591 l 1
 455 600 526 613 580 630 c 1
 582 555 l 1
 526 541 453 529 384 521 c 1
 382 391 l 1
 382 358 l 1
 454 381 527 393 589 393 c 0
 726 393 825 318 825 202 c 0
 825 86 754 12 625 -19 c 0
 582 -29 541 -31 508 -33 c 1
 482 45 l 1
 517 44 557 44 592 52 c 0
 675 68 750 113 750 201 c 0
 750 283 677 327 588 327 c 0
 518 327 451 314 383 290 c 1
 385 185 l 1
EndSplineSet
LCarets2: 1 0
Ligature2: "Dakuten and handakuten subtable" uni304A uni309A
EndChar

StartChar: uni3095
Encoding: 128 12437 128
Width: 1000
Flags: W
LayerCount: 2
Fore
SplineSet
817 391 m 0
 846 335 872 278 883 241 c 1
 817 208 l 1
 806 250 784 308 757 363 c 0
 729 418 698 472 672 504 c 1
 732 532 l 1
 757 502 789 447 817 391 c 0
304 370 m 1
 252 364 l 2
 232 362 209 359 192 356 c 1
 183 431 l 1
 207 430 227 430 251 431 c 0
 275 432 322 435 371 440 c 1
 382 497 389 555 390 607 c 1
 430 603 478 594 477 590 c 0
 476 584 467 589 465 578 c 0
 464 571 463 565 462 559 c 2
 452 503 l 1
 442 447 l 1
 476 450 505 452 522 452 c 0
 596 452 650 418 650 317 c 0
 650 226 637 97 607 35 c 0
 585 -13 551 -34 501 -34 c 0
 466 -34 424 -28 397 -22 c 1
 385 50 l 1
 420 40 461 34 486 34 c 0
 508 34 529 41 546 70 c 0
 569 113 584 229 584 306 c 0
 584 375 555 386 504 386 c 0
 486 386 459 385 427 383 c 1
 400 271 340 85 263 -38 c 1
 191 -8 l 1
 272 105 330 273 356 376 c 1
 304 370 l 1
EndSplineSet
Substitution2: "Vertical forms subtable" uni3095.vert
EndChar

StartChar: uni3095.vert
Encoding: 129 -1 129
Width: 1000
Flags: W
LayerCount: 2
Fore
SplineSet
877 486 m 0
 903 435 925 383 936 347 c 1
 870 317 l 1
 860 357 839 410 816 460 c 0
 791 511 764 559 740 589 c 1
 800 616 l 1
 824 586 852 537 877 486 c 0
536 599 m 1
 527 547 l 1
 558 550 586 552 602 552 c 0
 669 552 726 521 726 424 c 0
 726 336 713 215 686 155 c 0
 665 108 633 87 586 87 c 0
 552 87 516 93 489 98 c 1
 477 171 l 1
 512 160 545 155 569 155 c 0
 590 155 609 160 623 188 c 0
 645 230 659 337 659 411 c 0
 659 477 630 488 585 488 c 0
 568 488 542 487 513 484 c 1
 488 377 434 203 361 86 c 1
 289 114 l 1
 367 224 419 379 444 477 c 1
 350 466 l 2
 333 464 307 461 290 457 c 1
 282 532 l 1
 305 531 326 531 349 532 c 2
 403 536 l 1
 458 541 l 1
 469 596 475 652 476 703 c 1
 555 695 l 1
 552 681 548 664 546 652 c 2
 536 599 l 1
EndSplineSet
Comment: "."
EndChar

StartChar: uni304B
Encoding: 130 12363 130
Width: 1000
Flags: W
LayerCount: 2
Fore
SplineSet
795 463 m 0
 765 528 730 590 696 629 c 1
 765 661 l 1
 823 583 905 407 937 317 c 1
 900 299 l 1
 864 282 l 1
 851 332 825 399 795 463 c 0
255 487 m 1
 195 481 l 2
 174 478 135 473 111 469 c 1
 103 553 l 1
 132 551 157 552 187 553 c 0
 218 554 273 558 330 563 c 1
 345 632 354 707 354 772 c 1
 442 763 l 1
 438 746 434 724 430 706 c 2
 418 637 l 1
 406 569 l 1
 450 573 490 576 512 576 c 0
 596 576 665 543 665 413 c 0
 665 299 649 146 610 67 c 0
 580 2 534 -14 473 -14 c 0
 437 -14 392 -7 362 1 c 1
 350 80 l 1
 389 68 439 61 465 61 c 0
 500 61 528 69 547 110 c 0
 577 175 592 300 592 404 c 0
 592 492 552 508 492 508 c 0
 470 508 432 506 391 502 c 1
 356 363 292 146 194 -16 c 1
 116 15 l 1
 212 146 283 365 315 494 c 1
 255 487 l 1
EndSplineSet
AlternateSubs2: "Historical Kana subtable" u1B017 u1B018 u1B019 u1B01A u1B01B u1B01C u1B01D u1B01E u1B01F u1B020 u1B021 u1B022
EndChar

StartChar: uni304C
Encoding: 131 12364 131
Width: 1000
Flags: W
LayerCount: 2
Fore
SplineSet
848 483 m 0
 880 418 909 353 924 308 c 1
 852 272 l 1
 837 322 812 388 782 452 c 0
 752 516 717 578 683 617 c 1
 752 649 l 1
 781 610 816 547 848 483 c 0
803 724 m 0
 817 700 831 676 840 656 c 1
 789 633 l 1
 779 652 767 676 753 700 c 0
 740 724 726 748 712 767 c 1
 763 788 l 1
 775 771 790 748 803 724 c 0
909 761 m 0
 923 738 937 714 946 696 c 1
 895 673 l 1
 884 694 871 718 858 741 c 0
 844 764 830 787 817 805 c 1
 867 826 l 1
 879 809 894 785 909 761 c 0
243 484 m 1
 183 478 l 2
 162 475 122 470 99 466 c 1
 90 549 l 1
 120 548 145 548 175 549 c 0
 206 550 260 554 318 559 c 1
 332 628 342 703 342 769 c 1
 429 760 l 1
 425 742 421 722 418 702 c 2
 406 634 l 1
 394 566 l 1
 438 570 477 573 499 573 c 0
 584 573 652 540 652 410 c 0
 652 295 636 143 598 63 c 0
 568 -1 521 -17 461 -17 c 0
 424 -17 380 -10 350 -3 c 1
 337 77 l 1
 377 65 426 57 452 57 c 0
 487 57 516 65 535 107 c 0
 565 171 579 297 579 401 c 0
 579 488 539 505 479 505 c 0
 457 505 419 502 379 498 c 1
 344 361 280 143 180 -20 c 1
 104 12 l 1
 200 143 271 362 303 490 c 1
 243 484 l 1
EndSplineSet
AlternateSubs2: "Historical Kana subtable" u1B017_uni3099.ccmp u1B018_uni3099.ccmp u1B019_uni3099.ccmp u1B01A_uni3099.ccmp u1B01B_uni3099.ccmp u1B01C_uni3099.ccmp u1B01D_uni3099.ccmp u1B01E_uni3099.ccmp u1B01F_uni3099.ccmp u1B020_uni3099.ccmp u1B021_uni3099.ccmp u1B022_uni3099.ccmp
EndChar

StartChar: uni304B_uni309A.ccmp
Encoding: 132 -1 132
Width: 1000
Flags: W
LayerCount: 2
Fore
SplineSet
848 483 m 0
 880 418 909 353 924 308 c 1
 852 272 l 1
 837 322 812 388 782 452 c 0
 752 516 717 578 683 617 c 1
 752 649 l 1
 781 610 816 547 848 483 c 0
893 659 m 0
 904 671 911 687 911 704 c 0
 911 722 904 738 892 749 c 0
 881 762 866 769 848 769 c 0
 813 769 786 740 786 704 c 0
 786 669 813 640 848 640 c 0
 866 640 881 647 893 659 c 0
923 781 m 0
 942 761 954 734 954 704 c 0
 954 674 942 648 923 627 c 0
 903 608 877 596 848 596 c 0
 790 596 743 645 743 704 c 0
 743 764 790 813 848 813 c 0
 877 813 904 801 923 781 c 0
243 484 m 1
 183 478 l 2
 162 475 122 470 99 466 c 1
 90 549 l 1
 120 548 145 548 175 549 c 0
 206 550 260 554 318 559 c 1
 332 628 342 703 342 769 c 1
 429 760 l 1
 425 742 421 722 418 702 c 2
 406 634 l 1
 394 566 l 1
 438 570 477 573 499 573 c 0
 584 573 652 540 652 410 c 0
 652 295 636 144 598 64 c 0
 568 0 521 -16 461 -16 c 0
 424 -16 380 -9 350 -2 c 1
 337 78 l 1
 377 66 426 58 452 58 c 0
 487 58 516 66 535 108 c 0
 565 172 579 297 579 401 c 0
 579 488 539 505 479 505 c 0
 457 505 419 502 379 498 c 1
 344 361 280 145 181 -19 c 1
 104 13 l 1
 200 144 271 362 303 490 c 1
 243 484 l 1
EndSplineSet
Ligature2: "Dakuten and handakuten subtable" uni304B uni309A
EndChar

StartChar: u1B130
Encoding: 133 110896 133
Width: 1000
Flags: W
LayerCount: 2
Fore
SplineSet
415 360 m 0
 468 360 516 362 558 365 c 1
 545 399 l 2
 539 419 532 438 528 455 c 1
 455 450 363 451 266 460 c 1
 262 532 l 1
 352 521 438 518 508 522 c 1
 497 560 l 2
 493 575 488 590 482 605 c 1
 565 616 l 1
 568 587 574 556 582 526 c 1
 634 533 687 545 736 561 c 1
 746 491 l 1
 703 478 649 466 598 460 c 1
 603 443 609 427 614 414 c 2
 629 371 l 1
 690 381 742 394 779 405 c 1
 791 331 l 1
 755 322 710 313 659 306 c 1
 673 276 688 247 707 220 c 0
 715 206 725 194 737 183 c 1
 699 125 l 1
 657 135 558 166 465 165 c 0
 419 165 341 155 341 98 c 0
 341 41 396 17 508 17 c 0
 581 17 641 23 696 34 c 1
 692 -45 l 1
 638 -53 573 -59 509 -59 c 0
 357 -59 269 -12 267 93 c 0
 265 210 366 226 449 226 c 0
 530 226 581 215 639 198 c 1
 619 229 602 264 587 297 c 1
 541 293 486 291 429 290 c 0
 371 290 310 293 251 297 c 1
 248 369 l 1
 306 364 362 361 415 360 c 0
EndSplineSet
Substitution2: "Vertical forms subtable" u1B130.vert
EndChar

StartChar: uni304D
Encoding: 135 12365 135
Width: 1000
Flags: W
LayerCount: 2
Fore
SplineSet
403 396 m 0
 332 396 257 398 184 403 c 1
 180 475 l 1
 322 459 466 460 571 470 c 1
 552 520 l 1
 527 596 l 1
 437 589 320 591 203 602 c 1
 198 672 l 1
 311 658 421 654 508 660 c 1
 493 711 l 2
 489 730 482 752 476 770 c 1
 515 774 l 1
 555 780 l 1
 559 746 568 704 578 665 c 1
 644 674 712 689 771 709 c 1
 781 640 l 1
 727 624 658 609 595 601 c 1
 617 534 l 2
 623 516 630 496 638 477 c 1
 713 487 782 505 826 518 c 1
 837 447 l 1
 793 434 733 422 667 413 c 1
 686 372 708 332 733 293 c 0
 743 278 755 266 768 252 c 1
 729 194 l 1
 677 208 546 245 436 244 c 0
 380 244 277 235 277 151 c 0
 277 75 347 40 494 40 c 0
 582 40 650 47 718 60 c 1
 715 -15 l 1
 649 -26 575 -32 495 -32 c 0
 311 -32 209 24 207 146 c 0
 205 282 316 305 422 305 c 0
 519 305 582 290 671 266 c 1
 644 310 618 358 598 406 c 1
 541 400 474 397 403 396 c 0
EndSplineSet
AlternateSubs2: "Historical Kana subtable" u1B023 u1B024 u1B025 u1B026 u1B027 u1B028 u1B029 u1B02A u1B03B
EndChar

StartChar: uni304E
Encoding: 136 12366 136
Width: 1000
Flags: W
LayerCount: 2
Fore
SplineSet
782 720 m 0
 797 696 811 671 821 650 c 1
 772 626 l 1
 761 650 749 674 736 697 c 0
 724 720 710 742 696 762 c 1
 743 783 l 1
 754 767 768 744 782 720 c 0
882 759 m 0
 897 736 911 711 922 690 c 1
 874 666 l 1
 863 689 851 712 837 735 c 0
 824 757 810 779 795 799 c 1
 841 821 l 1
 853 806 868 783 882 759 c 0
403 396 m 0
 332 396 257 398 184 403 c 1
 180 475 l 1
 322 459 466 460 571 470 c 1
 552 520 l 1
 527 596 l 1
 437 589 320 591 203 602 c 1
 198 672 l 1
 311 658 421 654 508 660 c 1
 493 711 l 2
 489 730 482 752 476 770 c 1
 515 774 l 1
 555 780 l 1
 559 746 568 704 578 665 c 1
 625 672 674 681 717 694 c 1
 731 627 l 1
 689 617 639 606 595 601 c 1
 617 534 l 2
 623 516 630 496 638 477 c 1
 713 487 782 505 826 518 c 1
 837 447 l 1
 793 434 733 422 667 413 c 1
 686 372 708 332 733 293 c 0
 743 278 755 266 768 252 c 1
 729 194 l 1
 677 208 546 245 436 244 c 0
 380 244 277 235 277 151 c 0
 277 75 347 40 494 40 c 0
 582 40 650 47 718 60 c 1
 715 -15 l 1
 649 -26 575 -32 495 -32 c 0
 311 -32 209 24 207 146 c 0
 205 282 316 305 422 305 c 0
 519 305 582 290 671 266 c 1
 644 310 618 358 598 406 c 1
 541 400 474 397 403 396 c 0
EndSplineSet
AlternateSubs2: "Historical Kana subtable" u1B023_uni3099.ccmp u1B024_uni3099.ccmp u1B025_uni3099.ccmp u1B026_uni3099.ccmp u1B027_uni3099.ccmp u1B028_uni3099.ccmp u1B029_uni3099.ccmp u1B02A_uni3099.ccmp u1B03B_uni3099.ccmp
EndChar

StartChar: uni304D_uni309A.ccmp
Encoding: 137 -1 137
Width: 1000
Flags: W
LayerCount: 2
Fore
SplineSet
890 659 m 0
 901 671 908 687 908 704 c 0
 908 722 901 738 889 749 c 0
 878 762 863 769 845 769 c 0
 810 769 783 740 783 704 c 0
 783 669 810 640 845 640 c 0
 863 640 878 647 890 659 c 0
920 781 m 0
 939 761 951 734 951 704 c 0
 951 674 939 648 920 627 c 0
 900 608 874 596 845 596 c 0
 787 596 740 645 740 704 c 0
 740 764 787 813 845 813 c 0
 874 813 901 801 920 781 c 0
365 396 m 0
 294 396 219 398 146 403 c 1
 142 475 l 1
 284 459 428 460 533 470 c 1
 514 520 l 1
 489 596 l 1
 399 589 282 591 165 602 c 1
 160 672 l 1
 273 658 383 654 470 660 c 1
 455 711 l 2
 451 730 444 752 438 770 c 1
 477 774 l 1
 517 780 l 1
 521 746 530 704 540 665 c 1
 604 672 655 684 713 702 c 1
 724 632 l 1
 670 618 616 606 557 601 c 1
 579 534 l 2
 585 516 592 496 600 477 c 1
 675 487 744 505 788 518 c 1
 799 447 l 1
 755 434 695 422 629 413 c 1
 648 372 670 332 695 293 c 0
 705 278 717 266 730 252 c 1
 691 194 l 1
 639 208 508 245 398 244 c 0
 342 244 239 235 239 151 c 0
 239 75 309 40 456 40 c 0
 544 40 612 47 680 60 c 1
 677 -15 l 1
 611 -26 537 -32 457 -32 c 0
 273 -32 171 24 169 146 c 0
 167 282 278 305 384 305 c 0
 481 305 544 290 633 266 c 1
 606 310 580 358 560 406 c 1
 503 400 436 397 365 396 c 0
EndSplineSet
LCarets2: 1 0
Ligature2: "Dakuten and handakuten subtable" uni304D uni309A
EndChar

StartChar: u1B131
Encoding: 138 110897 138
Width: 1000
Flags: W
LayerCount: 2
Fore
SplineSet
659 -39 m 1
 624 -72 l 1
 606 -51 586 -28 566 -8 c 0
 515 45 401 145 329 206 c 0
 255 269 263 307 336 368 c 0
 395 419 506 509 557 561 c 0
 575 581 597 604 608 620 c 1
 643 588 l 1
 679 556 l 1
 659 541 635 520 620 507 c 0
 569 464 463 378 408 331 c 0
 365 293 365 283 410 243 c 0
 475 188 614 74 694 -7 c 1
 659 -39 l 1
EndSplineSet
Substitution2: "Vertical forms subtable" u1B131.vert
EndChar

StartChar: uni304F
Encoding: 140 12367 140
Width: 1000
Flags: W
LayerCount: 2
Fore
SplineSet
679 -17 m 1
 646 -48 l 1
 626 -25 604 -1 581 22 c 0
 515 91 372 216 285 290 c 0
 195 365 207 407 291 480 c 0
 362 540 505 655 569 722 c 0
 587 741 611 768 622 786 c 1
 657 754 l 1
 692 722 l 1
 672 706 643 681 627 668 c 0
 563 610 428 501 358 441 c 0
 302 392 301 377 361 325 c 0
 446 254 613 117 712 15 c 1
 679 -17 l 1
EndSplineSet
AlternateSubs2: "Historical Kana subtable" u1B02B u1B02C u1B02D u1B02E u1B02F u1B030 u1B031
EndChar

StartChar: uni3050
Encoding: 141 12368 141
Width: 1000
Flags: W
LayerCount: 2
Fore
SplineSet
622 468 m 0
 608 494 593 520 581 538 c 1
 631 560 l 1
 643 543 658 516 673 490 c 0
 688 464 703 437 712 419 c 1
 660 396 l 1
 650 416 636 442 622 468 c 0
784 536 m 0
 799 511 814 485 823 465 c 1
 773 442 l 1
 762 462 748 488 733 513 c 0
 718 538 703 562 690 580 c 1
 741 603 l 1
 753 587 769 562 784 536 c 0
666 -17 m 1
 633 -48 l 1
 614 -25 591 -1 569 22 c 0
 502 91 360 216 272 290 c 0
 183 365 194 407 278 480 c 0
 350 540 492 655 555 722 c 0
 574 741 599 768 609 786 c 1
 644 754 l 1
 680 722 l 1
 660 706 631 681 615 668 c 0
 550 610 414 501 346 441 c 0
 289 392 288 377 349 325 c 0
 434 254 601 117 700 15 c 1
 666 -17 l 1
EndSplineSet
AlternateSubs2: "Historical Kana subtable" u1B02B_uni3099.ccmp u1B02C_uni3099.ccmp u1B02D_uni3099.ccmp u1B02E_uni3099.ccmp u1B02F_uni3099.ccmp u1B030_uni3099.ccmp u1B031_uni3099.ccmp
EndChar

StartChar: uni304F_uni309A.ccmp
Encoding: 142 -1 142
Width: 1000
Flags: W
LayerCount: 2
Fore
SplineSet
661 466 m 0
 674 453 692 445 711 445 c 0
 730 445 747 453 759 466 c 0
 773 479 780 497 780 516 c 0
 780 555 749 586 711 586 c 0
 672 586 641 555 641 516 c 0
 641 497 649 479 661 466 c 0
630 599 m 0
 650 620 679 633 711 633 c 0
 774 633 825 580 825 516 c 0
 825 451 774 399 711 399 c 0
 679 399 650 412 630 434 c 0
 609 455 596 483 596 516 c 0
 596 548 609 577 630 599 c 0
639 -18 m 1
 606 -49 l 1
 586 -26 564 -2 541 21 c 0
 475 90 333 215 245 289 c 0
 156 364 166 406 252 479 c 0
 322 539 465 654 529 721 c 0
 547 740 571 767 582 784 c 1
 617 752 l 1
 652 722 l 1
 633 705 602 679 587 666 c 0
 523 609 387 500 319 440 c 0
 261 390 260 376 321 324 c 0
 407 253 573 116 673 13 c 1
 639 -18 l 1
EndSplineSet
Ligature2: "Dakuten and handakuten subtable" uni304F uni309A
EndChar

StartChar: uni3096
Encoding: 143 12438 143
Width: 1000
Flags: W
LayerCount: 2
Fore
SplineSet
218 395 m 0
 224 450 232 499 237 533 c 0
 239 553 240 572 240 585 c 1
 280 581 330 569 328 564 c 0
 326 557 316 564 312 552 c 0
 310 543 307 534 305 526 c 0
 293 471 281 401 275 330 c 0
 269 259 269 186 280 123 c 1
 290 155 307 200 320 239 c 1
 339 228 369 204 365 192 c 0
 360 176 348 186 339 154 c 0
 327 109 314 61 308 35 c 0
 305 25 304 10 304 2 c 0
 304 -6 305 -21 306 -28 c 1
 249 -36 l 1
 233 11 207 116 207 214 c 0
 207 277 212 339 218 395 c 0
691 114 m 0
 670 41 628 -23 542 -72 c 1
 482 -22 l 1
 507 -12 536 6 556 25 c 0
 640 98 647 204 647 362 c 2
 647 363 l 1
 617 362 584 362 549 362 c 0
 506 362 461 364 425 367 c 1
 424 436 l 1
 448 433 503 426 551 426 c 0
 584 426 616 427 647 429 c 1
 647 468 646 510 643 537 c 0
 643 551 639 580 637 589 c 1
 715 589 l 1
 713 573 712 554 712 538 c 2
 712 486 l 1
 712 434 l 1
 760 439 805 446 841 455 c 1
 841 382 l 1
 804 377 761 372 712 368 c 1
 712 362 l 2
 712 272 712 188 691 114 c 0
EndSplineSet
Substitution2: "Vertical forms subtable" uni3096.vert
EndChar

StartChar: uni3096.vert
Encoding: 144 -1 144
Width: 1000
Flags: W
LayerCount: 2
Fore
SplineSet
328 513 m 0
 334 564 342 608 347 642 c 0
 350 659 351 679 351 692 c 1
 428 683 l 1
 423 670 418 649 414 634 c 0
 403 581 392 517 385 452 c 0
 380 387 380 320 389 259 c 1
 398 291 413 324 425 362 c 1
 462 341 l 1
 445 288 423 213 415 176 c 0
 413 166 412 152 413 144 c 0
 413 135 414 119 414 112 c 1
 358 105 l 1
 342 151 318 249 318 345 c 0
 318 406 323 463 328 513 c 0
683 472 m 1
 639 472 l 2
 598 472 556 474 521 477 c 1
 521 546 l 1
 545 541 595 536 640 536 c 0
 670 536 698 536 726 537 c 1
 726 579 726 623 724 643 c 0
 723 658 720 686 717 695 c 1
 795 695 l 1
 792 679 792 659 791 644 c 2
 791 593 l 1
 792 542 l 1
 836 546 875 553 910 560 c 1
 910 488 l 1
 874 484 836 480 792 477 c 1
 793 311 800 162 635 67 c 1
 575 117 l 1
 600 127 627 144 646 161 c 0
 727 230 729 328 727 473 c 1
 683 472 l 1
EndSplineSet
Comment: "."
EndChar

StartChar: uni3051
Encoding: 145 12369 145
Width: 1000
Flags: W
LayerCount: 2
Fore
SplineSet
216 440 m 0
 209 350 210 258 227 179 c 1
 241 219 260 278 278 326 c 1
 298 313 330 286 326 274 c 0
 321 258 308 268 298 237 c 0
 281 182 265 122 257 89 c 0
 254 74 252 56 253 46 c 0
 254 36 255 23 256 13 c 1
 192 5 l 1
 173 64 142 189 142 310 c 0
 142 465 166 613 178 693 c 0
 181 715 182 740 182 757 c 1
 226 752 l 1
 270 748 l 1
 265 730 257 704 254 686 c 0
 239 617 224 529 216 440 c 0
743 633 m 1
 743 561 l 1
 799 566 853 573 897 583 c 1
 897 505 l 1
 853 498 801 492 744 488 c 1
 744 455 l 2
 744 234 744 77 545 -43 c 1
 477 12 l 1
 507 25 545 49 568 72 c 0
 668 162 674 270 674 455 c 2
 674 484 l 1
 633 482 593 482 555 482 c 0
 509 482 443 484 402 487 c 1
 402 564 l 1
 443 557 503 554 554 554 c 0
 592 554 633 554 672 556 c 1
 671 617 668 681 666 705 c 0
 665 727 661 747 658 763 c 1
 701 763 l 1
 745 763 l 1
 743 746 743 727 743 706 c 2
 743 633 l 1
EndSplineSet
AlternateSubs2: "Historical Kana subtable" u1B032 u1B033 u1B034 u1B035 u1B036 u1B037 u1B022
EndChar

StartChar: uni3052
Encoding: 146 12370 146
Width: 1000
Flags: W
LayerCount: 2
Fore
SplineSet
205 425 m 0
 198 335 199 244 217 165 c 1
 230 205 250 264 268 312 c 1
 288 299 319 273 315 261 c 0
 310 245 298 254 288 223 c 0
 271 168 254 108 247 74 c 0
 243 61 242 42 242 31 c 0
 243 22 244 9 245 -1 c 1
 181 -9 l 1
 163 50 132 175 132 295 c 0
 132 452 157 599 167 678 c 0
 171 700 172 725 173 743 c 1
 216 738 l 1
 259 734 l 1
 255 717 248 690 243 672 c 0
 228 602 213 515 205 425 c 0
829 709 m 0
 839 685 848 660 854 641 c 1
 807 624 l 1
 801 645 791 670 783 694 c 0
 774 718 764 741 755 759 c 1
 800 773 l 1
 809 756 819 733 829 709 c 0
923 739 m 0
 933 715 943 691 950 672 c 1
 903 654 l 1
 896 676 887 700 878 724 c 0
 868 747 859 770 849 788 c 1
 894 803 l 1
 903 786 913 762 923 739 c 0
723 619 m 1
 724 546 l 1
 783 551 840 558 887 569 c 1
 886 491 l 1
 841 483 785 478 725 473 c 1
 725 440 l 2
 725 219 725 63 525 -57 c 1
 457 -2 l 1
 487 10 525 34 548 58 c 0
 649 147 654 256 654 440 c 2
 654 469 l 1
 618 468 580 467 544 467 c 0
 499 467 432 470 392 473 c 1
 392 550 l 1
 433 543 492 539 543 539 c 0
 579 539 616 540 652 541 c 1
 651 602 649 667 648 691 c 0
 646 713 641 733 638 748 c 1
 681 748 l 1
 726 748 l 1
 724 732 723 713 723 692 c 2
 723 619 l 1
EndSplineSet
AlternateSubs2: "Historical Kana subtable" u1B032_uni3099.ccmp u1B033_uni3099.ccmp u1B034_uni3099.ccmp u1B035_uni3099.ccmp u1B036_uni3099.ccmp u1B037_uni3099.ccmp u1B022_uni3099.ccmp
EndChar

StartChar: uni3051_uni309A.ccmp
Encoding: 147 -1 147
Width: 1000
Flags: W
LayerCount: 2
Fore
SplineSet
883 764 m 0
 872 775 857 782 840 782 c 0
 823 782 808 775 798 764 c 0
 787 752 780 737 780 720 c 0
 780 686 806 659 840 659 c 0
 874 659 900 686 900 720 c 0
 900 737 894 753 883 764 c 0
914 645 m 0
 895 626 869 614 840 614 c 0
 812 614 786 626 767 646 c 0
 748 665 737 691 737 720 c 0
 737 778 783 826 840 826 c 0
 898 826 944 778 944 720 c 0
 944 691 933 665 914 645 c 0
205 425 m 0
 198 335 199 244 217 165 c 1
 230 205 250 264 268 312 c 1
 288 299 319 273 315 261 c 0
 310 245 298 254 288 223 c 0
 271 168 254 108 247 74 c 0
 243 61 242 42 242 31 c 0
 243 22 244 9 245 -1 c 1
 181 -9 l 1
 163 50 132 175 132 295 c 0
 132 452 157 599 167 678 c 0
 171 700 172 725 173 743 c 1
 216 738 l 1
 259 734 l 1
 255 717 248 690 243 672 c 0
 228 602 213 515 205 425 c 0
723 619 m 1
 724 546 l 1
 783 551 840 558 887 569 c 1
 886 491 l 1
 841 483 785 478 725 473 c 1
 725 440 l 2
 725 219 725 63 525 -57 c 1
 457 -2 l 1
 487 10 525 34 548 58 c 0
 649 147 654 256 654 440 c 2
 654 469 l 1
 618 468 580 467 544 467 c 0
 499 467 432 470 392 473 c 1
 392 550 l 1
 433 543 492 539 543 539 c 0
 579 539 616 540 652 541 c 1
 651 602 649 667 648 691 c 0
 646 713 641 733 638 748 c 1
 681 748 l 1
 726 748 l 1
 724 732 723 713 723 692 c 2
 723 619 l 1
EndSplineSet
LCarets2: 1 0
Ligature2: "Dakuten and handakuten subtable" uni3051 uni309A
EndChar

StartChar: u1B132
Encoding: 148 110898 148
Width: 1000
Flags: W
LayerCount: 2
Fore
SplineSet
509 -43 m 0
 428 -43 366 -29 321 -2 c 0
 278 25 256 64 256 115 c 0
 256 140 260 174 269 217 c 0
 270 221 270 224 271 226 c 1
 292 224 312 221 330 216 c 0
 349 211 359 206 358 201 c 0
 357 198 355 195 352 193 c 0
 345 190 341 184 339 176 c 0
 336 161 335 147 335 134 c 0
 335 105 349 83 377 67 c 0
 407 49 450 40 507 40 c 0
 558 40 608 43 655 49 c 0
 700 54 738 61 771 71 c 1
 772 -15 l 1
 704 -34 616 -43 509 -43 c 0
510 451 m 0
 448 451 379 454 304 460 c 1
 304 541 l 1
 361 534 429 531 509 531 c 0
 536 531 573 532 622 534 c 0
 634 535 651 536 674 538 c 0
 697 539 714 541 723 542 c 1
 723 461 l 1
 713 460 694 459 667 457 c 0
 648 456 633 455 624 454 c 0
 573 452 535 451 510 451 c 0
EndSplineSet
Substitution2: "Vertical forms subtable" u1B132.vert
EndChar

StartChar: uni3053
Encoding: 150 12371 150
Width: 1000
Flags: W
LayerCount: 2
Fore
SplineSet
634 679 m 0
 678 682 719 686 753 689 c 1
 753 610 l 1
 721 608 680 605 634 602 c 0
 590 601 543 599 499 599 c 0
 405 599 325 603 251 609 c 1
 251 688 l 1
 319 679 405 675 499 675 c 0
 544 675 591 677 634 679 c 0
272 37 m 0
 221 68 193 115 193 175 c 0
 193 224 204 269 212 309 c 1
 250 305 301 289 298 278 c 0
 294 264 281 273 274 246 c 0
 271 228 269 210 269 192 c 0
 269 119 342 68 492 68 c 0
 622 68 743 82 814 106 c 1
 814 65 l 1
 815 24 l 1
 747 4 628 -10 494 -10 c 0
 399 -10 324 6 272 37 c 0
EndSplineSet
AlternateSubs2: "Historical Kana subtable" u1B038 u1B039 u1B03A u1B03B u1B098
EndChar

StartChar: uni3054
Encoding: 151 12372 151
Width: 1000
Flags: W
LayerCount: 2
Fore
SplineSet
618 593 m 0
 574 591 527 589 483 589 c 0
 388 589 308 593 234 600 c 1
 234 677 l 1
 302 670 388 666 482 666 c 0
 527 666 574 668 618 670 c 0
 662 673 702 675 736 679 c 1
 736 601 l 1
 704 599 663 596 618 593 c 0
255 27 m 0
 204 58 176 105 176 165 c 0
 176 215 186 260 195 298 c 1
 233 294 285 279 282 268 c 0
 278 254 265 263 258 236 c 0
 255 218 253 200 253 182 c 0
 253 108 325 58 476 58 c 0
 605 58 727 73 797 96 c 1
 797 54 l 1
 798 13 l 1
 731 -5 612 -21 477 -21 c 0
 382 -21 307 -5 255 27 c 0
802 720 m 0
 816 696 830 672 839 652 c 1
 789 628 l 1
 779 649 767 673 753 697 c 0
 740 721 725 745 712 763 c 1
 762 785 l 1
 774 768 789 744 802 720 c 0
908 758 m 0
 923 734 937 710 946 692 c 1
 894 669 l 1
 884 690 871 714 858 737 c 0
 844 760 830 783 816 801 c 1
 866 823 l 1
 879 806 894 782 908 758 c 0
EndSplineSet
AlternateSubs2: "Historical Kana subtable" u1B038_uni3099.ccmp u1B039_uni3099.ccmp u1B03A_uni3099.ccmp u1B03B_uni3099.ccmp u1B098_uni3099.ccmp
EndChar

StartChar: uni3053_uni309A.ccmp
Encoding: 152 -1 152
Width: 1000
Flags: W
LayerCount: 2
Fore
SplineSet
886 749 m 0
 875 761 859 768 842 768 c 0
 824 768 808 761 797 748 c 0
 786 737 779 721 779 702 c 0
 779 668 806 638 842 638 c 0
 876 638 904 668 904 702 c 0
 904 721 897 737 886 749 c 0
766 781 m 0
 786 801 813 813 842 813 c 0
 871 813 899 800 917 781 c 0
 937 761 949 733 949 702 c 0
 949 643 900 594 842 594 c 0
 783 594 735 643 735 702 c 0
 735 733 747 761 766 781 c 0
618 593 m 0
 574 591 527 589 483 589 c 0
 388 589 308 593 234 600 c 1
 234 677 l 1
 302 670 388 666 482 666 c 0
 527 666 574 668 618 670 c 0
 662 673 702 675 736 679 c 1
 736 601 l 1
 704 599 663 596 618 593 c 0
255 27 m 0
 204 58 176 105 176 165 c 0
 176 215 186 260 195 298 c 1
 233 294 285 279 282 268 c 0
 278 254 265 263 258 236 c 0
 255 218 253 200 253 182 c 0
 253 108 325 58 476 58 c 0
 605 58 727 73 797 96 c 1
 797 54 l 1
 798 13 l 1
 731 -5 612 -21 477 -21 c 0
 382 -21 307 -5 255 27 c 0
EndSplineSet
Ligature2: "Dakuten and handakuten subtable" uni3053 uni309A
EndChar

StartChar: u1B133
Encoding: 153 110899 153
Width: 1000
Flags: W
LayerCount: 2
Fore
SplineSet
332 -10 m 0
 289 19 265 62 265 120 c 0
 265 233 342 279 449 279 c 0
 536 279 629 253 654 246 c 1
 627 288 595 348 571 407 c 1
 526 404 477 403 422 403 c 0
 367 403 309 405 247 410 c 1
 245 489 l 1
 357 476 463 472 544 479 c 1
 525 539 l 2
 519 556 512 581 504 605 c 1
 586 616 l 1
 593 579 605 528 619 486 c 1
 672 494 734 507 785 524 c 1
 794 446 l 1
 749 434 692 423 645 416 c 1
 667 361 698 307 724 270 c 0
 735 253 747 238 760 224 c 1
 722 168 l 1
 682 178 528 213 455 213 c 0
 380 213 342 185 342 131 c 0
 342 54 404 24 515 23 c 0
 596 23 661 30 715 41 c 1
 711 -37 l 1
 665 -45 599 -55 510 -54 c 0
 435 -54 374 -39 332 -10 c 0
EndSplineSet
Substitution2: "Vertical forms subtable" u1B133.vert
EndChar

StartChar: uni3055
Encoding: 155 12373 155
Width: 1000
Flags: W
LayerCount: 2
Fore
SplineSet
391 533 m 0
 324 533 253 537 180 543 c 1
 179 620 l 1
 315 603 450 600 551 608 c 1
 538 645 529 674 523 695 c 0
 516 715 508 745 499 770 c 1
 539 774 l 1
 579 780 l 1
 585 738 603 671 622 616 c 1
 687 625 768 640 832 663 c 1
 840 588 l 1
 782 571 706 557 646 549 c 1
 674 477 714 402 751 351 c 0
 763 333 777 315 792 300 c 1
 754 246 l 1
 709 259 522 304 421 304 c 0
 324 304 279 263 279 192 c 0
 279 89 360 49 500 48 c 0
 595 47 677 56 743 71 c 1
 739 -5 l 1
 680 -16 601 -26 496 -26 c 0
 318 -24 205 41 205 183 c 0
 205 301 279 367 416 367 c 0
 524 367 655 336 689 321 c 1
 652 377 606 462 576 540 c 1
 520 535 458 533 391 533 c 0
EndSplineSet
AlternateSubs2: "Historical Kana subtable" u1B03C u1B03D u1B03E u1B03F u1B040 u1B041 u1B042 u1B043
EndChar

StartChar: uni3056
Encoding: 156 12374 156
Width: 1000
Flags: W
LayerCount: 2
Fore
SplineSet
794 747 m 0
 806 727 818 707 828 688 c 1
 775 666 l 1
 767 685 756 705 743 725 c 0
 731 746 718 766 706 782 c 1
 757 803 l 1
 769 786 781 767 794 747 c 0
902 776 m 0
 917 752 930 728 939 709 c 1
 889 686 l 1
 879 707 866 731 853 755 c 0
 838 778 824 801 810 819 c 1
 860 842 l 1
 873 824 888 800 902 776 c 0
385 527 m 0
 318 528 247 531 174 537 c 1
 172 613 l 1
 308 597 443 594 543 602 c 1
 531 638 522 667 516 688 c 0
 509 709 501 738 492 764 c 1
 531 769 l 1
 571 773 l 1
 578 731 597 664 615 609 c 1
 680 618 761 634 824 656 c 1
 833 581 l 1
 774 564 698 551 638 543 c 1
 666 470 709 396 743 344 c 0
 757 326 771 310 785 293 c 1
 747 240 l 1
 702 253 515 297 414 297 c 0
 318 297 272 257 272 185 c 0
 272 83 353 42 493 41 c 0
 588 40 670 50 735 64 c 1
 732 -12 l 1
 673 -22 594 -33 489 -32 c 0
 311 -31 198 34 198 176 c 0
 198 294 272 361 410 361 c 0
 518 361 649 329 682 315 c 1
 646 370 599 456 569 534 c 1
 514 529 451 527 385 527 c 0
EndSplineSet
AlternateSubs2: "Historical Kana subtable" u1B03C_uni3099.ccmp u1B03D_uni3099.ccmp u1B03E_uni3099.ccmp u1B03F_uni3099.ccmp u1B040_uni3099.ccmp u1B041_uni3099.ccmp u1B042_uni3099.ccmp u1B043_uni3099.ccmp
EndChar

StartChar: uni3055_uni309A.ccmp
Encoding: 157 -1 157
Width: 1000
Flags: W
LayerCount: 2
Fore
SplineSet
869 799 m 0
 859 810 845 816 829 816 c 0
 813 816 799 809 788 799 c 0
 779 788 772 774 772 758 c 0
 772 726 797 701 829 701 c 0
 860 701 885 726 885 758 c 0
 885 774 879 789 869 799 c 0
898 829 m 0
 916 811 927 786 927 758 c 0
 927 730 916 705 898 687 c 0
 880 669 856 658 829 658 c 0
 773 658 731 702 731 758 c 0
 731 814 773 858 829 858 c 0
 856 858 881 847 898 829 c 0
385 527 m 0
 318 528 247 531 174 537 c 1
 172 613 l 1
 308 597 443 594 543 602 c 1
 531 638 522 667 516 688 c 0
 509 709 501 738 492 764 c 1
 531 769 l 1
 571 773 l 1
 578 731 597 664 615 609 c 1
 680 618 761 634 824 656 c 1
 833 581 l 1
 774 564 698 551 638 543 c 1
 666 470 709 396 743 344 c 0
 757 326 771 310 785 293 c 1
 747 240 l 1
 702 253 515 297 414 297 c 0
 318 297 272 257 272 185 c 0
 272 83 353 42 493 41 c 0
 588 40 670 50 735 64 c 1
 732 -12 l 1
 673 -22 594 -33 489 -32 c 0
 311 -31 198 34 198 176 c 0
 198 294 272 361 410 361 c 0
 518 361 649 329 682 315 c 1
 646 370 599 456 569 534 c 1
 514 529 451 527 385 527 c 0
EndSplineSet
Ligature2: "Dakuten and handakuten subtable" uni3055 uni309A
EndChar

StartChar: u1B134
Encoding: 158 110900 158
Width: 1000
Flags: W
LayerCount: 2
Fore
SplineSet
307 328 m 0
 309 401 311 471 311 508 c 0
 311 541 308 574 302 600 c 1
 352 599 l 1
 401 599 l 1
 396 570 393 537 392 508 c 0
 389 422 383 241 383 133 c 0
 383 51 432 22 499 22 c 0
 633 22 714 99 769 183 c 1
 824 115 l 1
 773 41 670 -60 498 -60 c 0
 381 -60 303 -9 303 121 c 0
 303 176 305 254 307 328 c 0
EndSplineSet
Substitution2: "Vertical forms subtable" u1B134.vert
EndChar

StartChar: uni3057
Encoding: 160 12375 160
Width: 1000
Flags: W
LayerCount: 2
Fore
SplineSet
258 437 m 0
 260 529 262 615 262 665 c 0
 262 700 260 735 255 763 c 1
 302 762 l 1
 350 762 l 1
 345 730 342 697 341 665 c 0
 336 556 330 330 330 187 c 0
 330 81 395 44 484 44 c 0
 656 44 753 143 821 242 c 1
 874 177 l 1
 809 86 688 -35 481 -35 c 0
 346 -35 253 23 253 179 c 0
 253 250 255 346 258 437 c 0
EndSplineSet
Substitution2: "Stylistic Kana variants subtable" uni3057.salt
AlternateSubs2: "Historical Kana subtable" u1B044 u1B045 u1B046 u1B047 u1B048 u1B049
EndChar

StartChar: uni3057.salt
Encoding: 161 -1 161
Width: 1000
Flags: W
LayerCount: 2
Fore
SplineSet
443 564 m 1
 419 583 387 605 346 632 c 0
 299 665 264 687 241 700 c 1
 283 764 l 1
 304 753 340 731 391 696 c 0
 431 669 463 647 487 629 c 1
 443 564 l 1
481 -35 m 0
 321 -35 245 36 253 179 c 0
 254 204 255 239 255 284 c 0
 255 290 255 299 256 311 c 0
 257 366 257 366 258 421 c 0
 258 460 256 493 251 519 c 1
 298 518 l 1
 346 518 l 1
 341 486 338 454 337 421 c 0
 333 334 330 249 330 167 c 128
 330 85 381 44 484 44 c 0
 562 44 631 65 692 106 c 0
 737 137 780 182 821 242 c 1
 874 177 l 1
 773 36 642 -35 481 -35 c 0
EndSplineSet
EndChar

StartChar: uni3058
Encoding: 162 12376 162
Width: 1000
Flags: W
LayerCount: 2
Fore
SplineSet
643 605 m 0
 660 577 677 547 688 524 c 1
 633 498 l 1
 620 524 606 552 591 578 c 0
 576 605 560 631 544 653 c 1
 598 676 l 1
 610 659 626 633 643 605 c 0
767 655 m 0
 784 627 801 598 812 576 c 1
 758 549 l 1
 745 574 730 602 715 627 c 0
 699 654 682 679 666 700 c 1
 719 725 l 1
 732 709 749 682 767 655 c 0
246 431 m 0
 249 522 251 608 251 658 c 0
 251 694 248 728 242 756 c 1
 289 755 l 1
 337 755 l 1
 333 723 330 690 329 658 c 0
 325 551 318 323 318 180 c 0
 318 74 383 37 472 37 c 0
 644 37 742 136 808 236 c 1
 862 170 l 1
 797 79 676 -42 470 -42 c 0
 335 -42 241 16 241 172 c 0
 241 243 244 340 246 431 c 0
EndSplineSet
Substitution2: "Stylistic Kana variants subtable" uni3058.salt
AlternateSubs2: "Historical Kana subtable" u1B044_uni3099.ccmp u1B045_uni3099.ccmp u1B046_uni3099.ccmp u1B047_uni3099.ccmp u1B048_uni3099.ccmp u1B049_uni3099.ccmp
EndChar

StartChar: uni3058.salt
Encoding: 163 -1 163
Width: 1000
Flags: W
LayerCount: 2
Fore
SplineSet
443 564 m 1
 419 583 387 605 346 632 c 0
 299 665 264 687 241 700 c 1
 283 764 l 1
 304 753 340 731 391 696 c 0
 431 669 463 647 487 629 c 1
 443 564 l 1
481 -35 m 0
 321 -35 245 36 253 179 c 0
 254 204 255 239 255 284 c 0
 255 290 255 299 256 311 c 0
 257 366 257 366 258 421 c 0
 258 460 256 493 251 519 c 1
 298 518 l 1
 346 518 l 1
 341 486 338 454 337 421 c 0
 333 334 330 249 330 167 c 128
 330 85 381 44 484 44 c 0
 562 44 631 65 692 106 c 0
 737 137 780 182 821 242 c 1
 874 177 l 1
 773 36 642 -35 481 -35 c 0
633 498 m 1
 615 534 601 561 591 578 c 0
 575 607 559 632 544 653 c 1
 598 676 l 1
 607 663 622 640 643 605 c 0
 662 572 677 545 688 524 c 1
 633 498 l 1
758 549 m 1
 741 581 727 607 715 627 c 0
 700 653 683 677 666 700 c 1
 719 725 l 1
 726 717 737 700 754 674 c 0
 760 665 764 659 767 655 c 0
 788 621 803 595 812 576 c 1
 758 549 l 1
EndSplineSet
EndChar

StartChar: uni3057_uni309A.ccmp
Encoding: 164 -1 164
Width: 1000
Flags: W
LayerCount: 2
Fore
SplineSet
733 564 m 0
 745 577 753 595 753 614 c 0
 753 635 746 652 732 664 c 0
 720 678 703 685 684 685 c 0
 645 685 615 654 615 614 c 0
 615 576 645 543 684 543 c 0
 703 543 720 551 733 564 c 0
603 698 m 0
 624 719 653 732 684 732 c 0
 716 732 744 719 765 698 c 0
 786 677 799 647 799 614 c 0
 799 550 747 498 684 498 c 0
 621 498 570 550 570 614 c 0
 570 647 583 677 603 698 c 0
246 431 m 0
 249 522 251 608 251 658 c 0
 251 694 248 728 242 756 c 1
 289 755 l 1
 337 755 l 1
 333 723 330 690 329 658 c 0
 325 551 318 323 318 180 c 0
 318 74 383 37 472 37 c 0
 644 37 742 136 808 236 c 1
 862 170 l 1
 797 79 676 -42 470 -42 c 0
 335 -42 241 16 241 172 c 0
 241 243 244 340 246 431 c 0
EndSplineSet
Ligature2: "Dakuten and handakuten subtable" uni3057 uni309A
Substitution2: "Stylistic Kana variants subtable" uni3057_uni309A.ccmp.salt
EndChar

StartChar: uni3057_uni309A.ccmp.salt
Encoding: 165 -1 165
Width: 1000
Flags: W
LayerCount: 2
Fore
SplineSet
733 564 m 0
 745 577 753 595 753 614 c 0
 753 635 746 652 732 664 c 0
 720 678 703 685 684 685 c 0
 645 685 615 654 615 614 c 0
 615 576 645 543 684 543 c 0
 703 543 720 551 733 564 c 0
603 698 m 0
 624 719 653 732 684 732 c 0
 716 732 744 719 765 698 c 0
 786 677 799 647 799 614 c 0
 799 550 747 498 684 498 c 0
 621 498 570 550 570 614 c 0
 570 647 583 677 603 698 c 0
443 564 m 1
 419 583 387 605 346 632 c 0
 299 665 264 687 241 700 c 1
 283 764 l 1
 304 753 340 731 391 696 c 0
 431 669 463 647 487 629 c 1
 443 564 l 1
481 -35 m 0
 321 -35 245 36 253 179 c 0
 254 204 255 239 255 284 c 0
 255 290 255 299 256 311 c 0
 257 366 257 366 258 421 c 0
 258 460 256 493 251 519 c 1
 298 518 l 1
 346 518 l 1
 341 486 338 454 337 421 c 0
 333 334 330 249 330 167 c 128
 330 85 381 44 484 44 c 0
 562 44 631 65 692 106 c 0
 737 137 780 182 821 242 c 1
 874 177 l 1
 773 36 642 -35 481 -35 c 0
EndSplineSet
EndChar

StartChar: u1B135
Encoding: 166 110901 166
Width: 1000
Flags: W
LayerCount: 2
Fore
SplineSet
448 296 m 0
 436 284 427 266 427 242 c 0
 427 199 459 172 496 172 c 0
 516 172 533 180 544 197 c 0
 556 214 562 241 557 278 c 1
 545 304 521 315 496 315 c 0
 479 315 461 309 448 296 c 0
614 381 m 1
 614 320 l 1
 631 291 640 256 640 216 c 0
 640 112 586 -10 404 -64 c 1
 340 1 l 1
 430 21 501 56 538 116 c 1
 522 109 503 104 483 104 c 0
 421 104 354 150 354 240 c 0
 354 322 420 381 497 381 c 0
 512 381 527 380 540 376 c 1
 539 442 l 1
 422 440 297 436 202 429 c 1
 200 504 l 1
 287 506 430 510 539 512 c 1
 537 552 l 2
 535 577 532 601 531 609 c 1
 619 609 l 1
 617 599 614 563 614 552 c 2
 614 513 l 1
 728 513 l 1
 843 513 l 1
 842 439 l 1
 797 441 725 443 613 443 c 1
 614 381 l 1
EndSplineSet
Substitution2: "Vertical forms subtable" u1B135.vert
EndChar

StartChar: uni3059
Encoding: 168 12377 168
Width: 1000
Flags: W
LayerCount: 2
Fore
SplineSet
414 405 m 0
 397 388 385 362 385 331 c 0
 385 271 429 236 481 236 c 0
 508 236 531 247 546 269 c 0
 561 292 569 326 564 371 c 1
 549 414 518 433 480 433 c 0
 456 433 432 423 414 405 c 0
615 505 m 1
 616 426 l 1
 635 393 646 351 646 303 c 0
 646 173 584 29 365 -38 c 1
 302 26 l 1
 427 54 513 108 551 195 c 1
 528 178 501 170 469 170 c 0
 390 170 315 225 315 330 c 0
 315 425 391 497 480 497 c 0
 504 497 524 493 543 486 c 1
 542 583 l 1
 399 582 240 576 122 567 c 1
 120 641 l 1
 225 643 401 649 541 650 c 1
 539 714 l 2
 539 739 535 767 534 774 c 1
 576 774 l 1
 619 774 l 1
 618 764 616 726 615 714 c 2
 614 651 l 1
 628 651 l 2
 743 651 858 650 903 650 c 1
 902 579 l 1
 850 582 764 584 627 584 c 2
 614 584 l 1
 615 505 l 1
EndSplineSet
AlternateSubs2: "Historical Kana subtable" u1B04A u1B04B u1B04C u1B04D u1B04E u1B04F u1B050 u1B051
EndChar

StartChar: uni305A
Encoding: 169 12378 169
Width: 1000
Flags: W
LayerCount: 2
Fore
SplineSet
759 726 m 0
 771 706 783 685 792 667 c 1
 739 643 l 1
 729 662 718 683 706 703 c 0
 695 724 682 745 670 761 c 1
 722 783 l 1
 733 767 746 747 759 726 c 0
872 752 m 0
 885 732 897 712 907 693 c 1
 853 669 l 1
 844 689 833 710 821 730 c 0
 808 750 796 770 784 785 c 1
 837 808 l 1
 848 792 860 772 872 752 c 0
387 395 m 0
 370 377 358 352 358 320 c 0
 358 261 402 225 454 225 c 0
 481 225 504 237 519 259 c 0
 534 282 541 315 538 360 c 1
 523 403 491 422 453 422 c 0
 429 422 405 412 387 395 c 0
587 494 m 1
 588 415 l 1
 608 383 618 340 618 292 c 0
 618 162 556 18 338 -48 c 1
 275 15 l 1
 399 44 487 98 525 185 c 1
 502 168 475 159 443 159 c 0
 363 159 288 215 288 319 c 0
 288 414 364 486 454 486 c 0
 477 486 498 482 517 476 c 1
 516 572 l 1
 372 571 213 564 96 555 c 1
 93 630 l 1
 198 632 375 638 515 640 c 1
 513 703 l 2
 511 728 508 756 507 764 c 1
 549 764 l 1
 592 764 l 1
 591 753 588 715 587 703 c 2
 586 641 l 1
 601 641 l 2
 716 641 832 640 876 640 c 1
 875 568 l 1
 822 571 738 573 600 573 c 2
 586 573 l 1
 587 494 l 1
EndSplineSet
AlternateSubs2: "Historical Kana subtable" u1B04A_uni3099.ccmp u1B04B_uni3099.ccmp u1B04C_uni3099.ccmp u1B04D_uni3099.ccmp u1B04E_uni3099.ccmp u1B04F_uni3099.ccmp u1B050_uni3099.ccmp u1B051_uni3099.ccmp
EndChar

StartChar: uni3059_uni309A.ccmp
Encoding: 170 -1 170
Width: 1000
Flags: W
LayerCount: 2
Fore
SplineSet
829 763 m 0
 819 774 805 780 789 780 c 0
 773 780 759 773 748 763 c 0
 739 752 732 738 732 722 c 0
 732 690 757 665 789 665 c 0
 820 665 845 690 845 722 c 0
 845 738 839 753 829 763 c 0
858 793 m 0
 876 775 887 750 887 722 c 0
 887 694 876 669 858 651 c 0
 840 633 816 622 789 622 c 0
 733 622 691 666 691 722 c 0
 691 778 733 822 789 822 c 0
 816 822 841 811 858 793 c 0
387 372 m 0
 370 354 358 329 358 297 c 0
 358 238 402 202 454 202 c 0
 481 202 504 214 519 236 c 0
 534 259 541 292 538 337 c 1
 523 380 491 399 453 399 c 0
 429 399 405 389 387 372 c 0
587 471 m 1
 588 392 l 1
 608 360 618 317 618 269 c 0
 618 139 556 -5 338 -71 c 1
 275 -8 l 1
 399 21 487 75 525 162 c 1
 502 145 475 136 443 136 c 0
 363 136 288 192 288 296 c 0
 288 391 364 463 454 463 c 0
 477 463 498 459 517 453 c 1
 516 549 l 1
 372 548 213 541 96 532 c 1
 93 607 l 1
 198 609 375 615 515 617 c 1
 513 680 l 2
 511 705 508 733 507 741 c 1
 549 741 l 1
 592 741 l 1
 591 730 588 692 587 680 c 2
 586 618 l 1
 601 618 l 2
 716 618 832 617 876 617 c 1
 875 545 l 1
 822 548 738 550 600 550 c 2
 586 550 l 1
 587 471 l 1
EndSplineSet
Ligature2: "Dakuten and handakuten subtable" uni3059 uni309A
EndChar

StartChar: u1B136
Encoding: 171 110902 171
Width: 1000
Flags: W
LayerCount: 2
Fore
SplineSet
512 416 m 1
 628 426 l 1
 628 528 l 2
 628 546 625 578 623 592 c 1
 705 592 l 1
 703 580 701 549 701 530 c 2
 699 432 l 1
 772 438 l 2
 792 439 818 440 838 442 c 1
 838 366 l 1
 825 366 792 366 772 365 c 2
 698 362 l 1
 697 303 693 235 686 200 c 0
 679 163 661 152 624 152 c 0
 596 152 540 161 517 165 c 1
 519 232 l 1
 544 227 576 222 592 222 c 0
 609 222 617 226 619 243 c 0
 622 267 625 311 627 356 c 1
 553 349 469 342 398 334 c 1
 397 257 396 180 398 148 c 0
 400 67 403 42 528 42 c 0
 608 42 703 52 756 62 c 1
 754 -22 l 1
 703 -28 609 -35 532 -35 c 0
 346 -35 326 7 323 136 c 2
 323 326 l 1
 253 318 l 2
 229 315 190 308 170 306 c 1
 161 385 l 1
 185 385 215 387 248 390 c 2
 323 398 l 1
 323 493 l 2
 323 521 321 543 317 568 c 1
 359 568 l 1
 402 568 l 1
 400 547 398 525 398 497 c 2
 398 405 l 1
 512 416 l 1
EndSplineSet
Substitution2: "Vertical forms subtable" u1B136.vert
EndChar

StartChar: uni305B
Encoding: 173 12379 173
Width: 1000
Flags: W
LayerCount: 2
Fore
SplineSet
650 613 m 1
 650 682 l 2
 650 703 649 738 646 754 c 1
 726 754 l 1
 723 738 722 705 721 685 c 2
 719 551 l 1
 823 557 l 2
 848 559 874 561 897 562 c 1
 897 487 l 1
 882 488 846 487 822 487 c 0
 794 486 759 484 717 482 c 1
 715 411 713 326 704 281 c 0
 696 239 675 226 632 226 c 0
 598 226 533 235 508 240 c 1
 509 306 l 1
 541 298 582 293 603 293 c 0
 626 293 636 297 639 319 c 0
 644 351 648 416 649 477 c 1
 553 469 443 458 349 448 c 1
 348 349 348 249 349 212 c 0
 351 108 353 72 516 72 c 0
 618 72 734 83 795 95 c 1
 792 13 l 1
 729 6 615 -2 520 -2 c 0
 303 -2 282 49 277 201 c 0
 276 242 276 344 276 440 c 1
 176 429 l 2
 147 425 106 419 81 415 c 1
 72 494 l 1
 101 494 136 496 170 500 c 2
 276 509 l 1
 277 643 l 2
 277 673 275 695 272 724 c 1
 312 724 l 1
 353 724 l 1
 351 702 350 676 350 647 c 2
 349 517 l 1
 441 526 550 536 650 545 c 1
 650 613 l 1
EndSplineSet
AlternateSubs2: "Historical Kana subtable" u1B052 u1B053 u1B054 u1B055 u1B056
EndChar

StartChar: uni305C
Encoding: 174 12380 174
Width: 1000
Flags: W
LayerCount: 2
Fore
SplineSet
818 677 m 0
 828 653 838 628 844 608 c 1
 797 592 l 1
 790 613 781 637 772 662 c 0
 762 686 753 710 743 728 c 1
 789 743 l 1
 798 725 808 701 818 677 c 0
912 708 m 0
 922 684 932 660 939 640 c 1
 892 624 l 1
 884 646 876 670 866 694 c 0
 856 718 847 741 837 758 c 1
 883 773 l 1
 892 756 902 732 912 708 c 0
633 599 m 1
 633 668 l 2
 633 689 631 723 628 740 c 1
 708 740 l 1
 705 723 704 691 703 670 c 2
 701 536 l 1
 806 543 l 2
 829 545 856 546 879 548 c 1
 879 473 l 1
 864 474 828 473 805 472 c 0
 776 471 741 470 699 467 c 1
 697 396 695 311 686 266 c 0
 678 223 657 211 614 211 c 0
 580 211 515 220 490 225 c 1
 492 291 l 1
 524 284 564 279 586 279 c 0
 608 279 618 283 621 305 c 0
 626 337 630 401 632 461 c 1
 535 454 425 443 331 434 c 1
 330 335 330 235 331 197 c 0
 334 94 336 57 498 57 c 0
 600 57 716 69 777 80 c 1
 774 -1 l 1
 712 -8 597 -18 502 -18 c 0
 284 -18 264 34 259 187 c 0
 258 228 258 330 258 426 c 1
 158 414 l 2
 129 410 88 405 62 401 c 1
 54 480 l 1
 84 480 118 482 152 484 c 2
 258 495 l 1
 259 628 l 2
 259 657 257 680 254 709 c 1
 294 709 l 1
 336 709 l 1
 334 688 332 661 332 632 c 2
 331 502 l 1
 423 511 532 522 633 530 c 1
 633 599 l 1
EndSplineSet
AlternateSubs2: "Historical Kana subtable" u1B052_uni3099.ccmp u1B053_uni3099.ccmp u1B054_uni3099.ccmp u1B055_uni3099.ccmp u1B056_uni3099.ccmp
EndChar

StartChar: uni305B_uni309A.ccmp
Encoding: 175 -1 175
Width: 1000
Flags: W
LayerCount: 2
Fore
SplineSet
885 726 m 0
 875 737 861 743 845 743 c 0
 829 743 815 736 804 726 c 0
 795 715 788 701 788 685 c 0
 788 653 813 628 845 628 c 0
 876 628 901 653 901 685 c 0
 901 701 895 716 885 726 c 0
914 756 m 0
 932 738 943 713 943 685 c 0
 943 657 932 632 914 614 c 0
 896 596 872 585 845 585 c 0
 789 585 747 629 747 685 c 0
 747 741 789 785 845 785 c 0
 872 785 897 774 914 756 c 0
633 599 m 1
 633 668 l 2
 633 689 631 723 628 740 c 1
 708 740 l 1
 705 723 704 691 703 670 c 2
 701 536 l 1
 806 543 l 2
 829 545 856 546 879 548 c 1
 879 473 l 1
 864 474 828 473 805 472 c 0
 776 471 741 470 699 467 c 1
 697 396 695 311 686 266 c 0
 678 223 657 211 614 211 c 0
 580 211 515 220 490 225 c 1
 492 291 l 1
 524 284 564 279 586 279 c 0
 608 279 618 283 621 305 c 0
 626 337 630 401 632 461 c 1
 535 454 425 443 331 434 c 1
 330 335 330 235 331 197 c 0
 334 94 336 57 498 57 c 0
 600 57 716 69 777 80 c 1
 774 -1 l 1
 712 -8 597 -18 502 -18 c 0
 284 -18 264 34 259 187 c 0
 258 228 258 330 258 426 c 1
 158 414 l 2
 129 410 88 405 62 401 c 1
 54 480 l 1
 84 480 118 482 152 484 c 2
 258 495 l 1
 259 628 l 2
 259 657 257 680 254 709 c 1
 294 709 l 1
 336 709 l 1
 334 688 332 661 332 632 c 2
 331 502 l 1
 423 511 532 522 633 530 c 1
 633 599 l 1
EndSplineSet
Ligature2: "Dakuten and handakuten subtable" uni305B uni309A
EndChar

StartChar: u1B137
Encoding: 176 110903 176
Width: 1000
Flags: W
LayerCount: 2
Fore
SplineSet
470 -17 m 0
 419 12 393 58 393 121 c 0
 393 180 433 233 468 258 c 1
 391 251 296 241 210 226 c 1
 203 300 l 1
 245 304 297 310 336 315 c 1
 413 368 526 469 573 512 c 1
 540 510 424 504 391 502 c 0
 371 500 347 497 327 495 c 1
 324 575 l 1
 345 573 366 572 391 572 c 0
 424 572 575 579 621 584 c 0
 642 586 657 590 667 593 c 1
 691 564 718 525 713 522 c 0
 707 518 703 528 691 520 c 0
 682 513 674 507 667 501 c 0
 611 455 515 373 457 327 c 1
 512 333 574 338 634 342 c 0
 693 346 752 348 803 348 c 1
 804 275 l 1
 730 279 655 279 609 272 c 0
 536 261 468 203 468 134 c 0
 468 62 525 37 595 28 c 0
 638 22 678 24 707 26 c 1
 691 -56 l 1
 596 -60 521 -46 470 -17 c 0
EndSplineSet
Substitution2: "Vertical forms subtable" u1B137.vert
EndChar

StartChar: uni305D
Encoding: 178 12381 178
Width: 1000
Flags: W
LayerCount: 2
Fore
SplineSet
453 19 m 0
 393 54 362 110 362 183 c 0
 362 266 423 335 471 364 c 1
 370 356 245 341 132 322 c 1
 126 394 l 1
 177 400 241 408 289 413 c 1
 390 485 539 619 599 673 c 1
 557 670 392 662 351 659 c 0
 328 657 300 654 280 652 c 1
 276 731 l 1
 299 728 322 727 351 727 c 0
 392 727 586 736 640 743 c 0
 662 745 680 748 691 751 c 1
 715 724 742 684 737 681 c 0
 730 677 726 688 714 680 c 0
 704 674 695 667 688 661 c 0
 618 602 482 485 407 425 c 1
 478 433 556 439 633 445 c 0
 711 450 787 453 854 453 c 1
 854 382 l 1
 762 386 672 386 616 378 c 0
 524 364 435 285 435 194 c 0
 435 98 511 65 597 53 c 0
 652 46 698 48 732 50 c 1
 716 -27 l 1
 602 -33 513 -17 453 19 c 0
EndSplineSet
Substitution2: "Stylistic Kana variants subtable" uni305D.salt
AlternateSubs2: "Historical Kana subtable" u1B057 u1B058 u1B059 u1B05A u1B05B u1B05C u1B05D
EndChar

StartChar: uni305D.salt
Encoding: 179 -1 179
Width: 1000
Flags: W
LayerCount: 2
Fore
SplineSet
384 592 m 1
 354 622 332 643 319 654 c 0
 300 671 280 687 260 704 c 1
 306 756 l 1
 329 739 350 722 368 705 c 0
 398 679 419 659 432 644 c 1
 384 592 l 1
453 19 m 0
 392 54 362 109 362 183 c 0
 362 221 374 258 399 294 c 0
 419 324 443 347 471 364 c 1
 358 355 245 341 132 322 c 1
 126 394 l 1
 136 395 152 397 173 400 c 0
 228 406 266 410 289 413 c 1
 397 490 500 576 599 673 c 0
 654 728 682 757 682 762 c 1
 694 748 706 731 720 712 c 128
 734 693 740 682 738 681 c 128
 736 680 732 680 729 681 c 0
 724 684 719 683 714 680 c 0
 705 675 697 668 688 661 c 0
 675 650 653 631 620 603 c 0
 515 514 444 454 407 425 c 1
 458 428 531 435 626 444 c 0
 629 445 632 445 633 445 c 0
 716 450 790 453 854 453 c 1
 854 382 l 1
 747 387 667 385 616 378 c 0
 569 371 527 350 491 315 c 0
 454 278 435 238 435 194 c 0
 435 113 489 66 597 53 c 0
 636 48 681 47 732 50 c 1
 716 -27 l 1
 603 -33 516 -18 453 19 c 0
EndSplineSet
EndChar

StartChar: uni305E
Encoding: 180 12382 180
Width: 1000
Flags: W
LayerCount: 2
Fore
SplineSet
425 19 m 0
 365 55 334 110 334 184 c 0
 334 266 395 336 443 365 c 1
 342 357 217 341 104 323 c 1
 98 395 l 1
 148 400 212 409 259 414 c 1
 362 486 510 620 571 674 c 1
 528 671 364 663 323 659 c 0
 300 657 272 654 252 652 c 1
 248 731 l 1
 271 729 294 728 322 728 c 0
 364 728 557 737 612 743 c 0
 633 746 651 748 663 752 c 1
 687 725 714 685 709 682 c 0
 702 678 698 689 686 681 c 0
 676 674 667 667 660 661 c 0
 590 602 454 486 379 425 c 1
 450 434 528 440 605 445 c 0
 682 451 759 454 826 454 c 1
 826 383 l 1
 734 387 644 386 587 378 c 0
 496 364 406 286 406 195 c 0
 406 98 483 66 569 53 c 0
 624 47 670 49 703 51 c 1
 688 -27 l 1
 574 -32 485 -16 425 19 c 0
750 575 m 0
 763 554 775 531 785 509 c 1
 737 486 l 1
 727 507 716 529 705 550 c 0
 693 571 680 591 666 610 c 1
 714 631 l 1
 725 615 738 596 750 575 c 0
851 614 m 0
 864 593 877 570 887 550 c 1
 839 526 l 1
 829 547 818 568 806 589 c 0
 793 610 780 630 766 648 c 1
 813 670 l 1
 825 655 838 635 851 614 c 0
EndSplineSet
Substitution2: "Stylistic Kana variants subtable" uni305E.salt
AlternateSubs2: "Historical Kana subtable" u1B057_uni3099.ccmp u1B058_uni3099.ccmp u1B059_uni3099.ccmp u1B05A_uni3099.ccmp u1B05B_uni3099.ccmp u1B05C_uni3099.ccmp u1B05D_uni3099.ccmp
EndChar

StartChar: uni305E.salt
Encoding: 181 -1 181
Width: 1000
Flags: W
LayerCount: 2
Fore
SplineSet
376 570 m 1
 346 600 324 621 311 632 c 0
 292 649 272 665 252 682 c 1
 298 734 l 1
 321 717 342 700 360 683 c 0
 390 657 411 637 424 622 c 1
 376 570 l 1
445 -3 m 0
 384 32 354 87 354 161 c 0
 354 199 366 236 391 272 c 0
 411 302 435 325 463 342 c 1
 350 333 237 319 124 300 c 1
 118 372 l 1
 128 373 144 375 165 378 c 0
 220 384 258 388 281 391 c 1
 380 462 476 543 571 636 c 0
 624 689 651 723 651 739 c 1
 663 725 677 707 693 684 c 128
 709 661 716 649 714 648 c 128
 712 647 708 647 705 648 c 0
 700 651 695 650 690 647 c 0
 677 639 669 633 664 628 c 0
 627 595 598 571 579 556 c 0
 552 535 492 484 399 403 c 1
 522 411 595 417 618 422 c 0
 621 423 624 423 625 423 c 0
 708 428 782 431 846 431 c 1
 846 360 l 1
 739 365 659 363 608 356 c 0
 561 349 519 328 483 293 c 0
 446 256 427 216 427 172 c 0
 427 91 481 44 589 31 c 0
 628 26 673 25 724 28 c 1
 708 -49 l 1
 595 -55 508 -40 445 -3 c 0
781 642 m 1
 771 663 760 685 749 706 c 0
 737 727 724 747 710 766 c 1
 758 787 l 1
 761 782 773 764 794 731 c 0
 807 711 818 689 829 665 c 1
 781 642 l 1
883 682 m 1
 873 703 862 724 850 745 c 0
 835 770 821 789 810 804 c 1
 857 826 l 1
 867 814 880 795 895 770 c 0
 909 747 921 726 931 706 c 1
 883 682 l 1
EndSplineSet
EndChar

StartChar: uni305D_uni309A.ccmp
Encoding: 182 -1 182
Width: 1000
Flags: W
LayerCount: 2
Fore
SplineSet
821 622 m 0
 811 633 797 639 781 639 c 0
 765 639 751 632 740 622 c 0
 731 611 724 597 724 581 c 0
 724 549 749 524 781 524 c 0
 812 524 837 549 837 581 c 0
 837 597 831 612 821 622 c 0
850 652 m 0
 868 634 879 609 879 581 c 0
 879 553 868 528 850 510 c 0
 832 492 808 481 781 481 c 0
 725 481 683 525 683 581 c 0
 683 637 725 681 781 681 c 0
 808 681 833 670 850 652 c 0
425 19 m 0
 365 55 334 110 334 184 c 0
 334 266 395 336 443 365 c 1
 342 357 217 341 104 323 c 1
 98 395 l 1
 148 400 212 409 259 414 c 1
 362 486 510 620 571 674 c 1
 528 671 364 663 323 659 c 0
 300 657 272 654 252 652 c 1
 248 731 l 1
 271 729 294 728 322 728 c 0
 364 728 557 737 612 743 c 0
 633 746 651 748 663 752 c 1
 687 725 714 685 709 682 c 0
 702 678 698 689 686 681 c 0
 676 674 667 667 660 661 c 0
 590 602 454 486 379 425 c 1
 450 434 528 440 605 445 c 0
 682 451 759 454 826 454 c 1
 826 383 l 1
 734 387 644 386 587 378 c 0
 496 364 406 286 406 195 c 0
 406 98 483 66 569 53 c 0
 624 47 670 49 703 51 c 1
 688 -27 l 1
 574 -32 485 -16 425 19 c 0
EndSplineSet
Ligature2: "Dakuten and handakuten subtable" uni305D uni309A
Substitution2: "Stylistic Kana variants subtable" uni305D_uni309A.ccmp.salt
EndChar

StartChar: uni305D_uni309A.ccmp.salt
Encoding: 183 -1 183
Width: 1000
Flags: W
LayerCount: 2
Fore
SplineSet
863 768 m 0
 853 779 839 785 823 785 c 0
 807 785 793 778 782 768 c 0
 773 757 766 743 766 727 c 0
 766 695 791 670 823 670 c 0
 854 670 879 695 879 727 c 0
 879 743 873 758 863 768 c 0
892 798 m 0
 910 780 921 755 921 727 c 0
 921 699 910 674 892 656 c 0
 874 638 850 627 823 627 c 0
 767 627 725 671 725 727 c 0
 725 783 767 827 823 827 c 0
 850 827 875 816 892 798 c 0
376 570 m 1
 346 600 324 621 311 632 c 0
 292 649 272 665 252 682 c 1
 298 734 l 1
 321 717 342 700 360 683 c 0
 390 657 411 637 424 622 c 1
 376 570 l 1
445 -3 m 0
 384 32 354 87 354 161 c 0
 354 199 366 236 391 272 c 0
 411 302 435 325 463 342 c 1
 350 333 237 319 124 300 c 1
 118 372 l 1
 128 373 144 375 165 378 c 0
 220 384 258 388 281 391 c 1
 380 462 476 543 571 636 c 0
 624 689 651 723 651 739 c 1
 663 725 677 707 693 684 c 128
 709 661 716 649 714 648 c 128
 712 647 708 647 705 648 c 0
 700 651 695 650 690 647 c 0
 677 639 669 633 664 628 c 0
 627 595 598 571 579 556 c 0
 552 535 492 484 399 403 c 1
 522 411 595 417 618 422 c 0
 621 423 624 423 625 423 c 0
 708 428 782 431 846 431 c 1
 846 360 l 1
 739 365 659 363 608 356 c 0
 561 349 519 328 483 293 c 0
 446 256 427 216 427 172 c 0
 427 91 481 44 589 31 c 0
 628 26 673 25 724 28 c 1
 708 -49 l 1
 595 -55 508 -40 445 -3 c 0
EndSplineSet
EndChar

StartChar: u1B138
Encoding: 184 110904 184
Width: 1000
Flags: W
LayerCount: 2
Fore
SplineSet
609 371 m 0
 633 373 659 373 683 373 c 0
 727 373 773 372 816 367 c 1
 814 292 l 1
 775 298 730 302 684 302 c 0
 659 302 635 302 611 300 c 0
 587 298 563 296 539 293 c 1
 539 366 l 1
 560 368 585 370 609 371 c 0
751 41 m 0
 777 44 803 49 828 53 c 1
 825 -25 l 1
 783 -31 733 -37 674 -37 c 0
 612 -37 564 -26 531 -6 c 0
 498 14 482 44 482 82 c 0
 482 115 488 148 495 180 c 1
 531 176 576 166 574 159 c 0
 572 150 563 156 559 138 c 0
 557 127 557 115 557 105 c 0
 557 70 577 37 675 37 c 0
 700 37 726 39 751 41 c 0
360 123 m 0
 338 59 315 -4 294 -48 c 1
 211 -20 l 1
 256 60 312 222 341 331 c 2
 359 407 l 1
 337 406 316 405 297 405 c 0
 262 405 234 406 206 408 c 1
 204 485 l 1
 241 481 269 479 298 479 c 0
 322 479 348 480 375 482 c 1
 379 505 382 526 384 541 c 0
 388 565 389 594 387 611 c 1
 433 607 l 1
 479 604 l 1
 474 584 467 552 464 537 c 2
 455 491 l 1
 501 498 549 506 594 518 c 1
 594 441 l 1
 545 429 492 421 440 414 c 1
 432 381 424 344 416 311 c 0
 402 256 382 188 360 123 c 0
EndSplineSet
Substitution2: "Vertical forms subtable" u1B138.vert
EndChar

StartChar: uni305F
Encoding: 186 12383 186
Width: 1000
Flags: W
LayerCount: 2
Fore
SplineSet
617 483 m 0
 647 484 677 485 707 485 c 0
 762 485 819 482 869 477 c 1
 868 404 l 1
 820 410 764 415 710 415 c 0
 680 415 651 414 622 413 c 0
 593 411 564 410 535 406 c 1
 535 477 l 1
 560 480 588 482 617 483 c 0
793 73 m 0
 824 76 855 81 884 87 c 1
 881 9 l 1
 830 2 768 -4 699 -4 c 0
 625 -4 568 7 529 30 c 0
 491 54 470 90 470 137 c 0
 470 174 477 210 484 250 c 1
 519 246 565 234 563 225 c 0
 560 213 550 220 545 198 c 0
 542 184 541 170 541 157 c 0
 541 112 566 68 700 68 c 0
 731 68 762 70 793 73 c 0
182 -7 m 1
 141 8 l 1
 197 107 264 302 299 437 c 0
 307 469 316 506 323 540 c 1
 292 538 263 537 237 537 c 0
 195 537 162 539 128 541 c 1
 125 616 l 1
 170 610 204 609 238 609 c 0
 269 609 303 611 339 614 c 1
 346 648 351 678 353 698 c 0
 357 724 358 757 356 777 c 1
 401 773 l 1
 446 770 l 1
 441 748 433 712 430 693 c 2
 415 622 l 1
 477 629 539 641 596 656 c 1
 596 580 l 1
 535 566 466 555 400 548 c 1
 392 506 382 461 370 419 c 0
 336 283 273 85 224 -21 c 1
 182 -7 l 1
EndSplineSet
AlternateSubs2: "Historical Kana subtable" u1B05E u1B05F u1B060 u1B061
EndChar

StartChar: uni3060
Encoding: 187 12384 187
Width: 1000
Flags: W
LayerCount: 2
Fore
SplineSet
589 469 m 0
 618 471 649 472 679 472 c 0
 734 472 790 469 841 463 c 1
 839 390 l 1
 791 397 736 402 681 402 c 0
 652 402 623 401 594 399 c 0
 565 397 536 395 507 391 c 1
 507 463 l 1
 532 466 559 468 589 469 c 0
765 59 m 0
 796 63 827 68 855 74 c 1
 853 -4 l 1
 802 -12 740 -19 671 -19 c 0
 597 -19 539 -7 501 17 c 0
 462 41 442 76 442 123 c 0
 442 160 447 196 456 237 c 1
 491 233 537 222 535 213 c 0
 533 201 522 208 517 185 c 0
 514 170 513 157 513 144 c 0
 513 98 538 54 672 54 c 0
 703 54 734 56 765 59 c 0
780 662 m 0
 794 638 808 614 817 594 c 1
 766 571 l 1
 757 591 744 615 730 639 c 0
 717 663 703 686 690 704 c 1
 740 726 l 1
 752 709 767 686 780 662 c 0
886 700 m 0
 900 676 914 652 923 633 c 1
 872 610 l 1
 862 631 849 655 836 679 c 0
 821 702 807 725 794 744 c 1
 843 766 l 1
 856 748 871 724 886 700 c 0
154 -20 m 1
 113 -5 l 1
 169 94 236 289 271 424 c 0
 279 456 288 492 295 527 c 1
 264 525 235 524 209 524 c 0
 167 524 133 526 100 528 c 1
 97 602 l 1
 142 597 176 596 210 596 c 0
 241 596 274 598 311 601 c 1
 318 634 322 665 325 684 c 0
 329 711 330 744 328 763 c 1
 373 759 l 1
 418 755 l 1
 413 735 405 698 401 679 c 2
 387 608 l 1
 448 616 510 627 568 642 c 1
 568 567 l 1
 507 553 438 542 372 534 c 1
 363 492 353 448 342 406 c 0
 308 269 244 71 195 -34 c 1
 154 -20 l 1
EndSplineSet
AlternateSubs2: "Historical Kana subtable" u1B05E_uni3099.ccmp u1B05F_uni3099.ccmp u1B060_uni3099.ccmp u1B061_uni3099.ccmp
EndChar

StartChar: u1B139
Encoding: 188 110905 188
Width: 1000
Flags: W
LayerCount: 2
Fore
SplineSet
675 -16 m 0
 604 -49 503 -59 383 -46 c 1
 363 33 l 1
 537 7 707 33 707 156 c 0
 707 209 663 252 580 252 c 0
 490 252 408 220 359 159 c 0
 351 148 344 137 337 124 c 1
 265 150 l 1
 303 226 334 334 353 422 c 1
 302 423 255 425 213 429 c 1
 213 505 l 1
 257 498 317 492 364 492 c 2
 367 492 l 1
 374 535 l 2
 378 563 379 582 378 605 c 1
 420 603 l 1
 464 601 l 1
 457 578 453 553 447 530 c 2
 441 495 l 1
 531 499 639 510 733 531 c 1
 735 456 l 1
 649 441 526 428 426 424 c 1
 414 366 399 302 384 260 c 1
 449 302 513 319 588 319 c 0
 710 319 787 253 787 158 c 0
 787 74 747 17 675 -16 c 0
EndSplineSet
Substitution2: "Vertical forms subtable" u1B139.vert
EndChar

StartChar: uni3061
Encoding: 190 12385 190
Width: 1000
Flags: W
LayerCount: 2
Fore
SplineSet
693 18 m 0
 607 -22 485 -33 342 -17 c 1
 323 59 l 1
 540 28 752 67 752 224 c 0
 752 296 694 352 584 352 c 0
 472 352 368 313 306 236 c 0
 294 221 286 209 277 192 c 1
 207 218 l 1
 255 314 292 451 316 559 c 1
 315 559 l 2
 251 559 191 563 136 569 c 1
 135 644 l 1
 185 635 257 627 314 627 c 2
 330 627 l 1
 340 691 l 2
 344 722 345 744 344 770 c 1
 385 768 l 1
 428 766 l 1
 421 740 415 710 411 685 c 2
 400 629 l 1
 513 634 651 650 767 675 c 1
 768 602 l 1
 658 582 508 566 386 561 c 1
 369 481 348 389 327 335 c 1
 409 393 493 416 592 416 c 0
 742 416 829 338 829 226 c 0
 829 126 779 58 693 18 c 0
EndSplineSet
AlternateSubs2: "Historical Kana subtable" u1B062 u1B063 u1B064 u1B065 u1B066 u1B067 u1B068
EndChar

StartChar: uni3062
Encoding: 191 12386 191
Width: 1000
Flags: W
LayerCount: 2
Fore
SplineSet
790 723 m 0
 804 700 818 675 827 655 c 1
 776 632 l 1
 767 652 755 676 741 700 c 0
 727 724 713 748 700 766 c 1
 750 788 l 1
 762 771 777 747 790 723 c 0
896 761 m 0
 911 737 924 714 933 696 c 1
 883 672 l 1
 872 693 859 717 846 741 c 0
 832 764 818 787 805 804 c 1
 854 826 l 1
 867 809 882 785 896 761 c 0
662 7 m 0
 577 -33 455 -44 312 -28 c 1
 292 49 l 1
 510 18 721 55 721 214 c 0
 721 285 664 340 554 340 c 0
 442 340 338 301 275 225 c 0
 264 211 256 197 246 180 c 1
 177 206 l 1
 225 302 262 439 286 548 c 1
 285 548 l 2
 220 548 161 553 106 557 c 1
 105 632 l 1
 155 624 226 617 284 617 c 2
 300 617 l 1
 309 679 l 2
 313 710 315 733 314 759 c 1
 355 756 l 1
 398 754 l 1
 390 729 385 699 380 674 c 2
 369 619 l 1
 479 624 612 637 727 663 c 1
 728 590 l 1
 618 570 475 554 355 550 c 1
 338 469 317 378 297 323 c 1
 379 382 463 406 561 406 c 0
 711 406 798 327 798 216 c 0
 798 116 748 47 662 7 c 0
EndSplineSet
AlternateSubs2: "Historical Kana subtable" u1B062_uni3099.ccmp u1B063_uni3099.ccmp u1B064_uni3099.ccmp u1B065_uni3099.ccmp u1B066_uni3099.ccmp u1B067_uni3099.ccmp u1B068_uni3099.ccmp
EndChar

StartChar: uni3063
Encoding: 192 12387 192
Width: 1000
Flags: W
LayerCount: 2
Fore
SplineSet
711 76 m 0
 636 28 529 0 402 -8 c 1
 372 66 l 1
 575 73 754 132 754 289 c 0
 754 369 691 431 595 431 c 0
 478 431 273 342 212 318 c 1
 196 358 l 1
 180 397 l 1
 209 403 239 411 269 421 c 0
 336 442 490 500 601 500 c 0
 734 500 830 418 830 287 c 0
 830 195 787 125 711 76 c 0
EndSplineSet
Substitution2: "Vertical forms subtable" uni3063.vert
EndChar

StartChar: uni3063.vert
Encoding: 193 -1 193
Width: 1000
Flags: W
LayerCount: 2
Fore
SplineSet
801 201 m 0
 732 155 633 129 509 122 c 1
 480 194 l 1
 673 200 835 254 835 401 c 0
 835 467 786 529 687 529 c 0
 573 529 387 447 331 424 c 1
 316 463 l 1
 301 502 l 1
 328 508 358 515 386 524 c 0
 449 544 590 596 689 596 c 0
 821 596 908 514 908 400 c 0
 908 314 870 248 801 201 c 0
EndSplineSet
Comment: "."
EndChar

StartChar: uni3064
Encoding: 194 12388 194
Width: 1000
Flags: W
LayerCount: 2
Fore
SplineSet
352 67 m 1
 336 107 l 1
 582 114 802 190 802 386 c 0
 802 487 728 566 602 566 c 0
 447 566 208 461 133 431 c 1
 116 473 l 1
 99 515 l 1
 132 522 166 531 202 543 c 0
 282 569 466 638 603 638 c 0
 759 638 884 546 884 385 c 0
 884 155 659 44 369 27 c 1
 352 67 l 1
EndSplineSet
AlternateSubs2: "Historical Kana subtable" u1B069 u1B06A u1B06B u1B06C u1B06D
EndChar

StartChar: uni3065
Encoding: 195 12389 195
Width: 1000
Flags: W
LayerCount: 2
Fore
SplineSet
339 50 m 1
 323 90 l 1
 568 97 788 173 788 369 c 0
 788 470 715 550 588 550 c 0
 434 550 195 444 120 414 c 1
 102 456 l 1
 85 498 l 1
 119 505 153 515 189 526 c 0
 269 552 453 622 590 622 c 0
 746 622 870 530 870 368 c 0
 870 138 646 27 356 10 c 1
 339 50 l 1
782 702 m 0
 796 679 809 654 819 634 c 1
 767 611 l 1
 759 631 745 655 732 679 c 0
 718 703 704 727 691 746 c 1
 741 767 l 1
 753 750 768 726 782 702 c 0
887 740 m 0
 902 716 915 692 924 674 c 1
 873 651 l 1
 863 673 850 697 837 720 c 0
 822 743 808 766 795 784 c 1
 844 806 l 1
 857 788 873 764 887 740 c 0
EndSplineSet
AlternateSubs2: "Historical Kana subtable" u1B069_uni3099.ccmp u1B06A_uni3099.ccmp u1B06B_uni3099.ccmp u1B06C_uni3099.ccmp u1B06D_uni3099.ccmp
EndChar

StartChar: u1B13A
Encoding: 196 110906 196
Width: 1000
Flags: W
LayerCount: 2
Fore
SplineSet
507 25 m 0
 448 68 409 132 409 218 c 0
 409 335 477 431 539 473 c 1
 462 464 284 445 199 426 c 1
 190 513 l 1
 220 514 246 515 261 517 c 0
 316 523 454 536 595 547 c 0
 677 554 753 559 806 561 c 1
 806 482 l 1
 764 482 698 481 658 470 c 0
 556 439 487 328 487 235 c 0
 487 92 618 45 745 39 c 1
 730 -3 l 1
 716 -44 l 1
 641 -41 565 -18 507 25 c 0
EndSplineSet
Substitution2: "Vertical forms subtable" u1B13A.vert
EndChar

StartChar: uni3066
Encoding: 198 12390 198
Width: 1000
Flags: W
LayerCount: 2
Fore
SplineSet
505 64 m 0
 434 116 384 193 384 300 c 0
 384 450 474 572 560 625 c 1
 460 613 220 590 118 568 c 1
 110 651 l 1
 146 652 176 654 194 656 c 0
 255 663 432 681 605 696 c 0
 708 705 796 710 859 713 c 1
 859 636 l 1
 806 636 723 635 675 621 c 0
 541 577 460 431 460 317 c 0
 460 129 631 70 784 64 c 1
 770 24 l 1
 757 -16 l 1
 670 -13 577 13 505 64 c 0
EndSplineSet
AlternateSubs2: "Historical Kana subtable" u1B06E u1B06F u1B070 u1B071 u1B072 u1B073 u1B074 u1B075 u1B076 u1B08E
EndChar

StartChar: uni3067
Encoding: 199 12391 199
Width: 1000
Flags: W
LayerCount: 2
Fore
SplineSet
500 58 m 0
 429 110 379 187 379 294 c 0
 379 444 468 566 555 619 c 1
 454 607 214 584 113 562 c 1
 104 646 l 1
 140 647 170 649 188 650 c 0
 249 657 427 675 600 690 c 0
 702 698 790 704 853 707 c 1
 853 630 l 1
 800 630 717 629 669 615 c 0
 536 571 454 425 454 311 c 0
 454 123 625 64 778 58 c 1
 764 18 l 1
 751 -22 l 1
 664 -19 571 7 500 58 c 0
757 450 m 0
 771 426 785 400 795 379 c 1
 747 356 l 1
 737 379 725 403 712 426 c 0
 698 449 684 472 670 491 c 1
 718 512 l 1
 729 497 743 474 757 450 c 0
862 490 m 0
 877 466 892 441 902 420 c 1
 853 396 l 1
 842 420 830 443 817 466 c 0
 804 488 790 510 774 530 c 1
 821 553 l 1
 832 537 847 514 862 490 c 0
EndSplineSet
AlternateSubs2: "Historical Kana subtable" u1B06E_uni3099.ccmp u1B06F_uni3099.ccmp u1B070_uni3099.ccmp u1B071_uni3099.ccmp u1B072_uni3099.ccmp u1B073_uni3099.ccmp u1B074_uni3099.ccmp u1B075_uni3099.ccmp u1B076_uni3099.ccmp u1B08E_uni3099.ccmp
EndChar

StartChar: u1B13B
Encoding: 200 110907 200
Width: 1000
Flags: W
LayerCount: 2
Fore
SplineSet
349 -5 m 0
 303 21 276 63 276 126 c 0
 276 209 328 273 406 329 c 1
 371 395 333 483 297 567 c 1
 372 600 l 1
 403 515 441 435 473 374 c 1
 541 416 616 454 656 477 c 0
 681 492 699 503 717 518 c 1
 759 447 l 1
 739 435 717 423 693 410 c 0
 642 384 541 335 468 287 c 0
 401 241 358 191 358 134 c 0
 358 73 416 37 530 37 c 0
 612 37 714 50 777 66 c 1
 776 21 l 1
 776 -24 l 1
 716 -35 630 -42 532 -42 c 0
 459 -42 395 -32 349 -5 c 0
EndSplineSet
Substitution2: "Vertical forms subtable" u1B13B.vert
EndChar

StartChar: uni3068
Encoding: 202 12392 202
Width: 1000
Flags: W
LayerCount: 2
Fore
SplineSet
305 32 m 0
 251 64 219 113 219 185 c 0
 219 284 281 362 382 434 c 1
 338 512 289 625 245 729 c 1
 320 761 l 1
 357 655 404 552 445 476 c 1
 534 530 635 581 687 610 c 0
 714 626 734 639 754 655 c 1
 795 587 l 1
 774 574 750 561 723 547 c 0
 659 513 529 450 437 387 c 0
 350 330 297 266 297 194 c 0
 297 114 371 64 520 64 c 0
 622 64 747 77 821 97 c 1
 821 53 l 1
 821 11 l 1
 749 -1 641 -13 524 -13 c 0
 436 -13 359 1 305 32 c 0
EndSplineSet
AlternateSubs2: "Historical Kana subtable" u1B077 u1B078 u1B079 u1B07A u1B07B u1B07C u1B07D u1B06D
EndChar

StartChar: uni3069
Encoding: 203 12393 203
Width: 1000
Flags: W
LayerCount: 2
Fore
SplineSet
800 694 m 0
 814 670 828 646 837 626 c 1
 787 602 l 1
 777 623 765 647 751 671 c 0
 738 695 723 718 710 736 c 1
 760 758 l 1
 772 741 787 717 800 694 c 0
906 731 m 0
 921 708 934 684 943 666 c 1
 893 643 l 1
 883 664 869 688 856 711 c 0
 842 734 828 757 814 775 c 1
 864 796 l 1
 877 779 892 755 906 731 c 0
280 20 m 0
 227 51 195 100 195 172 c 0
 195 272 256 350 357 421 c 1
 314 501 264 613 220 717 c 1
 294 748 l 1
 332 643 380 539 420 463 c 1
 503 514 588 556 640 586 c 0
 666 602 687 615 707 631 c 1
 744 561 l 1
 724 549 700 536 673 522 c 0
 609 487 504 437 412 375 c 0
 325 317 273 254 273 181 c 0
 273 101 347 51 495 51 c 0
 598 51 723 65 796 84 c 1
 795 41 l 1
 795 -1 l 1
 725 -15 616 -25 498 -25 c 0
 410 -25 334 -12 280 20 c 0
EndSplineSet
AlternateSubs2: "Historical Kana subtable" u1B077_uni3099.ccmp u1B078_uni3099.ccmp u1B079_uni3099.ccmp u1B07A_uni3099.ccmp u1B07B_uni3099.ccmp u1B07C_uni3099.ccmp u1B07D_uni3099.ccmp u1B06D_uni3099.ccmp
EndChar

StartChar: u1B13C
Encoding: 204 110908 204
Width: 1000
Flags: W
LayerCount: 2
Fore
SplineSet
720 397 m 0
 687 417 653 436 627 447 c 1
 666 507 l 1
 694 495 731 476 764 456 c 0
 799 436 830 417 850 403 c 1
 806 337 l 1
 785 355 753 377 720 397 c 0
464 107 m 0
 449 97 441 84 441 68 c 0
 441 34 468 11 520 11 c 0
 549 11 569 19 581 33 c 0
 593 46 597 65 597 86 c 2
 596 112 l 1
 574 119 551 123 526 123 c 0
 501 123 479 117 464 107 c 0
664 218 m 1
 667 160 l 1
 733 136 787 96 825 61 c 1
 786 -6 l 1
 756 23 717 56 671 82 c 1
 671 60 l 2
 671 -6 631 -60 530 -60 c 0
 441 -60 369 -22 369 60 c 0
 369 133 435 186 530 186 c 0
 553 186 574 183 595 180 c 1
 591 273 l 1
 587 367 l 1
 662 367 l 1
 660 334 661 307 662 275 c 2
 664 218 l 1
358 245 m 0
 329 187 297 132 265 89 c 1
 191 127 l 1
 254 204 318 324 353 412 c 1
 333 411 315 411 297 411 c 0
 268 411 235 411 204 413 c 1
 200 486 l 1
 229 484 266 482 297 482 c 0
 322 482 349 482 376 484 c 1
 387 528 396 576 398 618 c 1
 440 614 l 1
 482 610 l 1
 476 582 465 539 454 495 c 1
 493 502 531 509 566 521 c 1
 569 449 l 1
 531 438 482 428 431 421 c 1
 412 366 387 304 358 245 c 0
EndSplineSet
Substitution2: "Vertical forms subtable" u1B13C.vert
EndChar

StartChar: uni306A
Encoding: 206 12394 206
Width: 1000
Flags: W
LayerCount: 2
Fore
SplineSet
761 526 m 0
 722 550 681 572 649 586 c 1
 687 645 l 1
 721 629 765 606 806 582 c 0
 846 558 884 534 906 517 c 1
 864 454 l 1
 839 476 801 502 761 526 c 0
434 165 m 0
 414 151 402 132 402 110 c 0
 402 65 438 34 511 34 c 0
 551 34 576 45 593 62 c 0
 609 79 616 103 616 129 c 2
 615 172 l 1
 585 182 552 187 518 187 c 0
 484 187 455 179 434 165 c 0
607 362 m 0
 605 405 603 446 602 480 c 1
 676 480 l 1
 674 440 674 410 675 376 c 2
 678 297 l 1
 681 218 l 1
 762 189 828 142 877 99 c 1
 837 34 l 1
 796 71 745 114 684 145 c 1
 685 104 l 2
 685 27 637 -35 521 -35 c 0
 417 -35 333 8 333 103 c 0
 333 192 414 247 521 247 c 0
 553 247 584 244 613 238 c 1
 611 277 609 320 607 362 c 0
304 341 m 0
 268 270 229 202 191 150 c 1
 118 189 l 1
 196 282 276 435 320 548 c 1
 291 546 263 545 236 545 c 0
 201 545 162 546 126 548 c 1
 121 620 l 1
 156 615 196 613 236 613 c 0
 270 613 305 615 342 618 c 1
 356 672 369 732 371 784 c 1
 413 780 l 1
 454 776 l 1
 445 742 432 683 417 627 c 1
 466 635 517 647 565 663 c 1
 567 591 l 1
 517 577 458 564 396 555 c 1
 373 488 341 412 304 341 c 0
EndSplineSet
AlternateSubs2: "Historical Kana subtable" u1B07E u1B07F u1B080 u1B081 u1B082 u1B083 u1B084 u1B085 u1B086
EndChar

StartChar: u1B13D
Encoding: 207 110909 207
Width: 1000
Flags: W
LayerCount: 2
Fore
SplineSet
638 434 m 0
 579 434 522 437 477 442 c 1
 476 521 l 1
 520 514 581 512 640 512 c 0
 699 513 758 515 798 521 c 1
 798 442 l 1
 755 438 696 435 638 434 c 0
737 -12 m 0
 704 -14 669 -16 627 -16 c 0
 562 -16 515 -5 483 16 c 0
 453 37 438 69 438 106 c 0
 438 134 442 164 451 202 c 1
 485 199 528 189 526 182 c 0
 524 172 516 178 512 159 c 0
 510 148 509 137 509 126 c 0
 509 91 536 62 629 62 c 0
 697 62 756 68 820 83 c 1
 821 -1 l 1
 797 -5 769 -9 737 -12 c 0
231 385 m 0
 238 441 247 490 251 521 c 0
 253 541 256 564 257 585 c 1
 300 581 l 1
 342 578 l 1
 337 563 329 532 327 518 c 0
 314 454 289 307 289 223 c 0
 289 195 290 168 293 139 c 1
 306 171 322 210 334 239 c 1
 353 224 383 194 379 181 c 0
 373 164 362 174 351 141 c 0
 336 96 324 51 318 25 c 0
 316 14 313 -3 314 -11 c 0
 314 -19 314 -30 315 -40 c 1
 246 -45 l 1
 231 10 217 103 217 209 c 0
 217 268 224 330 231 385 c 0
EndSplineSet
Substitution2: "Vertical forms subtable" u1B13D.vert
EndChar

StartChar: uni306B
Encoding: 209 12395 209
Width: 1000
Flags: W
LayerCount: 2
Fore
SplineSet
655 651 m 0
 727 652 798 656 845 663 c 1
 845 585 l 1
 795 579 724 577 653 577 c 0
 582 577 510 579 459 585 c 1
 459 662 l 1
 510 654 583 650 655 651 c 0
772 27 m 0
 733 23 689 21 640 21 c 0
 561 21 504 34 467 59 c 0
 430 84 412 120 412 165 c 0
 412 197 417 231 428 278 c 1
 461 274 505 262 503 253 c 0
 501 241 490 247 485 224 c 0
 482 210 481 196 481 183 c 0
 481 139 512 97 640 97 c 0
 725 97 797 104 873 122 c 1
 875 41 l 1
 846 35 811 30 772 27 c 0
164 506 m 0
 173 575 184 636 189 675 c 0
 193 698 195 722 195 744 c 1
 237 740 l 1
 279 736 l 1
 274 720 266 689 262 672 c 0
 244 583 215 411 215 304 c 0
 215 257 218 217 224 170 c 1
 240 213 262 270 278 310 c 1
 298 294 328 264 324 252 c 0
 318 236 306 247 295 215 c 0
 276 158 257 96 251 64 c 0
 248 50 245 31 246 21 c 0
 247 10 248 -3 249 -13 c 1
 181 -18 l 1
 163 50 147 161 147 290 c 0
 147 361 155 438 164 506 c 0
EndSplineSet
AlternateSubs2: "Historical Kana subtable" u1B087 u1B088 u1B089 u1B08A u1B08B u1B08C u1B08D u1B08E
EndChar

StartChar: u1B13E
Encoding: 210 110910 210
Width: 1000
Flags: W
LayerCount: 2
Fore
SplineSet
479 352 m 0
 485 375 489 398 493 421 c 1
 465 414 439 403 416 389 c 0
 392 376 372 360 353 341 c 1
 363 317 372 295 380 278 c 0
 394 249 407 223 422 199 c 1
 437 227 450 257 461 288 c 0
 468 308 474 330 479 352 c 0
743 433 m 0
 786 392 812 334 812 260 c 0
 812 210 808 165 797 124 c 1
 829 100 855 73 875 50 c 1
 829 -11 l 1
 814 8 794 33 770 55 c 1
 739 0 691 -33 623 -33 c 0
 548 -33 499 7 499 74 c 0
 499 131 550 187 623 187 c 0
 662 187 697 178 729 164 c 1
 736 193 738 225 738 257 c 0
 738 361 675 431 570 430 c 2
 567 430 l 1
 558 375 546 318 530 267 c 0
 506 196 471 126 429 72 c 0
 386 20 336 -15 285 -15 c 0
 226 -15 179 31 179 113 c 0
 179 197 208 267 246 320 c 0
 254 331 264 344 274 355 c 1
 252 417 l 2
 243 445 237 466 222 503 c 1
 293 534 l 1
 302 493 314 449 328 408 c 1
 374 445 433 477 503 489 c 1
 506 535 l 2
 507 565 507 579 505 601 c 1
 589 600 l 1
 585 577 583 549 581 534 c 2
 576 496 l 1
 642 496 701 474 743 433 c 0
670 121 m 0
 656 125 641 127 626 127 c 0
 587 127 565 105 565 81 c 0
 565 53 586 36 621 36 c 0
 642 36 659 43 673 54 c 0
 688 66 700 83 710 103 c 1
 698 110 684 117 670 121 c 0
332 83 m 0
 347 94 364 110 379 130 c 1
 363 153 346 182 330 215 c 0
 321 234 312 256 302 280 c 1
 287 256 273 229 264 204 c 0
 254 178 249 151 249 126 c 0
 249 92 266 65 289 65 c 0
 302 65 317 72 332 83 c 0
EndSplineSet
Substitution2: "Vertical forms subtable" u1B13E.vert
EndChar

StartChar: uni306C
Encoding: 212 12396 212
Width: 1000
Flags: W
LayerCount: 2
Fore
SplineSet
471 470 m 0
 478 500 484 531 489 561 c 1
 450 553 414 538 382 520 c 0
 350 502 320 480 294 454 c 1
 307 417 321 386 332 362 c 0
 349 324 368 289 390 256 c 1
 412 294 431 338 447 384 c 0
 456 410 464 439 471 470 c 0
390 128 m 0
 340 66 282 25 220 25 c 0
 153 25 101 79 101 172 c 0
 101 271 133 355 179 418 c 0
 190 434 203 451 217 468 c 1
 202 509 l 1
 188 551 l 2
 178 585 170 611 154 650 c 1
 224 679 l 1
 234 628 251 572 270 519 c 1
 328 570 404 611 497 627 c 1
 502 686 l 2
 504 719 504 738 501 766 c 1
 585 763 l 1
 580 739 577 706 574 687 c 2
 568 634 l 1
 579 634 l 2
 731 634 862 530 862 352 c 0
 862 289 855 230 841 180 c 1
 881 149 914 115 938 86 c 1
 892 27 l 1
 872 52 846 84 815 113 c 1
 777 43 719 1 635 1 c 0
 546 1 490 47 490 124 c 0
 490 192 550 253 636 253 c 0
 688 253 735 240 776 219 c 1
 786 260 790 304 790 349 c 0
 790 474 712 571 574 570 c 2
 559 570 l 1
 549 500 535 428 512 361 c 0
 482 274 440 190 390 128 c 0
700 184 m 0
 680 191 660 194 638 194 c 0
 583 194 554 162 554 131 c 0
 554 93 583 67 633 67 c 0
 662 67 686 76 707 92 c 0
 727 108 743 131 756 158 c 1
 739 169 720 178 700 184 c 0
285 125 m 0
 307 140 328 163 349 191 c 1
 326 223 303 264 282 305 c 0
 271 330 257 362 244 395 c 1
 235 382 l 2
 214 350 197 317 185 284 c 0
 174 251 167 218 167 184 c 0
 167 135 195 100 223 100 c 0
 243 100 264 109 285 125 c 0
EndSplineSet
AlternateSubs2: "Historical Kana subtable" u1B08F u1B090 u1B091
EndChar

StartChar: u1B13F
Encoding: 213 110911 213
Width: 1000
Flags: W
LayerCount: 2
Fore
SplineSet
251 221 m 0
 283 263 314 308 334 340 c 1
 339 407 l 1
 266 397 l 1
 193 387 l 1
 186 467 l 1
 205 466 221 466 243 468 c 0
 267 470 306 473 343 480 c 1
 347 548 l 2
 347 568 347 590 344 611 c 1
 433 608 l 1
 430 588 423 546 417 495 c 1
 419 495 l 1
 445 463 l 1
 435 448 420 425 408 405 c 1
 406 380 l 1
 470 437 559 503 641 503 c 0
 747 503 806 408 806 274 c 0
 806 227 803 183 797 145 c 1
 825 125 851 100 879 71 c 1
 838 6 l 1
 818 30 798 53 777 72 c 1
 750 8 704 -29 627 -29 c 0
 548 -29 484 5 484 89 c 0
 484 154 541 202 626 202 c 0
 661 202 695 195 727 183 c 1
 731 212 733 246 733 281 c 0
 733 372 690 433 628 433 c 0
 557 433 466 361 400 288 c 1
 398 256 398 226 398 198 c 0
 398 130 397 74 402 3 c 0
 403 -11 404 -34 405 -50 c 1
 323 -50 l 1
 324 -36 325 -10 325 2 c 0
 326 75 325 120 327 207 c 1
 291 152 247 87 214 41 c 1
 167 108 l 1
 189 136 220 178 251 221 c 0
667 134 m 0
 652 138 635 140 619 140 c 0
 582 140 550 121 550 92 c 0
 550 55 583 40 622 40 c 0
 646 40 664 47 679 60 c 0
 694 73 705 92 712 116 c 1
 697 124 682 130 667 134 c 0
EndSplineSet
Substitution2: "Vertical forms subtable" u1B13F.vert
EndChar

StartChar: uni306D
Encoding: 215 12397 215
Width: 1000
Flags: W
LayerCount: 2
Fore
SplineSet
204 530 m 1
 112 517 l 1
 104 596 l 1
 125 595 143 596 165 597 c 0
 196 599 252 605 301 614 c 1
 305 705 l 2
 305 726 305 752 303 776 c 1
 390 773 l 1
 385 749 378 696 371 628 c 1
 377 630 l 1
 404 597 l 1
 362 530 l 1
 358 482 l 1
 438 554 555 640 658 640 c 0
 784 640 852 524 852 365 c 0
 852 306 848 251 839 205 c 1
 874 180 909 149 945 111 c 1
 904 49 l 1
 876 81 849 109 821 133 c 1
 790 50 734 4 639 4 c 0
 549 4 473 43 473 140 c 0
 473 217 539 271 635 271 c 0
 684 271 729 262 773 242 c 1
 778 283 780 328 780 376 c 0
 780 496 725 573 645 573 c 0
 558 573 436 481 352 391 c 1
 350 347 349 305 349 267 c 0
 349 180 348 122 352 36 c 0
 353 19 355 -5 357 -22 c 1
 316 -22 l 1
 275 -22 l 1
 277 -9 278 19 278 34 c 0
 279 126 279 175 281 280 c 2
 282 317 l 1
 236 248 174 156 128 92 c 1
 82 157 l 1
 134 224 242 374 289 450 c 1
 296 543 l 1
 204 530 l 1
696 202 m 0
 675 208 653 211 630 211 c 0
 581 211 537 184 537 143 c 0
 537 94 581 71 633 71 c 0
 667 71 693 81 713 99 c 0
 733 118 748 145 758 176 c 1
 738 187 718 196 696 202 c 0
EndSplineSet
AlternateSubs2: "Historical Kana subtable" u1B092 u1B093 u1B094 u1B095 u1B096 u1B097 u1B098
EndChar

StartChar: u1B140
Encoding: 216 110912 216
Width: 1000
Flags: W
LayerCount: 2
Fore
SplineSet
467 375 m 0
 474 409 480 444 484 478 c 1
 416 467 360 430 323 385 c 0
 286 339 266 285 266 236 c 0
 266 146 303 105 336 105 c 0
 370 105 406 155 442 276 c 0
 452 307 460 341 467 375 c 0
288 457 m 0
 350 516 435 554 531 554 c 0
 714 554 831 423 831 259 c 0
 831 94 729 -18 543 -45 c 1
 519 -8 l 1
 497 28 l 1
 523 30 545 34 565 39 c 0
 663 62 750 136 750 262 c 0
 750 375 683 465 565 480 c 1
 554 409 542 333 519 260 c 0
 473 100 410 12 334 12 c 0
 258 12 188 98 188 229 c 0
 188 317 226 398 288 457 c 0
EndSplineSet
Substitution2: "Vertical forms subtable" u1B140.vert
EndChar

StartChar: uni306E
Encoding: 218 12398 218
Width: 1000
Flags: W
LayerCount: 2
Fore
SplineSet
353 197 m 0
 377 234 401 290 425 371 c 0
 448 451 467 542 477 630 c 1
 387 619 315 574 264 515 c 0
 214 457 186 385 186 319 c 0
 186 198 241 145 283 145 c 0
 305 145 329 161 353 197 c 0
232 586 m 0
 306 658 409 703 524 703 c 0
 743 703 884 545 884 350 c 0
 884 148 754 14 531 -16 c 1
 508 20 l 1
 487 55 l 1
 517 58 546 63 568 68 c 0
 688 96 806 187 806 353 c 0
 806 498 715 618 555 632 c 1
 543 542 525 444 499 355 c 0
 442 157 367 56 280 56 c 0
 196 56 113 154 113 313 c 0
 113 417 158 515 232 586 c 0
EndSplineSet
AlternateSubs2: "Historical Kana subtable" u1B099 u1B09A u1B09B u1B09C u1B09D
EndChar

StartChar: u1B141
Encoding: 219 110913 219
Width: 1000
Flags: W
LayerCount: 2
Fore
SplineSet
295 377 m 0
 288 318 281 256 281 214 c 0
 281 186 283 160 288 131 c 1
 299 163 314 202 327 231 c 1
 346 216 376 186 372 173 c 0
 366 156 354 167 343 134 c 0
 328 91 316 47 310 21 c 0
 308 10 306 -6 306 -15 c 0
 307 -23 308 -34 309 -44 c 1
 240 -49 l 1
 225 6 211 93 211 200 c 0
 211 258 217 325 225 384 c 0
 232 443 239 496 244 527 c 0
 246 547 250 572 251 592 c 1
 293 588 343 577 341 571 c 0
 339 563 330 569 326 554 c 0
 323 543 321 531 319 524 c 0
 312 493 303 436 295 377 c 0
505 123 m 0
 490 113 481 99 481 82 c 0
 481 45 516 28 565 28 c 0
 594 28 612 35 623 49 c 0
 634 62 639 83 639 107 c 2
 639 128 l 1
 616 135 592 138 568 138 c 0
 543 138 520 133 505 123 c 0
628 495 m 1
 628 542 l 2
 628 555 625 577 623 592 c 1
 667 592 l 1
 711 592 l 1
 709 577 707 559 706 543 c 0
 705 523 704 490 703 454 c 1
 749 458 791 464 830 472 c 1
 830 396 l 1
 790 389 748 384 703 381 c 1
 704 303 709 232 711 172 c 1
 775 147 825 107 863 72 c 1
 821 6 l 1
 785 40 750 70 715 92 c 1
 715 89 l 2
 715 16 681 -45 574 -45 c 0
 470 -45 411 -2 411 73 c 0
 411 146 471 199 574 199 c 0
 596 199 616 197 636 194 c 1
 634 249 630 316 628 377 c 1
 564 376 l 2
 519 376 478 378 433 381 c 1
 432 455 l 1
 476 450 519 447 565 447 c 2
 628 449 l 1
 628 495 l 1
EndSplineSet
Substitution2: "Vertical forms subtable" u1B141.vert
EndChar

StartChar: uni306F
Encoding: 221 12399 221
Width: 1000
Flags: W
LayerCount: 2
Fore
SplineSet
155 507 m 0
 164 580 175 646 181 686 c 0
 184 708 187 734 187 754 c 1
 228 750 l 1
 270 747 l 1
 264 731 257 699 254 682 c 0
 235 593 207 403 207 295 c 0
 207 249 210 209 216 162 c 1
 231 205 254 264 270 303 c 1
 289 287 319 257 315 245 c 0
 310 229 297 239 287 208 c 0
 268 153 248 93 242 60 c 0
 239 47 237 28 238 17 c 0
 238 7 239 -6 240 -17 c 1
 174 -22 l 1
 155 47 138 152 138 282 c 0
 138 353 146 434 155 507 c 0
483 186 m 0
 462 172 449 153 449 129 c 0
 449 80 496 53 564 53 c 0
 603 53 629 64 645 82 c 0
 661 100 666 126 666 158 c 2
 665 192 l 1
 635 201 603 207 570 207 c 0
 535 207 504 199 483 186 c 0
653 635 m 1
 653 695 l 2
 653 711 651 737 649 753 c 1
 692 753 l 1
 734 753 l 1
 731 734 729 715 728 696 c 0
 727 670 727 625 726 579 c 1
 783 584 838 592 888 602 c 1
 888 528 l 1
 837 519 782 513 726 509 c 1
 727 412 733 316 737 236 c 1
 813 205 874 157 923 112 c 1
 882 48 l 1
 835 93 788 131 740 159 c 1
 740 139 l 2
 740 60 704 -16 577 -16 c 0
 451 -16 382 35 382 122 c 0
 382 202 452 266 575 266 c 0
 606 266 635 264 663 258 c 1
 660 332 654 426 653 505 c 1
 563 503 l 2
 509 503 461 506 405 509 c 1
 405 581 l 1
 459 577 508 574 565 574 c 2
 653 576 l 1
 653 635 l 1
EndSplineSet
AlternateSubs2: "Historical Kana subtable" u1B09E u1B09F u1B0A0 u1B0A1 u1B0A2 u1B0A3 u1B0A4 u1B0A5 u1B0A6 u1B0A7 u1B0A8
EndChar

StartChar: uni3070
Encoding: 222 12400 222
Width: 1000
Flags: W
LayerCount: 2
Fore
SplineSet
133 497 m 0
 143 571 154 636 159 675 c 0
 162 698 164 723 164 745 c 1
 206 741 l 1
 247 737 l 1
 242 721 234 690 231 673 c 0
 212 583 184 392 184 286 c 0
 184 239 187 198 194 151 c 1
 209 195 231 254 247 292 c 1
 266 277 296 248 292 236 c 0
 286 220 275 230 264 199 c 0
 245 143 225 84 218 50 c 0
 215 36 214 18 214 6 c 0
 215 -2 216 -17 217 -27 c 1
 151 -32 l 1
 132 37 116 142 116 272 c 0
 116 343 124 424 133 497 c 0
822 709 m 0
 832 685 842 660 848 641 c 1
 800 624 l 1
 793 645 784 669 774 694 c 0
 765 718 756 742 746 760 c 1
 792 774 l 1
 801 757 811 733 822 709 c 0
917 739 m 0
 927 715 937 691 944 672 c 1
 896 654 l 1
 888 675 880 700 869 723 c 0
 860 747 851 770 840 789 c 1
 886 804 l 1
 895 787 906 763 917 739 c 0
461 175 m 0
 440 162 427 143 427 119 c 0
 427 70 474 44 541 44 c 0
 581 44 606 54 622 72 c 0
 638 90 644 117 644 148 c 2
 643 181 l 1
 613 192 580 196 546 196 c 0
 512 196 482 189 461 175 c 0
631 624 m 1
 631 684 l 2
 631 700 629 726 627 744 c 1
 669 744 l 1
 712 744 l 1
 708 723 706 704 705 685 c 0
 703 659 703 614 703 569 c 1
 760 574 816 581 866 591 c 1
 866 517 l 1
 814 508 759 503 703 499 c 1
 704 402 711 306 714 225 c 1
 790 194 851 146 900 101 c 1
 859 37 l 1
 812 82 765 121 717 148 c 1
 717 129 l 2
 717 50 681 -27 555 -27 c 0
 429 -27 360 26 360 112 c 0
 360 192 430 256 553 256 c 0
 584 256 613 253 640 247 c 1
 637 321 632 415 631 495 c 1
 540 493 l 2
 487 493 438 495 383 499 c 1
 383 571 l 1
 436 566 487 563 541 563 c 2
 631 565 l 1
 631 624 l 1
EndSplineSet
AlternateSubs2: "Historical Kana subtable" u1B09E_uni3099.ccmp u1B09F_uni3099.ccmp u1B0A0_uni3099.ccmp u1B0A1_uni3099.ccmp u1B0A2_uni3099.ccmp u1B0A3_uni3099.ccmp u1B0A4_uni3099.ccmp u1B0A5_uni3099.ccmp u1B0A6_uni3099.ccmp u1B0A7_uni3099.ccmp u1B0A8_uni3099.ccmp
EndChar

StartChar: uni3071
Encoding: 223 12401 223
Width: 1000
Flags: W
LayerCount: 2
Fore
SplineSet
133 497 m 0
 143 571 154 636 159 675 c 0
 162 698 164 723 164 745 c 1
 206 741 l 1
 247 737 l 1
 242 721 234 690 231 673 c 0
 212 583 184 392 184 286 c 0
 184 239 187 198 194 151 c 1
 209 195 231 254 247 292 c 1
 266 277 296 248 292 236 c 0
 286 220 275 230 264 199 c 0
 245 143 225 84 218 50 c 0
 215 36 214 18 214 6 c 0
 215 -2 216 -17 217 -27 c 1
 151 -32 l 1
 132 37 116 142 116 272 c 0
 116 343 124 424 133 497 c 0
889 762 m 0
 879 773 865 779 849 779 c 0
 833 779 819 772 808 762 c 0
 799 751 792 737 792 721 c 0
 792 689 817 664 849 664 c 0
 880 664 905 689 905 721 c 0
 905 737 899 752 889 762 c 0
918 792 m 0
 936 774 947 749 947 721 c 0
 947 693 936 668 918 650 c 0
 900 632 876 621 849 621 c 0
 793 621 751 665 751 721 c 0
 751 777 793 821 849 821 c 0
 876 821 901 810 918 792 c 0
461 175 m 0
 440 162 427 143 427 119 c 0
 427 70 474 44 541 44 c 0
 581 44 606 54 622 72 c 0
 638 90 644 117 644 148 c 2
 643 181 l 1
 613 192 580 196 546 196 c 0
 512 196 482 189 461 175 c 0
631 624 m 1
 631 684 l 2
 631 700 629 726 627 744 c 1
 669 744 l 1
 712 744 l 1
 708 723 706 704 705 685 c 0
 703 659 703 614 703 569 c 1
 760 574 816 581 866 591 c 1
 866 517 l 1
 814 508 759 503 703 499 c 1
 704 402 711 306 714 225 c 1
 790 194 851 146 900 101 c 1
 859 37 l 1
 812 82 765 121 717 148 c 1
 717 129 l 2
 717 50 681 -27 555 -27 c 0
 429 -27 360 26 360 112 c 0
 360 192 430 256 553 256 c 0
 584 256 613 253 640 247 c 1
 637 321 632 415 631 495 c 1
 540 493 l 2
 487 493 438 495 383 499 c 1
 383 571 l 1
 436 566 487 563 541 563 c 2
 631 565 l 1
 631 624 l 1
EndSplineSet
AlternateSubs2: "Historical Kana subtable" u1B09E_uni309A.ccmp u1B09F_uni309A.ccmp u1B0A0_uni309A.ccmp u1B0A1_uni309A.ccmp u1B0A2_uni309A.ccmp u1B0A3_uni309A.ccmp u1B0A4_uni309A.ccmp u1B0A5_uni309A.ccmp u1B0A6_uni309A.ccmp u1B0A7_uni309A.ccmp u1B0A8_uni309A.ccmp
EndChar

StartChar: u1B142
Encoding: 224 110914 224
Width: 1000
Flags: W
LayerCount: 2
Fore
SplineSet
631 151 m 0
 661 233 663 352 636 495 c 1
 620 549 l 1
 697 571 l 1
 712 476 745 347 860 240 c 1
 834 204 l 1
 810 169 l 1
 773 209 743 255 715 307 c 1
 728 118 668 -60 455 -60 c 0
 334 -60 239 10 239 144 c 0
 239 283 304 387 373 471 c 1
 338 466 281 459 256 456 c 0
 241 454 228 452 212 449 c 1
 206 530 l 1
 218 529 233 529 248 530 c 0
 317 534 447 553 494 570 c 1
 517 501 l 1
 506 498 488 492 477 486 c 0
 426 448 315 317 315 161 c 0
 315 58 381 23 457 23 c 0
 543 23 602 69 631 151 c 0
EndSplineSet
Substitution2: "Vertical forms subtable" u1B142.vert
EndChar

StartChar: uni3072
Encoding: 226 12402 226
Width: 1000
Flags: W
LayerCount: 2
Fore
SplineSet
654 204 m 0
 693 306 698 453 667 631 c 1
 646 702 l 1
 720 723 l 1
 740 607 780 444 919 317 c 1
 895 283 l 1
 870 249 l 1
 820 304 778 366 743 439 c 1
 762 196 691 -34 430 -34 c 0
 283 -34 175 50 175 209 c 0
 175 388 267 527 351 622 c 1
 303 613 225 604 191 600 c 0
 173 598 157 595 138 592 c 1
 132 673 l 1
 146 672 165 672 182 673 c 0
 266 676 425 699 480 721 c 1
 502 652 l 1
 490 649 465 642 452 635 c 0
 392 591 249 422 249 225 c 0
 249 90 336 44 432 44 c 0
 541 44 615 102 654 204 c 0
EndSplineSet
AlternateSubs2: "Historical Kana subtable" u1B0A9 u1B0AA u1B0AB u1B0AC u1B0AD u1B0AE u1B0AF
EndChar

StartChar: uni3073
Encoding: 227 12403 227
Width: 1000
Flags: W
LayerCount: 2
Fore
SplineSet
818 697 m 0
 830 673 841 648 849 628 c 1
 800 609 l 1
 791 631 780 656 770 680 c 0
 759 705 747 728 737 746 c 1
 784 763 l 1
 794 745 806 721 818 697 c 0
868 718 m 0
 856 741 845 764 834 782 c 1
 880 800 l 1
 890 783 902 759 915 735 c 0
 926 711 938 686 947 666 c 1
 898 648 l 1
 890 670 879 694 868 718 c 0
637 189 m 0
 676 291 680 438 649 616 c 1
 628 687 l 1
 702 709 l 1
 722 593 762 429 901 302 c 1
 876 267 l 1
 852 234 l 1
 801 290 759 352 725 425 c 1
 744 182 673 -49 413 -49 c 0
 265 -49 158 35 158 194 c 0
 158 373 249 511 332 606 c 1
 285 599 207 589 173 585 c 0
 155 582 139 580 120 577 c 1
 115 657 l 1
 129 656 148 656 165 657 c 0
 248 661 407 684 461 705 c 1
 484 638 l 1
 472 634 447 627 434 621 c 0
 375 576 231 408 231 211 c 0
 231 74 319 29 414 29 c 0
 523 29 597 87 637 189 c 0
EndSplineSet
AlternateSubs2: "Historical Kana subtable" u1B0A9_uni3099.ccmp u1B0AA_uni3099.ccmp u1B0AB_uni3099.ccmp u1B0AC_uni3099.ccmp u1B0AD_uni3099.ccmp u1B0AE_uni3099.ccmp u1B0AF_uni3099.ccmp
EndChar

StartChar: uni3074
Encoding: 228 12404 228
Width: 1000
Flags: W
LayerCount: 2
Fore
SplineSet
805 650 m 0
 816 639 832 632 849 632 c 0
 882 632 909 659 909 694 c 0
 909 728 882 756 849 756 c 0
 832 756 817 749 806 738 c 0
 794 726 788 711 788 694 c 0
 788 677 795 661 805 650 c 0
922 619 m 0
 903 600 877 588 849 588 c 0
 820 588 794 600 775 619 c 0
 757 638 745 665 745 694 c 0
 745 752 790 799 849 799 c 0
 905 799 952 752 952 694 c 0
 952 665 940 638 922 619 c 0
637 189 m 0
 676 291 680 438 649 616 c 1
 628 687 l 1
 702 709 l 1
 722 593 762 429 901 302 c 1
 876 267 l 1
 852 234 l 1
 801 290 759 352 725 425 c 1
 744 182 673 -49 413 -49 c 0
 265 -49 158 35 158 194 c 0
 158 373 249 511 332 606 c 1
 285 599 207 589 173 585 c 0
 155 582 139 580 120 577 c 1
 115 657 l 1
 129 656 148 656 165 657 c 0
 248 661 407 684 461 705 c 1
 484 638 l 1
 472 634 447 627 434 621 c 0
 375 576 231 408 231 211 c 0
 231 74 319 29 414 29 c 0
 523 29 597 87 637 189 c 0
EndSplineSet
AlternateSubs2: "Historical Kana subtable" u1B0A9_uni309A.ccmp u1B0AA_uni309A.ccmp u1B0AB_uni309A.ccmp u1B0AC_uni309A.ccmp u1B0AD_uni309A.ccmp u1B0AE_uni309A.ccmp u1B0AF_uni309A.ccmp
EndChar

StartChar: u1B143
Encoding: 229 110915 229
Width: 1000
Flags: W
LayerCount: 2
Fore
SplineSet
485 499 m 0
 456 514 424 529 395 540 c 1
 440 597 l 1
 470 585 506 569 541 552 c 0
 576 535 609 516 633 499 c 1
 651 449 l 1
 632 434 581 392 552 372 c 1
 504 417 l 1
 524 430 544 445 555 455 c 1
 539 468 514 484 485 499 c 0
594 -20 m 0
 567 -39 532 -45 499 -45 c 0
 453 -45 410 -39 375 -32 c 1
 363 50 l 1
 404 38 442 32 484 32 c 0
 521 32 557 45 557 90 c 0
 557 141 504 211 464 253 c 0
 446 272 421 295 398 314 c 1
 456 364 l 1
 477 343 496 323 516 302 c 0
 554 262 584 225 606 189 c 0
 627 152 640 117 640 81 c 0
 640 31 621 0 594 -20 c 0
747 138 m 0
 725 184 699 227 672 258 c 1
 737 294 l 1
 762 264 790 219 814 173 c 0
 838 128 859 82 870 46 c 1
 798 6 l 1
 788 44 769 92 747 138 c 0
262 135 m 0
 297 163 331 193 353 217 c 1
 398 157 l 1
 377 133 347 106 314 77 c 0
 280 50 242 21 203 -3 c 1
 157 63 l 1
 190 81 227 107 262 135 c 0
EndSplineSet
Substitution2: "Vertical forms subtable" u1B143.vert
EndChar

StartChar: uni3075
Encoding: 231 12405 231
Width: 1000
Flags: W
LayerCount: 2
Fore
SplineSet
480 646 m 0
 444 666 404 686 368 700 c 1
 412 756 l 1
 447 741 492 720 534 698 c 0
 575 675 616 651 644 630 c 1
 661 580 l 1
 639 561 586 519 551 494 c 1
 504 539 l 1
 528 555 555 577 569 588 c 1
 549 605 516 626 480 646 c 0
528 246 m 0
 505 283 475 320 448 349 c 0
 428 371 399 399 373 421 c 1
 429 471 l 1
 452 447 476 421 498 396 c 0
 542 349 579 305 605 261 c 0
 633 217 648 174 648 130 c 0
 648 13 555 -14 486 -14 c 0
 427 -14 375 -7 333 2 c 1
 322 80 l 1
 369 67 415 59 474 59 c 0
 517 59 569 76 569 139 c 0
 569 172 552 209 528 246 c 0
800 203 m 0
 773 258 741 311 708 348 c 1
 769 384 l 1
 802 345 836 291 865 237 c 0
 894 182 919 126 934 84 c 1
 865 45 l 1
 851 91 828 148 800 203 c 0
199 189 m 0
 243 223 284 260 310 290 c 1
 353 232 l 1
 326 203 289 169 248 134 c 0
 206 99 160 65 114 37 c 1
 69 101 l 1
 108 123 155 155 199 189 c 0
EndSplineSet
AlternateSubs2: "Historical Kana subtable" u1B0B0 u1B0B1 u1B0B2
EndChar

StartChar: uni3076
Encoding: 232 12406 232
Width: 1000
Flags: W
LayerCount: 2
Fore
SplineSet
460 638 m 0
 423 659 383 678 347 693 c 1
 390 748 l 1
 427 733 471 712 512 690 c 0
 555 668 595 644 622 623 c 1
 640 574 l 1
 618 554 565 511 530 486 c 1
 482 531 l 1
 508 549 534 569 548 580 c 1
 528 598 496 618 460 638 c 0
508 239 m 0
 484 276 454 312 428 341 c 0
 407 363 378 391 352 414 c 1
 408 463 l 1
 431 439 455 413 477 389 c 0
 521 342 558 297 585 253 c 0
 612 210 627 167 627 123 c 0
 627 5 533 -22 465 -22 c 0
 405 -22 354 -15 312 -6 c 1
 301 74 l 1
 349 59 394 51 453 51 c 0
 496 51 548 70 548 131 c 0
 548 164 531 202 508 239 c 0
780 195 m 0
 752 250 720 303 687 340 c 1
 748 376 l 1
 781 338 815 284 844 229 c 0
 873 174 899 119 914 76 c 1
 843 37 l 1
 830 83 807 140 780 195 c 0
178 182 m 0
 222 216 263 252 289 282 c 1
 333 224 l 1
 305 195 269 161 226 126 c 0
 185 93 139 58 93 30 c 1
 49 94 l 1
 88 116 134 148 178 182 c 0
790 587 m 0
 804 563 817 539 826 519 c 1
 775 496 l 1
 767 516 754 540 741 564 c 0
 727 588 712 612 699 630 c 1
 749 652 l 1
 762 635 776 611 790 587 c 0
896 625 m 0
 910 601 924 577 932 559 c 1
 882 536 l 1
 871 557 859 581 845 604 c 0
 832 628 818 651 804 669 c 1
 853 691 l 1
 866 673 882 649 896 625 c 0
EndSplineSet
AlternateSubs2: "Historical Kana subtable" u1B0B0_uni3099.ccmp u1B0B1_uni3099.ccmp u1B0B2_uni3099.ccmp
EndChar

StartChar: uni3077
Encoding: 233 12407 233
Width: 1000
Flags: W
LayerCount: 2
Fore
SplineSet
870 548 m 0
 881 559 888 575 888 593 c 0
 888 611 882 627 869 639 c 0
 858 650 842 658 824 658 c 0
 790 658 762 628 762 593 c 0
 762 557 790 529 824 529 c 0
 842 529 858 536 870 548 c 0
900 670 m 0
 919 650 931 623 931 593 c 0
 931 563 920 535 900 516 c 0
 882 497 854 484 824 484 c 0
 766 484 718 532 718 593 c 0
 718 653 766 702 824 702 c 0
 854 702 881 690 900 670 c 0
460 638 m 0
 423 659 383 678 347 693 c 1
 390 748 l 1
 427 733 471 712 512 690 c 0
 555 668 595 644 622 623 c 1
 640 574 l 1
 618 554 565 511 530 486 c 1
 482 531 l 1
 508 549 534 569 548 580 c 1
 528 598 496 618 460 638 c 0
508 239 m 0
 484 276 454 312 428 341 c 0
 407 363 378 391 352 414 c 1
 408 463 l 1
 431 439 455 413 477 389 c 0
 521 342 558 297 585 253 c 0
 612 210 627 167 627 123 c 0
 627 5 533 -22 465 -22 c 0
 405 -22 354 -15 312 -6 c 1
 301 74 l 1
 349 59 394 51 453 51 c 0
 496 51 548 70 548 131 c 0
 548 164 531 202 508 239 c 0
780 195 m 0
 752 250 720 303 687 340 c 1
 748 376 l 1
 781 338 815 284 844 229 c 0
 873 174 899 119 914 76 c 1
 843 37 l 1
 830 83 807 140 780 195 c 0
178 182 m 0
 222 216 263 252 289 282 c 1
 333 224 l 1
 305 195 269 161 226 126 c 0
 185 93 139 58 93 30 c 1
 49 94 l 1
 88 116 134 148 178 182 c 0
EndSplineSet
AlternateSubs2: "Historical Kana subtable" u1B0B0_uni309A.ccmp u1B0B1_uni309A.ccmp u1B0B2_uni309A.ccmp
EndChar

StartChar: u1B144
Encoding: 234 110916 234
Width: 1000
Flags: W
LayerCount: 2
Fore
SplineSet
832 42 m 1
 801 6 l 1
 745 61 677 139 626 199 c 0
 577 256 519 330 483 372 c 0
 454 405 439 401 415 370 c 0
 381 327 322 244 285 198 c 0
 269 174 251 150 238 131 c 1
 202 169 l 1
 166 208 l 1
 187 223 204 240 226 263 c 0
 264 303 326 388 372 444 c 0
 420 502 465 508 518 454 c 0
 566 405 626 326 673 274 c 0
 721 221 793 143 864 79 c 1
 832 42 l 1
EndSplineSet
Substitution2: "Vertical forms subtable" u1B144.vert
EndChar

StartChar: uni3078
Encoding: 236 12408 236
Width: 1000
Flags: W
LayerCount: 2
Fore
SplineSet
894 85 m 1
 864 50 l 1
 793 118 708 216 643 290 c 0
 582 362 510 454 467 504 c 0
 427 548 409 541 376 501 c 0
 332 444 256 338 208 279 c 0
 188 254 166 225 152 205 c 1
 117 241 l 1
 83 277 l 1
 106 295 125 314 150 340 c 0
 200 392 278 502 335 570 c 0
 390 635 438 645 500 580 c 0
 557 521 629 427 689 361 c 0
 746 296 839 196 924 120 c 1
 894 85 l 1
EndSplineSet
AlternateSubs2: "Historical Kana subtable" u1B0B3 u1B0B4 u1B0B5 u1B0B6 u1B0B7 u1B0B8 u1B0B9
EndChar

StartChar: uni3079
Encoding: 237 12409 237
Width: 1000
Flags: W
LayerCount: 2
Fore
SplineSet
885 65 m 1
 855 31 l 1
 784 100 699 200 635 275 c 0
 574 345 502 437 459 486 c 0
 419 532 400 525 368 483 c 0
 324 429 246 323 198 264 c 0
 179 238 158 207 143 187 c 1
 108 223 l 1
 74 260 l 1
 98 277 116 296 142 323 c 0
 192 374 271 484 326 552 c 0
 382 617 430 626 492 562 c 0
 549 503 621 408 680 342 c 0
 738 279 831 178 915 100 c 1
 885 65 l 1
726 589 m 0
 743 561 759 531 770 508 c 1
 714 483 l 1
 703 508 689 536 674 563 c 0
 659 590 643 616 627 638 c 1
 680 662 l 1
 692 644 709 617 726 589 c 0
849 640 m 0
 866 612 883 583 894 560 c 1
 840 533 l 1
 828 559 813 586 797 613 c 0
 782 639 765 665 749 686 c 1
 802 711 l 1
 814 694 832 668 849 640 c 0
EndSplineSet
AlternateSubs2: "Historical Kana subtable" u1B0B3_uni3099.ccmp u1B0B4_uni3099.ccmp u1B0B5_uni3099.ccmp u1B0B6_uni3099.ccmp u1B0B7_uni3099.ccmp u1B0B8_uni3099.ccmp u1B0B9_uni3099.ccmp
EndChar

StartChar: uni307A
Encoding: 238 12410 238
Width: 1000
Flags: W
LayerCount: 2
Fore
SplineSet
885 65 m 1
 855 31 l 1
 784 100 699 200 635 275 c 0
 574 345 502 437 459 486 c 0
 419 532 400 525 368 483 c 0
 324 429 246 323 198 264 c 0
 179 238 158 207 143 187 c 1
 108 223 l 1
 74 260 l 1
 98 277 116 296 142 323 c 0
 192 374 271 484 326 552 c 0
 382 617 430 626 492 562 c 0
 549 503 621 408 680 342 c 0
 738 279 831 178 915 100 c 1
 885 65 l 1
807 531 m 0
 819 544 827 562 827 581 c 0
 827 602 820 619 806 631 c 0
 794 645 777 652 758 652 c 0
 719 652 689 621 689 581 c 0
 689 543 719 510 758 510 c 0
 777 510 794 518 807 531 c 0
677 665 m 0
 698 686 727 699 758 699 c 0
 790 699 818 686 839 665 c 0
 860 644 873 614 873 581 c 0
 873 517 821 465 758 465 c 0
 695 465 644 517 644 581 c 0
 644 614 657 644 677 665 c 0
EndSplineSet
AlternateSubs2: "Historical Kana subtable" u1B0B3_uni309A.ccmp u1B0B4_uni309A.ccmp u1B0B5_uni309A.ccmp u1B0B6_uni309A.ccmp u1B0B7_uni309A.ccmp u1B0B8_uni309A.ccmp u1B0B9_uni309A.ccmp
EndChar

StartChar: u1B145
Encoding: 239 110917 239
Width: 1000
Flags: W
LayerCount: 2
Fore
SplineSet
294 376 m 0
 287 317 281 256 281 214 c 0
 281 186 284 158 288 129 c 1
 299 161 314 202 327 231 c 1
 346 215 377 186 372 173 c 0
 366 156 354 167 343 134 c 0
 329 91 317 47 311 21 c 0
 309 10 306 -6 307 -15 c 0
 307 -23 308 -34 309 -44 c 1
 239 -49 l 1
 224 6 210 93 210 200 c 0
 210 258 216 324 223 383 c 0
 230 442 238 495 243 526 c 0
 245 545 248 570 249 590 c 1
 291 586 342 576 340 570 c 0
 338 562 328 567 324 552 c 0
 322 541 320 529 318 522 c 0
 311 491 301 435 294 376 c 0
506 117 m 0
 492 108 484 95 484 80 c 0
 484 46 515 28 561 28 c 0
 588 28 605 35 615 47 c 0
 626 58 630 75 630 95 c 2
 629 122 l 1
 608 129 586 131 565 131 c 0
 541 131 520 126 506 117 c 0
692 428 m 1
 692 371 l 1
 741 373 787 378 829 383 c 1
 829 311 l 1
 790 307 744 303 693 301 c 1
 694 254 696 209 698 168 c 1
 771 142 825 99 859 68 c 1
 818 -0 l 1
 783 37 743 69 701 92 c 1
 702 67 l 2
 702 1 659 -41 570 -41 c 0
 483 -41 416 -3 416 75 c 0
 416 136 464 190 567 190 c 0
 587 190 608 188 627 185 c 1
 623 297 l 1
 564 296 502 297 442 300 c 1
 442 372 l 1
 503 367 564 365 622 367 c 1
 622 425 l 1
 622 483 l 1
 568 481 510 482 454 484 c 1
 454 554 l 1
 584 543 720 551 812 565 c 1
 812 495 l 1
 777 491 737 488 692 486 c 1
 692 428 l 1
EndSplineSet
Substitution2: "Vertical forms subtable" u1B145.vert
EndChar

StartChar: uni307B
Encoding: 241 12411 241
Width: 1000
Flags: W
LayerCount: 2
Fore
SplineSet
155 505 m 0
 164 577 174 642 180 681 c 0
 183 703 186 729 186 749 c 1
 227 746 l 1
 270 742 l 1
 264 726 257 696 253 678 c 0
 234 589 208 403 208 295 c 0
 208 249 210 207 216 160 c 1
 231 204 255 265 271 304 c 1
 290 288 319 258 315 246 c 0
 309 230 298 240 287 209 c 0
 268 153 249 93 242 60 c 0
 240 47 238 28 238 17 c 0
 239 7 240 -6 241 -17 c 1
 174 -22 l 1
 154 47 138 152 138 282 c 0
 138 353 146 433 155 505 c 0
484 75 m 0
 502 63 529 57 562 57 c 0
 636 57 654 96 654 146 c 2
 653 187 l 1
 624 194 595 199 566 199 c 0
 533 199 505 193 485 180 c 0
 466 168 455 150 455 129 c 0
 455 105 465 87 484 75 c 0
711 558 m 1
 711 479 l 1
 774 482 834 487 886 494 c 1
 886 424 l 1
 837 418 776 413 711 410 c 1
 712 349 715 288 718 232 c 1
 806 203 872 151 919 109 c 1
 879 42 l 1
 832 92 778 132 722 160 c 1
 723 114 l 2
 723 36 670 -9 569 -9 c 0
 465 -9 388 35 388 125 c 0
 388 193 444 257 568 257 c 0
 597 257 624 254 650 250 c 1
 648 299 645 357 643 408 c 1
 570 405 492 406 416 410 c 1
 416 480 l 1
 492 474 570 473 643 475 c 1
 643 554 l 1
 643 634 l 1
 573 631 500 631 430 635 c 1
 430 702 l 1
 582 691 755 700 865 716 c 1
 865 649 l 1
 821 644 769 640 711 637 c 1
 711 558 l 1
EndSplineSet
AlternateSubs2: "Historical Kana subtable" u1B0BA u1B0BB u1B0BC u1B0BD u1B0BE u1B0BF u1B0C0 u1B0C1
EndChar

StartChar: uni307C
Encoding: 242 12412 242
Width: 1000
Flags: W
LayerCount: 2
Fore
SplineSet
128 491 m 0
 137 564 148 628 153 668 c 0
 157 690 160 715 160 736 c 1
 201 732 l 1
 242 728 l 1
 237 712 229 681 226 664 c 0
 208 575 180 389 180 282 c 0
 180 235 183 194 190 146 c 1
 204 190 227 250 243 290 c 1
 262 274 292 244 288 232 c 0
 282 216 271 226 260 195 c 0
 241 139 223 79 215 46 c 0
 212 32 210 14 210 2 c 0
 211 -6 212 -21 213 -31 c 1
 147 -36 l 1
 128 33 111 138 111 268 c 0
 111 339 119 419 128 491 c 0
925 733 m 0
 935 709 944 684 951 665 c 1
 904 649 l 1
 897 670 888 695 878 719 c 0
 868 743 859 766 849 783 c 1
 895 799 l 1
 904 782 915 758 925 733 c 0
457 61 m 0
 476 49 503 43 536 43 c 0
 609 43 628 81 628 132 c 2
 627 172 l 1
 598 180 568 185 539 185 c 0
 506 185 477 178 458 166 c 0
 439 153 428 136 428 115 c 0
 428 92 439 74 457 61 c 0
684 543 m 1
 684 464 l 1
 747 468 806 474 859 480 c 1
 859 410 l 1
 809 404 750 399 684 396 c 1
 685 336 689 273 692 218 c 1
 779 189 845 137 892 95 c 1
 853 27 l 1
 806 76 752 118 696 146 c 1
 696 100 l 2
 696 22 643 -23 542 -23 c 0
 438 -23 361 21 361 111 c 0
 361 178 416 242 540 242 c 0
 570 242 598 240 624 236 c 1
 621 285 618 342 617 393 c 1
 543 391 465 392 390 396 c 1
 389 466 l 1
 466 460 543 459 617 461 c 1
 617 540 l 1
 617 619 l 1
 550 617 478 617 404 621 c 1
 404 688 l 1
 544 677 678 683 780 696 c 1
 772 718 763 738 755 754 c 1
 800 769 l 1
 818 733 843 674 856 635 c 1
 808 618 l 1
 804 631 l 1
 768 627 728 625 684 622 c 1
 684 543 l 1
EndSplineSet
AlternateSubs2: "Historical Kana subtable" u1B0BA_uni3099.ccmp u1B0BB_uni3099.ccmp u1B0BC_uni3099.ccmp u1B0BD_uni3099.ccmp u1B0BE_uni3099.ccmp u1B0BF_uni3099.ccmp u1B0C0_uni3099.ccmp u1B0C1_uni3099.ccmp
EndChar

StartChar: uni307D
Encoding: 243 12413 243
Width: 1000
Flags: W
LayerCount: 2
Fore
SplineSet
128 491 m 0
 137 564 148 628 153 668 c 0
 157 690 160 715 160 736 c 1
 201 732 l 1
 242 728 l 1
 237 712 229 681 226 664 c 0
 208 575 180 389 180 282 c 0
 180 235 183 194 190 146 c 1
 204 190 227 250 243 290 c 1
 262 274 292 244 288 232 c 0
 282 216 271 226 260 195 c 0
 241 139 223 79 215 46 c 0
 212 32 210 14 210 2 c 0
 211 -6 212 -21 213 -31 c 1
 147 -36 l 1
 128 33 111 138 111 268 c 0
 111 339 119 419 128 491 c 0
903 697 m 0
 914 707 920 722 920 738 c 0
 920 754 914 769 903 778 c 0
 893 789 879 795 863 795 c 0
 831 795 806 770 806 738 c 0
 806 705 831 680 863 680 c 0
 879 680 893 686 903 697 c 0
457 61 m 0
 476 49 503 43 536 43 c 0
 609 43 628 81 628 132 c 2
 627 172 l 1
 598 180 568 185 539 185 c 0
 506 185 477 178 458 166 c 0
 439 153 428 136 428 115 c 0
 428 92 439 74 457 61 c 0
684 543 m 1
 684 464 l 1
 747 468 806 474 859 480 c 1
 859 410 l 1
 809 404 750 399 684 396 c 1
 685 336 689 273 692 218 c 1
 779 189 845 137 892 95 c 1
 853 27 l 1
 806 76 752 118 696 146 c 1
 696 100 l 2
 696 22 643 -23 542 -23 c 0
 438 -23 361 21 361 111 c 0
 361 178 416 242 540 242 c 0
 570 242 598 240 624 236 c 1
 621 285 618 342 617 393 c 1
 543 391 465 392 390 396 c 1
 389 466 l 1
 466 460 543 459 617 461 c 1
 617 540 l 1
 617 619 l 1
 550 617 478 617 404 621 c 1
 404 688 l 1
 541 677 672 683 774 696 c 1
 768 708 765 722 765 738 c 0
 765 794 807 839 863 839 c 0
 917 839 962 794 962 738 c 0
 962 681 917 638 863 638 c 0
 841 638 821 645 806 656 c 1
 806 631 l 1
 770 627 728 625 684 622 c 1
 684 543 l 1
EndSplineSet
AlternateSubs2: "Historical Kana subtable" u1B0BA_uni309A.ccmp u1B0BB_uni309A.ccmp u1B0BC_uni309A.ccmp u1B0BD_uni309A.ccmp u1B0BE_uni309A.ccmp u1B0BF_uni309A.ccmp u1B0C0_uni309A.ccmp u1B0C1_uni309A.ccmp
EndChar

StartChar: u1B146
Encoding: 244 110918 244
Width: 1000
Flags: W
LayerCount: 2
Fore
SplineSet
358 28 m 0
 373 18 396 13 429 13 c 0
 472 13 506 26 506 76 c 2
 505 120 l 1
 482 125 459 127 435 127 c 0
 403 127 378 121 361 111 c 0
 344 100 335 85 335 70 c 0
 335 53 343 39 358 28 c 0
570 399 m 1
 570 351 l 1
 646 354 713 362 780 371 c 1
 779 298 l 1
 709 289 645 284 571 281 c 1
 574 226 l 1
 577 172 l 1
 676 144 752 90 797 53 c 1
 752 -17 l 1
 709 24 650 68 582 97 c 1
 583 56 l 2
 583 -3 540 -57 440 -57 c 0
 325 -57 263 -13 263 65 c 0
 263 140 331 191 445 191 c 0
 465 191 483 190 502 188 c 1
 499 279 l 1
 456 279 l 2
 407 279 323 283 270 289 c 1
 269 363 l 1
 321 354 412 349 458 349 c 2
 497 349 l 1
 497 445 l 1
 466 445 l 2
 415 445 324 453 274 460 c 1
 273 530 l 1
 324 521 416 513 465 513 c 2
 498 513 l 1
 498 561 l 2
 498 574 497 598 494 610 c 1
 576 610 l 1
 574 596 573 579 572 557 c 2
 570 516 l 1
 636 519 704 526 772 538 c 1
 772 465 l 1
 715 458 644 451 570 448 c 1
 570 399 l 1
EndSplineSet
Substitution2: "Vertical forms subtable" u1B146.vert
EndChar

StartChar: uni307E
Encoding: 246 12414 246
Width: 1000
Flags: W
LayerCount: 2
Fore
SplineSet
301 60 m 0
 322 46 355 37 401 37 c 0
 455 37 501 54 501 121 c 2
 500 185 l 1
 471 192 440 194 409 194 c 0
 365 194 330 186 306 171 c 0
 283 157 271 137 271 115 c 0
 271 93 280 74 301 60 c 0
495 317 m 1
 493 383 l 1
 440 383 l 2
 376 383 273 388 205 396 c 1
 204 468 l 1
 272 457 379 450 441 450 c 2
 492 450 l 1
 492 464 l 1
 492 584 l 1
 450 584 l 2
 384 584 269 594 210 601 c 1
 209 672 l 1
 270 660 386 650 449 650 c 2
 492 650 l 1
 492 719 l 2
 492 735 491 763 489 776 c 1
 569 776 l 1
 566 759 564 740 563 712 c 2
 562 653 l 1
 647 657 732 666 817 679 c 1
 816 609 l 1
 742 601 652 592 562 587 c 1
 562 464 l 1
 562 453 l 1
 653 457 739 465 824 479 c 1
 823 407 l 1
 735 395 652 387 563 385 c 1
 566 311 l 1
 570 237 l 1
 695 202 790 132 844 87 c 1
 801 19 l 1
 745 71 667 129 573 164 c 1
 575 104 l 2
 575 37 532 -30 410 -30 c 0
 274 -30 201 19 201 111 c 0
 201 198 283 258 418 258 c 0
 445 258 472 256 497 252 c 1
 495 317 l 1
EndSplineSet
AlternateSubs2: "Historical Kana subtable" u1B0C2 u1B0C3 u1B0C4 u1B0C5 u1B0C6 u1B0C7 u1B0C8 u1B0D6
EndChar

StartChar: u1B147
Encoding: 247 110919 247
Width: 1000
Flags: W
LayerCount: 2
Fore
SplineSet
249 273 m 0
 295 310 359 335 435 337 c 1
 460 394 487 456 507 499 c 1
 477 498 394 494 360 492 c 0
 344 491 320 489 301 486 c 1
 297 566 l 1
 317 564 342 563 358 563 c 0
 400 563 493 568 526 570 c 0
 542 572 558 575 570 580 c 1
 594 560 621 533 619 531 c 0
 616 528 612 533 605 526 c 0
 602 522 599 518 596 512 c 0
 575 478 543 404 512 333 c 1
 582 324 647 302 704 275 c 1
 709 320 l 2
 711 346 710 375 708 398 c 1
 787 389 l 1
 785 335 779 285 772 240 c 1
 806 220 836 200 860 183 c 1
 842 141 l 1
 825 99 l 1
 802 119 777 137 750 157 c 1
 718 61 659 -11 552 -66 c 1
 488 -12 l 1
 607 39 661 119 686 198 c 1
 626 231 557 258 483 266 c 1
 455 198 420 112 391 68 c 0
 362 25 330 8 285 8 c 0
 224 8 178 52 178 124 c 0
 178 183 204 235 249 273 c 0
368 182 m 0
 380 209 393 238 405 267 c 1
 355 261 315 243 289 218 c 0
 262 194 248 164 248 134 c 0
 248 103 266 88 288 88 c 0
 303 88 316 94 331 114 c 0
 343 131 355 155 368 182 c 0
EndSplineSet
Substitution2: "Vertical forms subtable" u1B147.vert
EndChar

StartChar: uni307F
Encoding: 249 12415 249
Width: 1000
Flags: W
LayerCount: 2
Fore
SplineSet
185 360 m 0
 240 406 319 434 411 436 c 1
 444 512 479 596 508 655 c 1
 471 653 356 649 313 646 c 0
 292 645 266 642 243 640 c 1
 240 718 l 1
 264 716 291 715 310 715 c 0
 360 715 483 722 523 724 c 0
 540 726 557 730 570 735 c 1
 593 715 622 687 619 684 c 0
 615 679 610 688 604 680 c 0
 600 675 596 670 592 664 c 0
 566 621 524 523 485 434 c 1
 580 423 667 392 743 356 c 1
 747 381 749 405 751 428 c 0
 752 457 753 489 751 516 c 1
 827 507 l 1
 823 439 818 378 807 322 c 1
 853 296 891 270 921 248 c 1
 903 207 l 1
 886 166 l 1
 858 191 825 217 789 242 c 1
 750 117 678 26 541 -44 c 1
 479 9 l 1
 628 74 696 176 726 280 c 1
 647 325 555 360 457 368 c 1
 420 284 374 170 338 117 c 0
 304 68 269 50 220 50 c 0
 150 50 98 101 98 182 c 0
 98 253 130 315 185 360 c 0
331 253 m 0
 348 291 366 332 382 369 c 1
 313 364 259 340 223 308 c 0
 186 275 166 233 166 192 c 0
 166 149 193 126 223 126 c 0
 244 126 259 135 279 160 c 0
 296 183 314 216 331 253 c 0
EndSplineSet
AlternateSubs2: "Historical Kana subtable" u1B0C9 u1B0CA u1B0CB u1B0CC u1B0CD u1B0CE u1B0CF
EndChar

StartChar: u1B148
Encoding: 250 110920 250
Width: 1000
Flags: W
LayerCount: 2
Fore
SplineSet
771 465 m 0
 800 438 828 410 845 388 c 1
 790 331 l 1
 770 357 743 386 715 414 c 0
 686 443 659 467 637 483 c 1
 687 535 l 1
 711 520 742 493 771 465 c 0
283 277 m 0
 272 262 264 240 264 213 c 0
 264 173 288 151 313 151 c 0
 333 151 348 162 356 180 c 0
 366 199 369 224 369 248 c 0
 369 282 352 302 328 302 c 0
 311 302 295 293 283 277 c 0
353 -23 m 0
 329 -4 324 22 324 50 c 2
 324 78 l 1
 305 77 l 1
 257 77 200 113 200 208 c 0
 200 294 254 365 333 365 c 1
 346 364 l 1
 346 431 l 1
 323 430 l 2
 290 430 247 432 200 438 c 1
 195 510 l 1
 239 503 281 500 318 500 c 2
 345 501 l 1
 345 526 l 2
 345 564 344 590 340 610 c 1
 424 610 l 1
 421 590 417 562 417 526 c 2
 417 506 l 1
 464 512 514 521 561 534 c 1
 561 459 l 1
 515 448 463 441 417 436 c 1
 417 380 l 1
 417 325 l 1
 431 306 438 280 438 251 c 0
 438 205 427 153 398 119 c 1
 398 77 l 2
 398 38 407 20 509 20 c 0
 551 20 606 26 634 34 c 0
 673 47 694 72 694 118 c 0
 694 149 693 176 689 209 c 1
 772 184 l 1
 773 149 774 129 772 96 c 0
 768 24 744 -14 667 -37 c 0
 634 -47 555 -53 504 -53 c 0
 422 -53 377 -42 353 -23 c 0
EndSplineSet
Substitution2: "Vertical forms subtable" u1B148.vert
EndChar

StartChar: uni3080
Encoding: 252 12416 252
Width: 1000
Flags: W
LayerCount: 2
Fore
SplineSet
808 596 m 0
 842 563 876 529 897 502 c 1
 844 447 l 1
 821 478 789 513 755 546 c 0
 721 579 687 609 661 628 c 1
 709 678 l 1
 737 659 773 628 808 596 c 0
214 378 m 0
 199 357 189 326 189 290 c 0
 189 236 220 205 254 205 c 0
 282 205 301 222 313 247 c 0
 325 273 330 307 330 338 c 0
 330 385 308 412 275 412 c 0
 252 412 230 400 214 378 c 0
374 500 m 1
 374 428 l 1
 389 406 398 376 398 342 c 0
 398 289 385 222 348 179 c 1
 346 119 l 2
 346 66 360 45 496 45 c 0
 549 45 622 52 656 62 c 0
 705 76 734 105 734 169 c 0
 734 207 733 239 728 277 c 1
 808 252 l 1
 809 213 810 188 808 148 c 0
 805 58 772 16 686 -7 c 0
 646 -19 554 -26 492 -26 c 0
 303 -26 275 19 275 91 c 2
 276 137 l 1
 267 135 257 134 246 134 c 0
 194 134 125 174 125 286 c 0
 125 385 187 475 279 475 c 0
 289 475 297 474 304 472 c 1
 304 568 l 1
 270 567 l 2
 229 567 175 570 120 577 c 1
 116 648 l 1
 172 639 219 634 265 634 c 2
 304 635 l 1
 304 684 l 2
 304 722 303 755 297 775 c 1
 338 775 l 1
 380 775 l 1
 377 755 374 720 374 684 c 2
 374 641 l 1
 433 648 495 659 555 675 c 1
 555 602 l 1
 496 588 432 578 374 573 c 1
 374 500 l 1
EndSplineSet
AlternateSubs2: "Historical Kana subtable" u1B0D0 u1B0D1 u1B0D2 u1B0D3 u1B11D u1B11E
EndChar

StartChar: u1B149
Encoding: 253 110921 253
Width: 1000
Flags: W
LayerCount: 2
Fore
SplineSet
458 402 m 0
 434 394 411 382 389 368 c 1
 408 315 429 265 447 233 c 2
 455 222 l 1
 470 249 485 281 499 314 c 0
 513 347 524 383 535 418 c 1
 508 416 482 411 458 402 c 0
775 395 m 0
 811 351 831 293 831 225 c 0
 831 145 803 80 755 33 c 0
 707 -13 638 -44 557 -55 c 1
 511 15 l 1
 675 30 754 117 754 228 c 0
 754 323 698 394 609 413 c 1
 582 318 544 222 501 155 c 1
 515 136 530 118 545 103 c 1
 485 53 l 1
 453 92 l 1
 404 33 358 1 302 1 c 0
 241 1 188 53 188 149 c 0
 188 238 235 333 304 393 c 1
 283 461 l 2
 276 487 265 513 254 537 c 1
 334 561 l 1
 339 539 344 514 350 491 c 2
 366 435 l 1
 429 470 490 485 554 487 c 1
 563 535 l 2
 567 554 570 583 569 601 c 1
 611 597 660 586 658 579 c 0
 656 569 648 575 644 558 c 0
 642 545 638 533 636 524 c 2
 627 482 l 1
 688 470 739 440 775 395 c 0
366 236 m 0
 354 262 341 292 329 322 c 1
 308 298 290 270 278 241 c 0
 266 212 259 183 259 154 c 0
 259 109 278 80 310 80 c 0
 343 80 379 112 410 154 c 1
 402 169 l 2
 391 188 378 210 366 236 c 0
EndSplineSet
Substitution2: "Vertical forms subtable" u1B149.vert
EndChar

StartChar: uni3081
Encoding: 255 12417 255
Width: 1000
Flags: W
LayerCount: 2
Fore
SplineSet
434 536 m 0
 400 525 368 509 337 489 c 1
 361 423 388 359 411 320 c 2
 430 289 l 1
 450 323 470 364 489 410 c 0
 508 457 525 506 539 555 c 1
 503 554 468 547 434 536 c 0
789 79 m 0
 731 23 647 -14 546 -28 c 1
 502 40 l 1
 698 57 807 163 807 311 c 0
 807 435 731 530 610 551 c 1
 574 429 526 303 473 224 c 1
 492 199 511 176 531 157 c 1
 472 107 l 1
 457 124 442 143 428 163 c 1
 369 91 312 43 242 43 c 0
 170 43 111 103 111 216 c 0
 111 326 170 442 256 513 c 1
 242 557 l 1
 227 602 l 2
 219 631 208 663 196 688 c 1
 274 714 l 1
 279 687 287 655 293 628 c 2
 316 554 l 1
 396 602 476 621 557 622 c 1
 563 646 569 669 572 692 c 0
 575 711 578 743 578 765 c 1
 618 761 670 749 668 741 c 0
 666 731 654 737 650 718 c 0
 647 704 645 691 643 682 c 2
 628 616 l 1
 778 591 882 473 882 308 c 0
 882 213 848 136 789 79 c 0
322 341 m 0
 308 372 294 408 280 444 c 1
 249 414 224 378 206 338 c 0
 189 300 179 259 179 221 c 0
 179 158 207 119 249 119 c 0
 295 119 345 167 386 223 c 1
 365 260 l 2
 351 282 337 309 322 341 c 0
EndSplineSet
AlternateSubs2: "Historical Kana subtable" u1B0D4 u1B0D5 u1B0D6
EndChar

StartChar: u1B14A
Encoding: 256 110922 256
Width: 1000
Flags: W
LayerCount: 2
Fore
SplineSet
439 337 m 1
 432 275 l 1
 442 275 l 2
 493 275 548 277 600 284 c 1
 597 210 l 1
 551 206 505 203 455 203 c 2
 425 203 l 1
 423 175 421 150 421 134 c 0
 421 63 462 22 544 22 c 0
 656 22 724 73 724 147 c 0
 724 200 696 254 642 303 c 1
 727 321 l 1
 778 259 803 205 803 137 c 0
 803 20 701 -57 543 -57 c 0
 431 -57 346 -8 346 122 c 0
 346 142 349 172 352 208 c 1
 296 212 242 222 199 234 c 1
 202 309 l 1
 252 291 307 283 359 278 c 1
 367 341 l 1
 376 405 l 1
 321 409 263 420 216 432 c 1
 220 504 l 1
 266 489 327 479 383 474 c 1
 391 548 l 2
 393 580 393 595 391 610 c 1
 477 605 l 1
 471 581 468 562 466 543 c 2
 456 472 l 1
 513 472 564 475 605 482 c 1
 603 408 l 1
 556 404 512 401 449 401 c 2
 447 401 l 1
 439 337 l 1
EndSplineSet
Substitution2: "Vertical forms subtable" u1B14A.vert
EndChar

StartChar: uni3082
Encoding: 258 12418 258
Width: 1000
Flags: W
LayerCount: 2
Fore
SplineSet
332 450 m 1
 343 537 l 1
 274 543 200 555 141 571 c 1
 145 641 l 1
 204 622 281 610 351 605 c 1
 361 706 l 2
 364 739 364 756 362 774 c 1
 446 769 l 1
 440 743 437 722 434 701 c 2
 421 602 l 1
 493 602 557 606 612 615 c 1
 610 543 l 1
 550 537 495 534 419 534 c 2
 413 534 l 1
 402 447 l 1
 392 361 l 1
 410 361 l 2
 474 361 539 363 605 373 c 1
 603 300 l 1
 541 293 483 290 419 290 c 2
 385 290 l 1
 382 252 380 218 380 195 c 0
 380 102 430 45 538 45 c 0
 680 45 772 109 772 208 c 0
 772 272 738 344 669 404 c 1
 752 421 l 1
 817 348 848 282 848 199 c 0
 848 56 724 -30 538 -30 c 0
 410 -30 307 26 307 184 c 0
 307 211 310 249 315 294 c 1
 244 300 176 311 118 329 c 1
 122 403 l 1
 184 381 256 369 322 363 c 1
 332 450 l 1
EndSplineSet
AlternateSubs2: "Historical Kana subtable" u1B0D7 u1B0D8 u1B0D9 u1B0DA u1B0DB u1B0DC u1B11D u1B11E
EndChar

StartChar: uni3083
Encoding: 259 12419 259
Width: 1000
Flags: W
LayerCount: 2
Fore
SplineSet
519 582 m 0
 538 566 558 548 571 533 c 1
 519 492 l 1
 506 507 489 524 471 539 c 0
 453 555 435 571 417 583 c 1
 469 624 l 1
 482 615 500 599 519 582 c 0
483 118 m 0
 503 59 522 2 535 -40 c 1
 461 -61 l 1
 437 30 398 156 357 254 c 2
 326 325 l 1
 261 293 205 264 173 249 c 1
 137 324 l 1
 164 331 190 339 203 344 c 0
 229 355 262 369 298 386 c 1
 282 419 267 448 256 467 c 0
 246 482 231 506 217 522 c 1
 292 552 l 1
 299 536 308 519 315 506 c 2
 337 460 l 1
 361 414 l 1
 458 457 565 500 639 500 c 0
 763 500 820 425 820 344 c 0
 820 245 761 178 632 178 c 0
 589 178 542 191 515 202 c 1
 518 272 l 1
 547 258 590 245 628 245 c 0
 719 245 749 293 749 344 c 0
 749 385 721 433 636 433 c 0
 574 433 478 396 389 355 c 1
 420 284 l 2
 441 236 463 176 483 118 c 0
EndSplineSet
Substitution2: "Vertical forms subtable" uni3083.vert
EndChar

StartChar: uni3083.vert
Encoding: 260 -1 260
Width: 1000
Flags: W
LayerCount: 2
Fore
SplineSet
649 651 m 0
 670 633 690 615 701 600 c 1
 650 559 l 1
 637 574 619 591 602 608 c 0
 583 626 563 642 546 654 c 1
 597 693 l 1
 609 684 629 668 649 651 c 0
548 192 m 0
 531 243 512 296 492 343 c 2
 464 409 l 1
 407 380 357 353 327 339 c 1
 293 412 l 1
 319 418 336 424 350 429 c 0
 374 439 404 452 437 467 c 1
 422 499 408 527 396 547 c 0
 385 565 374 584 361 598 c 1
 435 628 l 1
 442 614 451 595 459 582 c 0
 469 561 484 531 500 496 c 1
 588 535 685 573 755 573 c 0
 868 573 925 504 925 428 c 0
 925 347 878 272 757 272 c 0
 714 272 668 284 642 295 c 1
 645 365 l 1
 673 350 715 340 754 340 c 0
 831 340 854 392 854 428 c 0
 854 468 825 509 753 509 c 0
 693 509 607 476 526 439 c 1
 556 370 l 2
 577 325 597 270 616 215 c 0
 634 160 650 107 663 66 c 1
 589 47 l 1
 579 90 564 140 548 192 c 0
EndSplineSet
Comment: "."
EndChar

StartChar: uni3084
Encoding: 261 12420 261
Width: 1000
Flags: W
LayerCount: 2
Fore
SplineSet
535 733 m 0
 561 710 588 686 605 667 c 1
 552 624 l 1
 534 642 509 666 484 689 c 0
 460 712 434 734 414 749 c 1
 467 789 l 1
 483 777 508 756 535 733 c 0
387 429 m 1
 405 389 l 2
 457 270 516 92 548 -14 c 1
 467 -36 l 1
 438 77 393 232 339 358 c 2
 321 397 l 1
 304 437 l 1
 231 402 165 367 122 347 c 1
 86 426 l 1
 114 433 147 445 163 452 c 0
 195 464 233 482 275 501 c 1
 256 543 238 579 222 606 c 0
 210 626 191 655 176 674 c 1
 253 706 l 1
 259 691 275 659 286 642 c 0
 303 610 321 572 340 531 c 1
 454 582 581 634 679 634 c 0
 808 634 888 558 888 454 c 0
 888 343 819 260 672 260 c 0
 619 260 567 273 531 287 c 1
 534 362 l 1
 571 345 618 331 667 331 c 0
 770 331 813 388 813 458 c 0
 813 514 769 566 677 566 c 0
 594 566 478 521 369 469 c 1
 387 429 l 1
EndSplineSet
AlternateSubs2: "Historical Kana subtable" u1B0DD u1B0DE u1B0DF u1B0E0 u1B0E1 u1B0E2
EndChar

StartChar: uni3085
Encoding: 262 12421 262
Width: 1000
Flags: W
LayerCount: 2
Fore
SplineSet
776 130 m 0
 736 86 675 59 590 59 c 1
 563 61 l 1
 539 10 502 -33 452 -67 c 1
 388 -26 l 1
 436 1 470 37 494 79 c 1
 443 101 398 143 370 201 c 1
 410 257 l 1
 436 201 473 160 523 142 c 1
 540 196 547 259 547 326 c 0
 547 371 545 410 542 443 c 1
 476 432 420 397 379 352 c 0
 337 308 310 254 299 203 c 0
 296 190 293 173 294 155 c 0
 295 137 301 97 304 77 c 1
 242 68 l 1
 227 116 214 196 214 272 c 0
 214 364 230 482 236 526 c 0
 237 540 237 554 236 565 c 1
 315 558 l 1
 310 547 306 531 304 520 c 0
 293 468 278 355 280 293 c 1
 327 407 428 483 536 506 c 1
 527 558 l 2
 524 574 519 590 514 602 c 1
 587 604 l 1
 592 582 597 550 602 511 c 1
 755 510 835 414 835 297 c 0
 835 233 816 173 776 130 c 0
729 400 m 0
 704 428 664 446 607 448 c 1
 611 408 613 365 613 322 c 0
 613 252 606 188 589 129 c 1
 650 129 695 146 723 176 c 0
 752 206 766 247 766 295 c 0
 766 336 755 373 729 400 c 0
EndSplineSet
Substitution2: "Vertical forms subtable" uni3085.vert
EndChar

StartChar: uni3085.vert
Encoding: 263 -1 263
Width: 1000
Flags: W
LayerCount: 2
Fore
SplineSet
503 438 m 0
 466 398 440 350 427 303 c 0
 424 290 422 272 422 255 c 0
 424 238 428 203 431 184 c 1
 371 174 l 1
 359 221 347 298 347 369 c 0
 347 458 361 551 367 594 c 0
 367 607 367 623 367 632 c 1
 441 626 l 1
 438 614 433 600 430 590 c 0
 420 539 408 447 410 389 c 1
 452 495 547 560 639 581 c 1
 636 606 633 625 630 639 c 0
 627 656 622 673 618 684 c 1
 690 686 l 1
 695 663 699 628 704 587 c 1
 837 585 919 502 919 388 c 0
 919 329 902 273 865 232 c 0
 827 192 771 166 691 166 c 2
 670 167 l 1
 648 118 615 76 568 44 c 1
 505 83 l 1
 551 109 583 144 604 184 c 1
 558 204 517 242 490 296 c 1
 531 346 l 1
 555 296 585 261 628 244 c 1
 644 296 649 356 649 420 c 0
 649 458 648 492 645 522 c 1
 588 510 540 479 503 438 c 0
817 485 m 0
 792 510 756 526 710 528 c 1
 712 490 714 452 714 415 c 0
 714 350 709 289 694 232 c 1
 747 232 788 250 814 278 c 0
 841 307 854 345 854 388 c 0
 854 427 841 461 817 485 c 0
EndSplineSet
Comment: "."
EndChar

StartChar: uni3086
Encoding: 264 12422 264
Width: 1000
Flags: W
LayerCount: 2
Fore
SplineSet
342 460 m 0
 292 405 258 338 243 277 c 0
 240 260 237 238 238 218 c 0
 239 196 244 152 250 127 c 1
 184 117 l 1
 167 177 154 274 154 365 c 0
 154 473 173 606 179 659 c 0
 180 676 180 691 179 703 c 1
 260 697 l 1
 256 683 252 668 248 651 c 0
 236 589 217 444 222 368 c 1
 275 510 397 612 534 638 c 1
 529 670 525 696 522 714 c 0
 518 734 512 759 507 773 c 1
 585 775 l 1
 590 745 598 698 603 645 c 1
 778 645 883 532 883 389 c 0
 883 232 788 111 594 111 c 1
 563 113 l 1
 534 50 491 -5 428 -47 c 1
 393 -26 l 1
 358 -4 l 1
 418 28 461 74 490 131 c 1
 424 157 368 208 334 279 c 1
 379 333 l 1
 411 265 455 217 517 195 c 1
 539 263 547 340 547 424 c 0
 547 477 544 529 540 574 c 1
 459 560 392 516 342 460 c 0
762 520 m 0
 728 555 678 578 610 579 c 1
 614 530 617 477 617 424 c 0
 617 337 609 256 588 183 c 1
 594 183 l 2
 660 183 714 202 752 238 c 0
 790 272 811 323 811 386 c 0
 811 438 795 485 762 520 c 0
EndSplineSet
AlternateSubs2: "Historical Kana subtable" u1B0E3 u1B0E4 u1B0E5 u1B0E6
EndChar

StartChar: uni3087
Encoding: 265 12423 265
Width: 1000
Flags: W
LayerCount: 2
Fore
SplineSet
307 38 m 0
 326 26 355 19 391 19 c 0
 442 19 469 48 469 94 c 2
 468 146 l 1
 446 151 425 153 402 153 c 0
 365 153 334 147 311 135 c 0
 289 123 276 106 276 84 c 0
 276 66 287 49 307 38 c 0
673 135 m 0
 713 111 747 84 774 58 c 1
 735 -9 l 1
 686 42 618 95 539 125 c 1
 540 71 l 2
 540 8 502 -47 398 -47 c 0
 288 -47 210 -3 210 81 c 0
 210 162 281 213 410 213 c 0
 429 213 447 212 465 209 c 1
 462 267 460 331 460 378 c 0
 460 417 460 498 460 530 c 0
 460 559 457 597 453 610 c 1
 493 610 l 1
 535 610 l 1
 532 596 529 557 529 531 c 2
 529 463 l 1
 592 464 696 470 763 479 c 1
 764 411 l 1
 698 405 593 399 529 398 c 1
 529 373 l 2
 529 327 533 258 536 194 c 1
 587 181 633 159 673 135 c 0
EndSplineSet
Substitution2: "Vertical forms subtable" uni3087.vert
EndChar

StartChar: uni3087.vert
Encoding: 266 -1 266
Width: 1000
Flags: W
LayerCount: 2
Fore
SplineSet
439 172 m 0
 457 162 485 156 521 156 c 0
 571 156 593 185 593 227 c 2
 592 274 l 1
 571 279 548 281 525 281 c 0
 489 281 461 274 441 263 c 0
 421 251 411 235 411 216 c 0
 411 198 420 183 439 172 c 0
789 268 m 0
 827 246 860 221 885 197 c 1
 846 130 l 1
 800 178 735 225 663 253 c 1
 664 204 l 2
 664 146 624 92 524 92 c 0
 415 92 344 130 344 213 c 0
 344 287 406 341 532 341 c 0
 552 341 571 340 589 337 c 1
 586 392 584 454 584 499 c 0
 584 538 583 609 583 642 c 0
 583 669 581 705 577 719 c 1
 618 719 l 1
 658 719 l 1
 655 704 651 668 651 643 c 2
 651 571 l 1
 712 573 802 576 866 584 c 1
 868 519 l 1
 806 513 712 509 652 508 c 1
 652 494 l 2
 652 450 656 384 659 322 c 1
 707 309 750 290 789 268 c 0
EndSplineSet
Comment: "."
EndChar

StartChar: uni3088
Encoding: 267 12424 267
Width: 1000
Flags: W
LayerCount: 2
Fore
SplineSet
261 64 m 0
 286 50 322 42 367 42 c 0
 435 42 469 74 469 141 c 2
 468 202 l 1
 438 209 407 212 376 212 c 0
 328 212 289 203 263 188 c 0
 238 172 224 151 224 124 c 0
 224 98 237 78 261 64 c 0
532 624 m 1
 532 575 l 1
 606 577 726 581 810 592 c 1
 813 520 l 1
 729 511 609 506 532 505 c 1
 532 496 l 2
 532 434 537 340 541 257 c 1
 662 223 766 156 834 94 c 1
 789 21 l 1
 728 83 642 145 544 180 c 1
 546 116 l 2
 546 37 499 -30 374 -30 c 0
 244 -30 148 12 148 122 c 0
 148 208 223 279 385 279 c 0
 413 279 439 277 465 273 c 1
 461 351 458 439 458 496 c 0
 458 553 458 631 457 673 c 0
 457 707 454 750 449 768 c 1
 493 768 l 1
 539 768 l 1
 536 747 533 701 532 673 c 2
 532 624 l 1
EndSplineSet
AlternateSubs2: "Historical Kana subtable" u1B0E7 u1B0E8 u1B0E9 u1B0EA u1B0EB u1B0EC u1B0E2
EndChar

StartChar: u1B14B
Encoding: 268 110923 268
Width: 1000
Flags: W
LayerCount: 2
Fore
SplineSet
537 569 m 0
 595 558 653 548 686 544 c 1
 669 469 l 1
 632 475 571 485 512 498 c 0
 453 510 396 522 366 530 c 1
 385 605 l 1
 420 594 478 580 537 569 c 0
618 51 m 0
 677 76 707 119 707 170 c 0
 707 228 654 269 581 269 c 0
 486 269 405 232 354 170 c 0
 341 155 335 142 328 129 c 1
 258 146 l 1
 273 219 291 379 297 467 c 1
 338 461 391 445 389 433 c 0
 386 418 373 425 367 396 c 0
 360 345 352 285 348 252 c 1
 419 311 501 339 587 339 c 0
 712 339 790 262 790 169 c 0
 790 98 761 37 694 -3 c 0
 627 -43 524 -62 374 -48 c 1
 351 32 l 1
 469 17 559 26 618 51 c 0
EndSplineSet
Substitution2: "Vertical forms subtable" u1B14B.vert
EndChar

StartChar: uni3089
Encoding: 270 12425 270
Width: 1000
Flags: W
LayerCount: 2
Fore
SplineSet
526 723 m 0
 597 709 668 697 709 693 c 1
 691 619 l 1
 647 626 573 639 502 653 c 0
 430 668 362 684 326 694 c 1
 345 767 l 1
 386 754 456 737 526 723 c 0
642 87 m 0
 716 120 752 175 752 241 c 0
 752 317 682 372 586 372 c 0
 462 372 361 324 295 243 c 0
 281 227 273 211 267 195 c 1
 197 213 l 1
 216 300 240 502 245 602 c 1
 284 597 337 581 335 570 c 0
 332 555 319 564 314 535 c 0
 304 464 293 369 285 322 c 1
 375 403 478 439 591 439 c 0
 735 439 831 351 831 239 c 0
 831 153 794 81 713 34 c 0
 633 -13 508 -35 333 -20 c 1
 310 59 l 1
 459 41 569 53 642 87 c 0
EndSplineSet
AlternateSubs2: "Historical Kana subtable" u1B0ED u1B0EE u1B0EF u1B0F0 u1B07D
EndChar

StartChar: uni3089_uni309A.ccmp
Encoding: 271 -1 271
Width: 1000
Flags: W
LayerCount: 2
Fore
SplineSet
855 664 m 0
 866 675 873 691 873 709 c 0
 873 727 867 743 854 755 c 0
 843 766 827 774 809 774 c 0
 775 774 747 744 747 709 c 0
 747 673 775 645 809 645 c 0
 827 645 843 652 855 664 c 0
885 786 m 0
 904 766 916 739 916 709 c 0
 916 679 905 651 885 632 c 0
 867 613 839 600 809 600 c 0
 751 600 703 648 703 709 c 0
 703 769 751 818 809 818 c 0
 839 818 866 806 885 786 c 0
506 703 m 0
 577 689 648 677 689 673 c 1
 671 599 l 1
 627 606 553 619 482 633 c 0
 410 648 342 664 306 674 c 1
 325 747 l 1
 366 734 436 717 506 703 c 0
622 67 m 0
 696 100 732 155 732 221 c 0
 732 297 662 352 566 352 c 0
 442 352 341 304 275 223 c 0
 261 207 253 191 247 175 c 1
 177 193 l 1
 196 280 220 482 225 582 c 1
 264 577 317 561 315 550 c 0
 312 535 299 544 294 515 c 0
 284 444 273 349 265 302 c 1
 355 383 458 419 571 419 c 0
 715 419 811 331 811 219 c 0
 811 133 774 61 693 14 c 0
 613 -33 488 -55 313 -40 c 1
 290 39 l 1
 439 21 549 33 622 67 c 0
EndSplineSet
LCarets2: 1 0
Ligature2: "Dakuten and handakuten subtable" uni3089 uni309A
EndChar

